<mxfile host="Electron" modified="2023-09-12T18:06:54.828Z" agent="Mozilla/5.0 (X11; Linux x86_64) AppleWebKit/537.36 (KHTML, like Gecko) draw.io/21.6.8 Chrome/114.0.5735.289 Electron/25.5.0 Safari/537.36" etag="UjGYkqhARosIM_cm3p0Y" version="21.6.8" type="device" pages="6">
  <diagram id="8thCpSV4O1x7xKSoYP53" name="default">
    <mxGraphModel dx="954" dy="663" grid="1" gridSize="10" guides="1" tooltips="1" connect="1" arrows="1" fold="1" page="1" pageScale="1" pageWidth="827" pageHeight="1169" math="0" shadow="0">
      <root>
        <mxCell id="0" />
        <mxCell id="1" parent="0" />
        <mxCell id="_siIITi16KkIxrnLSDsc-54" value="" style="whiteSpace=wrap;html=1;aspect=fixed;fillColor=#f5f5f5;fontColor=#333333;strokeColor=#000000;" parent="1" vertex="1">
          <mxGeometry x="280" y="495" width="40" height="40" as="geometry" />
        </mxCell>
        <mxCell id="_siIITi16KkIxrnLSDsc-55" value="" style="whiteSpace=wrap;html=1;aspect=fixed;fillColor=#f5f5f5;fontColor=#333333;strokeColor=#000000;" parent="1" vertex="1">
          <mxGeometry x="320" y="495" width="40" height="40" as="geometry" />
        </mxCell>
        <mxCell id="_siIITi16KkIxrnLSDsc-56" value="" style="whiteSpace=wrap;html=1;aspect=fixed;fillColor=#f5f5f5;fontColor=#333333;strokeColor=#000000;" parent="1" vertex="1">
          <mxGeometry x="360" y="495" width="40" height="40" as="geometry" />
        </mxCell>
        <mxCell id="_siIITi16KkIxrnLSDsc-57" value="" style="whiteSpace=wrap;html=1;aspect=fixed;fillColor=#f5f5f5;fontColor=#333333;strokeColor=#000000;" parent="1" vertex="1">
          <mxGeometry x="400" y="495" width="40" height="40" as="geometry" />
        </mxCell>
        <mxCell id="_siIITi16KkIxrnLSDsc-58" value="" style="whiteSpace=wrap;html=1;aspect=fixed;fillColor=#f5f5f5;fontColor=#333333;strokeColor=#000000;" parent="1" vertex="1">
          <mxGeometry x="440" y="495" width="40" height="40" as="geometry" />
        </mxCell>
        <mxCell id="_siIITi16KkIxrnLSDsc-59" value="" style="whiteSpace=wrap;html=1;aspect=fixed;fillColor=#f5f5f5;fontColor=#333333;strokeColor=#000000;" parent="1" vertex="1">
          <mxGeometry x="480" y="495" width="40" height="40" as="geometry" />
        </mxCell>
        <mxCell id="_siIITi16KkIxrnLSDsc-61" value="" style="whiteSpace=wrap;html=1;aspect=fixed;fillColor=#f5f5f5;fontColor=#333333;strokeColor=#000000;" parent="1" vertex="1">
          <mxGeometry x="520" y="495" width="40" height="40" as="geometry" />
        </mxCell>
        <mxCell id="9jvaBmVIkjHBs6LDJPXp-2" value="" style="shape=image;verticalLabelPosition=bottom;labelBackgroundColor=default;verticalAlign=top;aspect=fixed;imageAspect=0;image=data:image/svg+xml,PHN2ZyB4bWxuczp4bGluaz0iaHR0cDovL3d3dy53My5vcmcvMTk5OS94bGluayIgeG1sbnM9Imh0dHA6Ly93d3cudzMub3JnLzIwMDAvc3ZnIiB4bWw6c3BhY2U9InByZXNlcnZlIiB2aWV3Qm94PSIwIDAgMjU2IDI1NiIgaGVpZ2h0PSIyNTYiIHdpZHRoPSIyNTYiIHZlcnNpb249IjEuMSI+JiN4YTsmI3hhOzxkZWZzPiYjeGE7PC9kZWZzPiYjeGE7PGcgdHJhbnNmb3JtPSJ0cmFuc2xhdGUoMS40MDY1OTM0MDY1OTM0MDE2IDEuNDA2NTkzNDA2NTkzNDAxNikgc2NhbGUoMi44MSAyLjgxKSIgc3R5bGU9InN0cm9rZTogbm9uZTsgc3Ryb2tlLXdpZHRoOiAwOyBzdHJva2UtZGFzaGFycmF5OiBub25lOyBzdHJva2UtbGluZWNhcDogYnV0dDsgc3Ryb2tlLWxpbmVqb2luOiBtaXRlcjsgc3Ryb2tlLW1pdGVybGltaXQ6IDEwOyBmaWxsOiBub25lOyBmaWxsLXJ1bGU6IG5vbnplcm87IG9wYWNpdHk6IDE7Ij4mI3hhOwk8cGF0aCBzdHJva2UtbGluZWNhcD0icm91bmQiIHRyYW5zZm9ybT0ibWF0cml4KDEgMCAwIDEgMCAwKSIgc3R5bGU9InN0cm9rZTogbm9uZTsgc3Ryb2tlLXdpZHRoOiAxOyBzdHJva2UtZGFzaGFycmF5OiBub25lOyBzdHJva2UtbGluZWNhcDogYnV0dDsgc3Ryb2tlLWxpbmVqb2luOiBtaXRlcjsgc3Ryb2tlLW1pdGVybGltaXQ6IDEwOyBmaWxsOiByZ2IoMjE0LDAsMCk7IGZpbGwtcnVsZTogbm9uemVybzsgb3BhY2l0eTogMTsiIGQ9Ik0gMTEgOTAgYyAtMi44MTUgMCAtNS42MyAtMS4wNzQgLTcuNzc4IC0zLjIyMiBjIC00LjI5NSAtNC4yOTYgLTQuMjk1IC0xMS4yNjEgMCAtMTUuNTU3IGwgNjggLTY4IGMgNC4yOTcgLTQuMjk2IDExLjI2IC00LjI5NiAxNS41NTcgMCBjIDQuMjk2IDQuMjk2IDQuMjk2IDExLjI2MSAwIDE1LjU1NyBsIC02OCA2OCBDIDE2LjYzIDg4LjkyNiAxMy44MTUgOTAgMTEgOTAgeiIvPiYjeGE7CTxwYXRoIHN0cm9rZS1saW5lY2FwPSJyb3VuZCIgdHJhbnNmb3JtPSJtYXRyaXgoMSAwIDAgMSAwIDApIiBzdHlsZT0ic3Ryb2tlOiBub25lOyBzdHJva2Utd2lkdGg6IDE7IHN0cm9rZS1kYXNoYXJyYXk6IG5vbmU7IHN0cm9rZS1saW5lY2FwOiBidXR0OyBzdHJva2UtbGluZWpvaW46IG1pdGVyOyBzdHJva2UtbWl0ZXJsaW1pdDogMTA7IGZpbGw6IHJnYigyMTQsMCwwKTsgZmlsbC1ydWxlOiBub256ZXJvOyBvcGFjaXR5OiAxOyIgZD0iTSA3OSA5MCBjIC0yLjgxNSAwIC01LjYzIC0xLjA3NCAtNy43NzggLTMuMjIyIGwgLTY4IC02OCBjIC00LjI5NSAtNC4yOTYgLTQuMjk1IC0xMS4yNjEgMCAtMTUuNTU3IGMgNC4yOTYgLTQuMjk2IDExLjI2MSAtNC4yOTYgMTUuNTU3IDAgbCA2OCA2OCBjIDQuMjk2IDQuMjk2IDQuMjk2IDExLjI2MSAwIDE1LjU1NyBDIDg0LjYzIDg4LjkyNiA4MS44MTUgOTAgNzkgOTAgeiIvPiYjeGE7PC9nPiYjeGE7PC9zdmc+;" parent="1" vertex="1">
          <mxGeometry x="282" y="497" width="36" height="36" as="geometry" />
        </mxCell>
        <mxCell id="9jvaBmVIkjHBs6LDJPXp-4" value="" style="shape=image;verticalLabelPosition=bottom;labelBackgroundColor=default;verticalAlign=top;aspect=fixed;imageAspect=0;image=data:image/svg+xml,PHN2ZyB4bWxuczp4bGluaz0iaHR0cDovL3d3dy53My5vcmcvMTk5OS94bGluayIgeG1sbnM9Imh0dHA6Ly93d3cudzMub3JnLzIwMDAvc3ZnIiB4bWw6c3BhY2U9InByZXNlcnZlIiB2aWV3Qm94PSIwIDAgMjU2IDI1NiIgaGVpZ2h0PSIyNTYiIHdpZHRoPSIyNTYiIHZlcnNpb249IjEuMSI+JiN4YTsmI3hhOzxkZWZzPiYjeGE7PC9kZWZzPiYjeGE7PGcgdHJhbnNmb3JtPSJ0cmFuc2xhdGUoMS40MDY1OTM0MDY1OTM0MDE2IDEuNDA2NTkzNDA2NTkzNDAxNikgc2NhbGUoMi44MSAyLjgxKSIgc3R5bGU9InN0cm9rZTogbm9uZTsgc3Ryb2tlLXdpZHRoOiAwOyBzdHJva2UtZGFzaGFycmF5OiBub25lOyBzdHJva2UtbGluZWNhcDogYnV0dDsgc3Ryb2tlLWxpbmVqb2luOiBtaXRlcjsgc3Ryb2tlLW1pdGVybGltaXQ6IDEwOyBmaWxsOiBub25lOyBmaWxsLXJ1bGU6IG5vbnplcm87IG9wYWNpdHk6IDE7Ij4mI3hhOwk8cGF0aCBzdHJva2UtbGluZWNhcD0icm91bmQiIHRyYW5zZm9ybT0ibWF0cml4KDEgMCAwIDEgMCAwKSIgc3R5bGU9InN0cm9rZTogbm9uZTsgc3Ryb2tlLXdpZHRoOiAxOyBzdHJva2UtZGFzaGFycmF5OiBub25lOyBzdHJva2UtbGluZWNhcDogYnV0dDsgc3Ryb2tlLWxpbmVqb2luOiBtaXRlcjsgc3Ryb2tlLW1pdGVybGltaXQ6IDEwOyBmaWxsOiByZ2IoMjE0LDAsMCk7IGZpbGwtcnVsZTogbm9uemVybzsgb3BhY2l0eTogMTsiIGQ9Ik0gMTEgOTAgYyAtMi44MTUgMCAtNS42MyAtMS4wNzQgLTcuNzc4IC0zLjIyMiBjIC00LjI5NSAtNC4yOTYgLTQuMjk1IC0xMS4yNjEgMCAtMTUuNTU3IGwgNjggLTY4IGMgNC4yOTcgLTQuMjk2IDExLjI2IC00LjI5NiAxNS41NTcgMCBjIDQuMjk2IDQuMjk2IDQuMjk2IDExLjI2MSAwIDE1LjU1NyBsIC02OCA2OCBDIDE2LjYzIDg4LjkyNiAxMy44MTUgOTAgMTEgOTAgeiIvPiYjeGE7CTxwYXRoIHN0cm9rZS1saW5lY2FwPSJyb3VuZCIgdHJhbnNmb3JtPSJtYXRyaXgoMSAwIDAgMSAwIDApIiBzdHlsZT0ic3Ryb2tlOiBub25lOyBzdHJva2Utd2lkdGg6IDE7IHN0cm9rZS1kYXNoYXJyYXk6IG5vbmU7IHN0cm9rZS1saW5lY2FwOiBidXR0OyBzdHJva2UtbGluZWpvaW46IG1pdGVyOyBzdHJva2UtbWl0ZXJsaW1pdDogMTA7IGZpbGw6IHJnYigyMTQsMCwwKTsgZmlsbC1ydWxlOiBub256ZXJvOyBvcGFjaXR5OiAxOyIgZD0iTSA3OSA5MCBjIC0yLjgxNSAwIC01LjYzIC0xLjA3NCAtNy43NzggLTMuMjIyIGwgLTY4IC02OCBjIC00LjI5NSAtNC4yOTYgLTQuMjk1IC0xMS4yNjEgMCAtMTUuNTU3IGMgNC4yOTYgLTQuMjk2IDExLjI2MSAtNC4yOTYgMTUuNTU3IDAgbCA2OCA2OCBjIDQuMjk2IDQuMjk2IDQuMjk2IDExLjI2MSAwIDE1LjU1NyBDIDg0LjYzIDg4LjkyNiA4MS44MTUgOTAgNzkgOTAgeiIvPiYjeGE7PC9nPiYjeGE7PC9zdmc+;" parent="1" vertex="1">
          <mxGeometry x="322" y="497" width="36" height="36" as="geometry" />
        </mxCell>
        <mxCell id="9jvaBmVIkjHBs6LDJPXp-5" value="" style="whiteSpace=wrap;html=1;aspect=fixed;fillColor=#f5f5f5;fontColor=#333333;strokeColor=#000000;" parent="1" vertex="1">
          <mxGeometry x="280" y="575" width="40" height="40" as="geometry" />
        </mxCell>
        <mxCell id="9jvaBmVIkjHBs6LDJPXp-6" value="" style="whiteSpace=wrap;html=1;aspect=fixed;fillColor=#f5f5f5;fontColor=#333333;strokeColor=#000000;" parent="1" vertex="1">
          <mxGeometry x="320" y="575" width="40" height="40" as="geometry" />
        </mxCell>
        <mxCell id="9jvaBmVIkjHBs6LDJPXp-7" value="" style="whiteSpace=wrap;html=1;aspect=fixed;fillColor=#f5f5f5;fontColor=#333333;strokeColor=#000000;" parent="1" vertex="1">
          <mxGeometry x="360" y="575" width="40" height="40" as="geometry" />
        </mxCell>
        <mxCell id="9jvaBmVIkjHBs6LDJPXp-8" value="" style="whiteSpace=wrap;html=1;aspect=fixed;fillColor=#f5f5f5;fontColor=#333333;strokeColor=#000000;" parent="1" vertex="1">
          <mxGeometry x="400" y="575" width="40" height="40" as="geometry" />
        </mxCell>
        <mxCell id="9jvaBmVIkjHBs6LDJPXp-9" value="" style="whiteSpace=wrap;html=1;aspect=fixed;fillColor=#f5f5f5;fontColor=#333333;strokeColor=#000000;" parent="1" vertex="1">
          <mxGeometry x="440" y="575" width="40" height="40" as="geometry" />
        </mxCell>
        <mxCell id="9jvaBmVIkjHBs6LDJPXp-10" value="" style="whiteSpace=wrap;html=1;aspect=fixed;fillColor=#f5f5f5;fontColor=#333333;strokeColor=#000000;" parent="1" vertex="1">
          <mxGeometry x="480" y="575" width="40" height="40" as="geometry" />
        </mxCell>
        <mxCell id="9jvaBmVIkjHBs6LDJPXp-11" value="" style="whiteSpace=wrap;html=1;aspect=fixed;fillColor=#f5f5f5;fontColor=#333333;strokeColor=#000000;" parent="1" vertex="1">
          <mxGeometry x="520" y="575" width="40" height="40" as="geometry" />
        </mxCell>
        <mxCell id="9jvaBmVIkjHBs6LDJPXp-12" value="" style="shape=image;verticalLabelPosition=bottom;labelBackgroundColor=default;verticalAlign=top;aspect=fixed;imageAspect=0;image=data:image/svg+xml,PHN2ZyB4bWxuczp4bGluaz0iaHR0cDovL3d3dy53My5vcmcvMTk5OS94bGluayIgeG1sbnM9Imh0dHA6Ly93d3cudzMub3JnLzIwMDAvc3ZnIiB4bWw6c3BhY2U9InByZXNlcnZlIiB2aWV3Qm94PSIwIDAgMjU2IDI1NiIgaGVpZ2h0PSIyNTYiIHdpZHRoPSIyNTYiIHZlcnNpb249IjEuMSI+JiN4YTsmI3hhOzxkZWZzPiYjeGE7PC9kZWZzPiYjeGE7PGcgdHJhbnNmb3JtPSJ0cmFuc2xhdGUoMS40MDY1OTM0MDY1OTM0MDE2IDEuNDA2NTkzNDA2NTkzNDAxNikgc2NhbGUoMi44MSAyLjgxKSIgc3R5bGU9InN0cm9rZTogbm9uZTsgc3Ryb2tlLXdpZHRoOiAwOyBzdHJva2UtZGFzaGFycmF5OiBub25lOyBzdHJva2UtbGluZWNhcDogYnV0dDsgc3Ryb2tlLWxpbmVqb2luOiBtaXRlcjsgc3Ryb2tlLW1pdGVybGltaXQ6IDEwOyBmaWxsOiBub25lOyBmaWxsLXJ1bGU6IG5vbnplcm87IG9wYWNpdHk6IDE7Ij4mI3hhOwk8cGF0aCBzdHJva2UtbGluZWNhcD0icm91bmQiIHRyYW5zZm9ybT0ibWF0cml4KDEgMCAwIDEgMCAwKSIgc3R5bGU9InN0cm9rZTogbm9uZTsgc3Ryb2tlLXdpZHRoOiAxOyBzdHJva2UtZGFzaGFycmF5OiBub25lOyBzdHJva2UtbGluZWNhcDogYnV0dDsgc3Ryb2tlLWxpbmVqb2luOiBtaXRlcjsgc3Ryb2tlLW1pdGVybGltaXQ6IDEwOyBmaWxsOiByZ2IoMjE0LDAsMCk7IGZpbGwtcnVsZTogbm9uemVybzsgb3BhY2l0eTogMTsiIGQ9Ik0gMTEgOTAgYyAtMi44MTUgMCAtNS42MyAtMS4wNzQgLTcuNzc4IC0zLjIyMiBjIC00LjI5NSAtNC4yOTYgLTQuMjk1IC0xMS4yNjEgMCAtMTUuNTU3IGwgNjggLTY4IGMgNC4yOTcgLTQuMjk2IDExLjI2IC00LjI5NiAxNS41NTcgMCBjIDQuMjk2IDQuMjk2IDQuMjk2IDExLjI2MSAwIDE1LjU1NyBsIC02OCA2OCBDIDE2LjYzIDg4LjkyNiAxMy44MTUgOTAgMTEgOTAgeiIvPiYjeGE7CTxwYXRoIHN0cm9rZS1saW5lY2FwPSJyb3VuZCIgdHJhbnNmb3JtPSJtYXRyaXgoMSAwIDAgMSAwIDApIiBzdHlsZT0ic3Ryb2tlOiBub25lOyBzdHJva2Utd2lkdGg6IDE7IHN0cm9rZS1kYXNoYXJyYXk6IG5vbmU7IHN0cm9rZS1saW5lY2FwOiBidXR0OyBzdHJva2UtbGluZWpvaW46IG1pdGVyOyBzdHJva2UtbWl0ZXJsaW1pdDogMTA7IGZpbGw6IHJnYigyMTQsMCwwKTsgZmlsbC1ydWxlOiBub256ZXJvOyBvcGFjaXR5OiAxOyIgZD0iTSA3OSA5MCBjIC0yLjgxNSAwIC01LjYzIC0xLjA3NCAtNy43NzggLTMuMjIyIGwgLTY4IC02OCBjIC00LjI5NSAtNC4yOTYgLTQuMjk1IC0xMS4yNjEgMCAtMTUuNTU3IGMgNC4yOTYgLTQuMjk2IDExLjI2MSAtNC4yOTYgMTUuNTU3IDAgbCA2OCA2OCBjIDQuMjk2IDQuMjk2IDQuMjk2IDExLjI2MSAwIDE1LjU1NyBDIDg0LjYzIDg4LjkyNiA4MS44MTUgOTAgNzkgOTAgeiIvPiYjeGE7PC9nPiYjeGE7PC9zdmc+;" parent="1" vertex="1">
          <mxGeometry x="522" y="577" width="36" height="36" as="geometry" />
        </mxCell>
        <mxCell id="9jvaBmVIkjHBs6LDJPXp-13" value="" style="shape=image;verticalLabelPosition=bottom;labelBackgroundColor=default;verticalAlign=top;aspect=fixed;imageAspect=0;image=data:image/svg+xml,PHN2ZyB4bWxuczp4bGluaz0iaHR0cDovL3d3dy53My5vcmcvMTk5OS94bGluayIgeG1sbnM9Imh0dHA6Ly93d3cudzMub3JnLzIwMDAvc3ZnIiB4bWw6c3BhY2U9InByZXNlcnZlIiB2aWV3Qm94PSIwIDAgMjU2IDI1NiIgaGVpZ2h0PSIyNTYiIHdpZHRoPSIyNTYiIHZlcnNpb249IjEuMSI+JiN4YTsmI3hhOzxkZWZzPiYjeGE7PC9kZWZzPiYjeGE7PGcgdHJhbnNmb3JtPSJ0cmFuc2xhdGUoMS40MDY1OTM0MDY1OTM0MDE2IDEuNDA2NTkzNDA2NTkzNDAxNikgc2NhbGUoMi44MSAyLjgxKSIgc3R5bGU9InN0cm9rZTogbm9uZTsgc3Ryb2tlLXdpZHRoOiAwOyBzdHJva2UtZGFzaGFycmF5OiBub25lOyBzdHJva2UtbGluZWNhcDogYnV0dDsgc3Ryb2tlLWxpbmVqb2luOiBtaXRlcjsgc3Ryb2tlLW1pdGVybGltaXQ6IDEwOyBmaWxsOiBub25lOyBmaWxsLXJ1bGU6IG5vbnplcm87IG9wYWNpdHk6IDE7Ij4mI3hhOwk8cGF0aCBzdHJva2UtbGluZWNhcD0icm91bmQiIHRyYW5zZm9ybT0ibWF0cml4KDEgMCAwIDEgMCAwKSIgc3R5bGU9InN0cm9rZTogbm9uZTsgc3Ryb2tlLXdpZHRoOiAxOyBzdHJva2UtZGFzaGFycmF5OiBub25lOyBzdHJva2UtbGluZWNhcDogYnV0dDsgc3Ryb2tlLWxpbmVqb2luOiBtaXRlcjsgc3Ryb2tlLW1pdGVybGltaXQ6IDEwOyBmaWxsOiByZ2IoMjE0LDAsMCk7IGZpbGwtcnVsZTogbm9uemVybzsgb3BhY2l0eTogMTsiIGQ9Ik0gMTEgOTAgYyAtMi44MTUgMCAtNS42MyAtMS4wNzQgLTcuNzc4IC0zLjIyMiBjIC00LjI5NSAtNC4yOTYgLTQuMjk1IC0xMS4yNjEgMCAtMTUuNTU3IGwgNjggLTY4IGMgNC4yOTcgLTQuMjk2IDExLjI2IC00LjI5NiAxNS41NTcgMCBjIDQuMjk2IDQuMjk2IDQuMjk2IDExLjI2MSAwIDE1LjU1NyBsIC02OCA2OCBDIDE2LjYzIDg4LjkyNiAxMy44MTUgOTAgMTEgOTAgeiIvPiYjeGE7CTxwYXRoIHN0cm9rZS1saW5lY2FwPSJyb3VuZCIgdHJhbnNmb3JtPSJtYXRyaXgoMSAwIDAgMSAwIDApIiBzdHlsZT0ic3Ryb2tlOiBub25lOyBzdHJva2Utd2lkdGg6IDE7IHN0cm9rZS1kYXNoYXJyYXk6IG5vbmU7IHN0cm9rZS1saW5lY2FwOiBidXR0OyBzdHJva2UtbGluZWpvaW46IG1pdGVyOyBzdHJva2UtbWl0ZXJsaW1pdDogMTA7IGZpbGw6IHJnYigyMTQsMCwwKTsgZmlsbC1ydWxlOiBub256ZXJvOyBvcGFjaXR5OiAxOyIgZD0iTSA3OSA5MCBjIC0yLjgxNSAwIC01LjYzIC0xLjA3NCAtNy43NzggLTMuMjIyIGwgLTY4IC02OCBjIC00LjI5NSAtNC4yOTYgLTQuMjk1IC0xMS4yNjEgMCAtMTUuNTU3IGMgNC4yOTYgLTQuMjk2IDExLjI2MSAtNC4yOTYgMTUuNTU3IDAgbCA2OCA2OCBjIDQuMjk2IDQuMjk2IDQuMjk2IDExLjI2MSAwIDE1LjU1NyBDIDg0LjYzIDg4LjkyNiA4MS44MTUgOTAgNzkgOTAgeiIvPiYjeGE7PC9nPiYjeGE7PC9zdmc+;" parent="1" vertex="1">
          <mxGeometry x="402" y="577" width="36" height="36" as="geometry" />
        </mxCell>
        <mxCell id="9jvaBmVIkjHBs6LDJPXp-14" value="" style="rounded=0;whiteSpace=wrap;html=1;labelBackgroundColor=#ffffff;strokeColor=#000000;fontFamily=Helvetica;fontSize=12;fillColor=#56B4E9;" parent="1" vertex="1">
          <mxGeometry x="370" y="500" width="100" height="30" as="geometry" />
        </mxCell>
        <mxCell id="9jvaBmVIkjHBs6LDJPXp-15" value="" style="rounded=0;whiteSpace=wrap;html=1;labelBackgroundColor=#ffffff;strokeColor=#000000;fontFamily=Helvetica;fontSize=12;fillColor=#56B4E9;" parent="1" vertex="1">
          <mxGeometry x="450" y="580" width="60" height="30" as="geometry" />
        </mxCell>
        <mxCell id="9jvaBmVIkjHBs6LDJPXp-16" value="" style="rounded=0;whiteSpace=wrap;html=1;labelBackgroundColor=#ffffff;strokeColor=#000000;fontFamily=Helvetica;fontSize=12;fillColor=#009E73;" parent="1" vertex="1">
          <mxGeometry x="490" y="500" width="60" height="30" as="geometry" />
        </mxCell>
        <mxCell id="9jvaBmVIkjHBs6LDJPXp-17" value="" style="rounded=0;whiteSpace=wrap;html=1;labelBackgroundColor=#ffffff;strokeColor=#000000;fontFamily=Helvetica;fontSize=12;fillColor=#009E73;" parent="1" vertex="1">
          <mxGeometry x="290" y="580" width="100" height="30" as="geometry" />
        </mxCell>
        <mxCell id="9jvaBmVIkjHBs6LDJPXp-18" value="&lt;font data-font-src=&quot;https://fonts.googleapis.com/css?family=Linux+Libertine&quot; face=&quot;Linux Libertine&quot;&gt;Server 1&lt;/font&gt;" style="text;html=1;strokeColor=none;fillColor=none;align=center;verticalAlign=middle;whiteSpace=wrap;rounded=0;labelBackgroundColor=none;fontFamily=Helvetica;fontSize=12;fontColor=default;" parent="1" vertex="1">
          <mxGeometry x="390" y="505" width="60" height="20" as="geometry" />
        </mxCell>
        <mxCell id="9jvaBmVIkjHBs6LDJPXp-19" value="&lt;font data-font-src=&quot;https://fonts.googleapis.com/css?family=Linux+Libertine&quot; face=&quot;Linux Libertine&quot;&gt;Server 2&lt;/font&gt;" style="text;html=1;strokeColor=none;fillColor=none;align=center;verticalAlign=middle;whiteSpace=wrap;rounded=0;labelBackgroundColor=none;fontFamily=Helvetica;fontSize=12;fontColor=default;" parent="1" vertex="1">
          <mxGeometry x="490" y="505" width="60" height="20" as="geometry" />
        </mxCell>
        <mxCell id="9jvaBmVIkjHBs6LDJPXp-20" value="&lt;font data-font-src=&quot;https://fonts.googleapis.com/css?family=Linux+Libertine&quot; face=&quot;Linux Libertine&quot;&gt;Server 3&lt;/font&gt;" style="text;html=1;strokeColor=none;fillColor=none;align=center;verticalAlign=middle;whiteSpace=wrap;rounded=0;labelBackgroundColor=none;fontFamily=Helvetica;fontSize=12;fontColor=default;" parent="1" vertex="1">
          <mxGeometry x="310" y="585" width="60" height="20" as="geometry" />
        </mxCell>
        <mxCell id="9jvaBmVIkjHBs6LDJPXp-21" value="&lt;font data-font-src=&quot;https://fonts.googleapis.com/css?family=Linux+Libertine&quot; face=&quot;Linux Libertine&quot;&gt;Server 4&lt;/font&gt;" style="text;html=1;strokeColor=none;fillColor=none;align=center;verticalAlign=middle;whiteSpace=wrap;rounded=0;labelBackgroundColor=none;fontFamily=Helvetica;fontSize=12;fontColor=default;" parent="1" vertex="1">
          <mxGeometry x="450" y="585" width="60" height="20" as="geometry" />
        </mxCell>
        <mxCell id="9jvaBmVIkjHBs6LDJPXp-22" value="&lt;font data-font-src=&quot;https://fonts.googleapis.com/css?family=Linux+Libertine&quot; face=&quot;Linux Libertine&quot;&gt;Row 1&lt;/font&gt;" style="text;html=1;strokeColor=none;fillColor=none;align=center;verticalAlign=middle;whiteSpace=wrap;rounded=0;labelBackgroundColor=none;fontFamily=Helvetica;fontSize=12;fontColor=default;" parent="1" vertex="1">
          <mxGeometry x="210" y="500" width="60" height="30" as="geometry" />
        </mxCell>
        <mxCell id="9jvaBmVIkjHBs6LDJPXp-23" value="&lt;font data-font-src=&quot;https://fonts.googleapis.com/css?family=Linux+Libertine&quot; face=&quot;Linux Libertine&quot;&gt;Row 2&lt;/font&gt;" style="text;html=1;strokeColor=none;fillColor=none;align=center;verticalAlign=middle;whiteSpace=wrap;rounded=0;labelBackgroundColor=none;fontFamily=Helvetica;fontSize=12;fontColor=default;" parent="1" vertex="1">
          <mxGeometry x="210" y="580" width="60" height="30" as="geometry" />
        </mxCell>
        <mxCell id="9jvaBmVIkjHBs6LDJPXp-28" value="" style="rounded=0;whiteSpace=wrap;html=1;labelBackgroundColor=#ffffff;strokeColor=#000000;fontFamily=Helvetica;fontSize=12;fillColor=#009E73;" parent="1" vertex="1">
          <mxGeometry x="587" y="533" width="10" height="10" as="geometry" />
        </mxCell>
        <mxCell id="9jvaBmVIkjHBs6LDJPXp-29" value="" style="rounded=0;whiteSpace=wrap;html=1;labelBackgroundColor=#ffffff;strokeColor=#000000;fontFamily=Helvetica;fontSize=12;fillColor=#56B4E9;" parent="1" vertex="1">
          <mxGeometry x="587" y="565" width="10" height="10" as="geometry" />
        </mxCell>
        <mxCell id="9jvaBmVIkjHBs6LDJPXp-31" value="&lt;font data-font-src=&quot;https://fonts.googleapis.com/css?family=Linux+Libertine&quot; face=&quot;Linux Libertine&quot;&gt;Pool 1&lt;/font&gt;" style="text;html=1;strokeColor=none;fillColor=none;align=center;verticalAlign=middle;whiteSpace=wrap;rounded=0;labelBackgroundColor=none;fontFamily=Helvetica;fontSize=12;fontColor=default;" parent="1" vertex="1">
          <mxGeometry x="597" y="523" width="60" height="30" as="geometry" />
        </mxCell>
        <mxCell id="9jvaBmVIkjHBs6LDJPXp-32" value="&lt;font data-font-src=&quot;https://fonts.googleapis.com/css?family=Linux+Libertine&quot; face=&quot;Linux Libertine&quot;&gt;Pool 2&lt;br&gt;&lt;/font&gt;" style="text;html=1;strokeColor=none;fillColor=none;align=center;verticalAlign=middle;whiteSpace=wrap;rounded=0;labelBackgroundColor=none;fontFamily=Helvetica;fontSize=12;fontColor=default;" parent="1" vertex="1">
          <mxGeometry x="597" y="555" width="60" height="30" as="geometry" />
        </mxCell>
      </root>
    </mxGraphModel>
  </diagram>
  <diagram name="slides" id="8Ia48jTHOnkM0R2A6rCb">
    <mxGraphModel dx="795" dy="553" grid="1" gridSize="10" guides="1" tooltips="1" connect="1" arrows="1" fold="1" page="1" pageScale="1" pageWidth="827" pageHeight="1169" background="#FAFAFA" math="0" shadow="0">
      <root>
        <mxCell id="sLTmLV7prLUcYtLQ-y7w-0" />
        <mxCell id="sLTmLV7prLUcYtLQ-y7w-1" parent="sLTmLV7prLUcYtLQ-y7w-0" />
        <mxCell id="sLTmLV7prLUcYtLQ-y7w-2" value="" style="whiteSpace=wrap;html=1;aspect=fixed;fillColor=#f5f5f5;fontColor=#333333;strokeColor=#000000;fontFamily=Fira Sans;" parent="sLTmLV7prLUcYtLQ-y7w-1" vertex="1">
          <mxGeometry x="280" y="480" width="40" height="40" as="geometry" />
        </mxCell>
        <mxCell id="sLTmLV7prLUcYtLQ-y7w-3" value="" style="whiteSpace=wrap;html=1;aspect=fixed;fillColor=#f5f5f5;fontColor=#333333;strokeColor=#000000;fontFamily=Fira Sans;" parent="sLTmLV7prLUcYtLQ-y7w-1" vertex="1">
          <mxGeometry x="320" y="480" width="40" height="40" as="geometry" />
        </mxCell>
        <mxCell id="sLTmLV7prLUcYtLQ-y7w-4" value="" style="whiteSpace=wrap;html=1;aspect=fixed;fillColor=#f5f5f5;fontColor=#333333;strokeColor=#000000;fontFamily=Fira Sans;" parent="sLTmLV7prLUcYtLQ-y7w-1" vertex="1">
          <mxGeometry x="360" y="480" width="40" height="40" as="geometry" />
        </mxCell>
        <mxCell id="sLTmLV7prLUcYtLQ-y7w-5" value="" style="whiteSpace=wrap;html=1;aspect=fixed;fillColor=#f5f5f5;fontColor=#333333;strokeColor=#000000;fontFamily=Fira Sans;" parent="sLTmLV7prLUcYtLQ-y7w-1" vertex="1">
          <mxGeometry x="400" y="480" width="40" height="40" as="geometry" />
        </mxCell>
        <mxCell id="sLTmLV7prLUcYtLQ-y7w-6" value="" style="whiteSpace=wrap;html=1;aspect=fixed;fillColor=#f5f5f5;fontColor=#333333;strokeColor=#000000;fontFamily=Fira Sans;" parent="sLTmLV7prLUcYtLQ-y7w-1" vertex="1">
          <mxGeometry x="440" y="480" width="40" height="40" as="geometry" />
        </mxCell>
        <mxCell id="sLTmLV7prLUcYtLQ-y7w-7" value="" style="whiteSpace=wrap;html=1;aspect=fixed;fillColor=#f5f5f5;fontColor=#333333;strokeColor=#000000;fontFamily=Fira Sans;" parent="sLTmLV7prLUcYtLQ-y7w-1" vertex="1">
          <mxGeometry x="480" y="480" width="40" height="40" as="geometry" />
        </mxCell>
        <mxCell id="sLTmLV7prLUcYtLQ-y7w-8" value="" style="whiteSpace=wrap;html=1;aspect=fixed;fillColor=#f5f5f5;fontColor=#333333;strokeColor=#000000;fontFamily=Fira Sans;" parent="sLTmLV7prLUcYtLQ-y7w-1" vertex="1">
          <mxGeometry x="520" y="480" width="40" height="40" as="geometry" />
        </mxCell>
        <mxCell id="sLTmLV7prLUcYtLQ-y7w-9" value="" style="shape=image;verticalLabelPosition=bottom;labelBackgroundColor=default;verticalAlign=top;aspect=fixed;imageAspect=0;image=data:image/svg+xml,PHN2ZyB4bWxuczp4bGluaz0iaHR0cDovL3d3dy53My5vcmcvMTk5OS94bGluayIgeG1sbnM9Imh0dHA6Ly93d3cudzMub3JnLzIwMDAvc3ZnIiB4bWw6c3BhY2U9InByZXNlcnZlIiB2aWV3Qm94PSIwIDAgMjU2IDI1NiIgaGVpZ2h0PSIyNTYiIHdpZHRoPSIyNTYiIHZlcnNpb249IjEuMSI+JiN4YTsmI3hhOzxkZWZzPiYjeGE7PC9kZWZzPiYjeGE7PGcgdHJhbnNmb3JtPSJ0cmFuc2xhdGUoMS40MDY1OTM0MDY1OTM0MDE2IDEuNDA2NTkzNDA2NTkzNDAxNikgc2NhbGUoMi44MSAyLjgxKSIgc3R5bGU9InN0cm9rZTogbm9uZTsgc3Ryb2tlLXdpZHRoOiAwOyBzdHJva2UtZGFzaGFycmF5OiBub25lOyBzdHJva2UtbGluZWNhcDogYnV0dDsgc3Ryb2tlLWxpbmVqb2luOiBtaXRlcjsgc3Ryb2tlLW1pdGVybGltaXQ6IDEwOyBmaWxsOiBub25lOyBmaWxsLXJ1bGU6IG5vbnplcm87IG9wYWNpdHk6IDE7Ij4mI3hhOwk8cGF0aCBzdHJva2UtbGluZWNhcD0icm91bmQiIHRyYW5zZm9ybT0ibWF0cml4KDEgMCAwIDEgMCAwKSIgc3R5bGU9InN0cm9rZTogbm9uZTsgc3Ryb2tlLXdpZHRoOiAxOyBzdHJva2UtZGFzaGFycmF5OiBub25lOyBzdHJva2UtbGluZWNhcDogYnV0dDsgc3Ryb2tlLWxpbmVqb2luOiBtaXRlcjsgc3Ryb2tlLW1pdGVybGltaXQ6IDEwOyBmaWxsOiByZ2IoMjE0LDAsMCk7IGZpbGwtcnVsZTogbm9uemVybzsgb3BhY2l0eTogMTsiIGQ9Ik0gMTEgOTAgYyAtMi44MTUgMCAtNS42MyAtMS4wNzQgLTcuNzc4IC0zLjIyMiBjIC00LjI5NSAtNC4yOTYgLTQuMjk1IC0xMS4yNjEgMCAtMTUuNTU3IGwgNjggLTY4IGMgNC4yOTcgLTQuMjk2IDExLjI2IC00LjI5NiAxNS41NTcgMCBjIDQuMjk2IDQuMjk2IDQuMjk2IDExLjI2MSAwIDE1LjU1NyBsIC02OCA2OCBDIDE2LjYzIDg4LjkyNiAxMy44MTUgOTAgMTEgOTAgeiIvPiYjeGE7CTxwYXRoIHN0cm9rZS1saW5lY2FwPSJyb3VuZCIgdHJhbnNmb3JtPSJtYXRyaXgoMSAwIDAgMSAwIDApIiBzdHlsZT0ic3Ryb2tlOiBub25lOyBzdHJva2Utd2lkdGg6IDE7IHN0cm9rZS1kYXNoYXJyYXk6IG5vbmU7IHN0cm9rZS1saW5lY2FwOiBidXR0OyBzdHJva2UtbGluZWpvaW46IG1pdGVyOyBzdHJva2UtbWl0ZXJsaW1pdDogMTA7IGZpbGw6IHJnYigyMTQsMCwwKTsgZmlsbC1ydWxlOiBub256ZXJvOyBvcGFjaXR5OiAxOyIgZD0iTSA3OSA5MCBjIC0yLjgxNSAwIC01LjYzIC0xLjA3NCAtNy43NzggLTMuMjIyIGwgLTY4IC02OCBjIC00LjI5NSAtNC4yOTYgLTQuMjk1IC0xMS4yNjEgMCAtMTUuNTU3IGMgNC4yOTYgLTQuMjk2IDExLjI2MSAtNC4yOTYgMTUuNTU3IDAgbCA2OCA2OCBjIDQuMjk2IDQuMjk2IDQuMjk2IDExLjI2MSAwIDE1LjU1NyBDIDg0LjYzIDg4LjkyNiA4MS44MTUgOTAgNzkgOTAgeiIvPiYjeGE7PC9nPiYjeGE7PC9zdmc+;fontFamily=Fira Sans;" parent="sLTmLV7prLUcYtLQ-y7w-1" vertex="1">
          <mxGeometry x="282" y="482" width="36" height="36" as="geometry" />
        </mxCell>
        <mxCell id="sLTmLV7prLUcYtLQ-y7w-10" value="" style="shape=image;verticalLabelPosition=bottom;labelBackgroundColor=default;verticalAlign=top;aspect=fixed;imageAspect=0;image=data:image/svg+xml,PHN2ZyB4bWxuczp4bGluaz0iaHR0cDovL3d3dy53My5vcmcvMTk5OS94bGluayIgeG1sbnM9Imh0dHA6Ly93d3cudzMub3JnLzIwMDAvc3ZnIiB4bWw6c3BhY2U9InByZXNlcnZlIiB2aWV3Qm94PSIwIDAgMjU2IDI1NiIgaGVpZ2h0PSIyNTYiIHdpZHRoPSIyNTYiIHZlcnNpb249IjEuMSI+JiN4YTsmI3hhOzxkZWZzPiYjeGE7PC9kZWZzPiYjeGE7PGcgdHJhbnNmb3JtPSJ0cmFuc2xhdGUoMS40MDY1OTM0MDY1OTM0MDE2IDEuNDA2NTkzNDA2NTkzNDAxNikgc2NhbGUoMi44MSAyLjgxKSIgc3R5bGU9InN0cm9rZTogbm9uZTsgc3Ryb2tlLXdpZHRoOiAwOyBzdHJva2UtZGFzaGFycmF5OiBub25lOyBzdHJva2UtbGluZWNhcDogYnV0dDsgc3Ryb2tlLWxpbmVqb2luOiBtaXRlcjsgc3Ryb2tlLW1pdGVybGltaXQ6IDEwOyBmaWxsOiBub25lOyBmaWxsLXJ1bGU6IG5vbnplcm87IG9wYWNpdHk6IDE7Ij4mI3hhOwk8cGF0aCBzdHJva2UtbGluZWNhcD0icm91bmQiIHRyYW5zZm9ybT0ibWF0cml4KDEgMCAwIDEgMCAwKSIgc3R5bGU9InN0cm9rZTogbm9uZTsgc3Ryb2tlLXdpZHRoOiAxOyBzdHJva2UtZGFzaGFycmF5OiBub25lOyBzdHJva2UtbGluZWNhcDogYnV0dDsgc3Ryb2tlLWxpbmVqb2luOiBtaXRlcjsgc3Ryb2tlLW1pdGVybGltaXQ6IDEwOyBmaWxsOiByZ2IoMjE0LDAsMCk7IGZpbGwtcnVsZTogbm9uemVybzsgb3BhY2l0eTogMTsiIGQ9Ik0gMTEgOTAgYyAtMi44MTUgMCAtNS42MyAtMS4wNzQgLTcuNzc4IC0zLjIyMiBjIC00LjI5NSAtNC4yOTYgLTQuMjk1IC0xMS4yNjEgMCAtMTUuNTU3IGwgNjggLTY4IGMgNC4yOTcgLTQuMjk2IDExLjI2IC00LjI5NiAxNS41NTcgMCBjIDQuMjk2IDQuMjk2IDQuMjk2IDExLjI2MSAwIDE1LjU1NyBsIC02OCA2OCBDIDE2LjYzIDg4LjkyNiAxMy44MTUgOTAgMTEgOTAgeiIvPiYjeGE7CTxwYXRoIHN0cm9rZS1saW5lY2FwPSJyb3VuZCIgdHJhbnNmb3JtPSJtYXRyaXgoMSAwIDAgMSAwIDApIiBzdHlsZT0ic3Ryb2tlOiBub25lOyBzdHJva2Utd2lkdGg6IDE7IHN0cm9rZS1kYXNoYXJyYXk6IG5vbmU7IHN0cm9rZS1saW5lY2FwOiBidXR0OyBzdHJva2UtbGluZWpvaW46IG1pdGVyOyBzdHJva2UtbWl0ZXJsaW1pdDogMTA7IGZpbGw6IHJnYigyMTQsMCwwKTsgZmlsbC1ydWxlOiBub256ZXJvOyBvcGFjaXR5OiAxOyIgZD0iTSA3OSA5MCBjIC0yLjgxNSAwIC01LjYzIC0xLjA3NCAtNy43NzggLTMuMjIyIGwgLTY4IC02OCBjIC00LjI5NSAtNC4yOTYgLTQuMjk1IC0xMS4yNjEgMCAtMTUuNTU3IGMgNC4yOTYgLTQuMjk2IDExLjI2MSAtNC4yOTYgMTUuNTU3IDAgbCA2OCA2OCBjIDQuMjk2IDQuMjk2IDQuMjk2IDExLjI2MSAwIDE1LjU1NyBDIDg0LjYzIDg4LjkyNiA4MS44MTUgOTAgNzkgOTAgeiIvPiYjeGE7PC9nPiYjeGE7PC9zdmc+;fontFamily=Fira Sans;" parent="sLTmLV7prLUcYtLQ-y7w-1" vertex="1">
          <mxGeometry x="322" y="482" width="36" height="36" as="geometry" />
        </mxCell>
        <mxCell id="sLTmLV7prLUcYtLQ-y7w-11" value="" style="whiteSpace=wrap;html=1;aspect=fixed;fillColor=#f5f5f5;fontColor=#333333;strokeColor=#000000;fontFamily=Fira Sans;" parent="sLTmLV7prLUcYtLQ-y7w-1" vertex="1">
          <mxGeometry x="280" y="560" width="40" height="40" as="geometry" />
        </mxCell>
        <mxCell id="sLTmLV7prLUcYtLQ-y7w-12" value="" style="whiteSpace=wrap;html=1;aspect=fixed;fillColor=#f5f5f5;fontColor=#333333;strokeColor=#000000;fontFamily=Fira Sans;" parent="sLTmLV7prLUcYtLQ-y7w-1" vertex="1">
          <mxGeometry x="320" y="560" width="40" height="40" as="geometry" />
        </mxCell>
        <mxCell id="sLTmLV7prLUcYtLQ-y7w-13" value="" style="whiteSpace=wrap;html=1;aspect=fixed;fillColor=#f5f5f5;fontColor=#333333;strokeColor=#000000;fontFamily=Fira Sans;" parent="sLTmLV7prLUcYtLQ-y7w-1" vertex="1">
          <mxGeometry x="360" y="560" width="40" height="40" as="geometry" />
        </mxCell>
        <mxCell id="sLTmLV7prLUcYtLQ-y7w-14" value="" style="whiteSpace=wrap;html=1;aspect=fixed;fillColor=#f5f5f5;fontColor=#333333;strokeColor=#000000;fontFamily=Fira Sans;" parent="sLTmLV7prLUcYtLQ-y7w-1" vertex="1">
          <mxGeometry x="400" y="560" width="40" height="40" as="geometry" />
        </mxCell>
        <mxCell id="sLTmLV7prLUcYtLQ-y7w-15" value="" style="whiteSpace=wrap;html=1;aspect=fixed;fillColor=#f5f5f5;fontColor=#333333;strokeColor=#000000;fontFamily=Fira Sans;" parent="sLTmLV7prLUcYtLQ-y7w-1" vertex="1">
          <mxGeometry x="440" y="560" width="40" height="40" as="geometry" />
        </mxCell>
        <mxCell id="sLTmLV7prLUcYtLQ-y7w-16" value="" style="whiteSpace=wrap;html=1;aspect=fixed;fillColor=#f5f5f5;fontColor=#333333;strokeColor=#000000;fontFamily=Fira Sans;" parent="sLTmLV7prLUcYtLQ-y7w-1" vertex="1">
          <mxGeometry x="480" y="560" width="40" height="40" as="geometry" />
        </mxCell>
        <mxCell id="sLTmLV7prLUcYtLQ-y7w-17" value="" style="whiteSpace=wrap;html=1;aspect=fixed;fillColor=#f5f5f5;fontColor=#333333;strokeColor=#000000;fontFamily=Fira Sans;" parent="sLTmLV7prLUcYtLQ-y7w-1" vertex="1">
          <mxGeometry x="520" y="560" width="40" height="40" as="geometry" />
        </mxCell>
        <mxCell id="sLTmLV7prLUcYtLQ-y7w-18" value="" style="shape=image;verticalLabelPosition=bottom;labelBackgroundColor=default;verticalAlign=top;aspect=fixed;imageAspect=0;image=data:image/svg+xml,PHN2ZyB4bWxuczp4bGluaz0iaHR0cDovL3d3dy53My5vcmcvMTk5OS94bGluayIgeG1sbnM9Imh0dHA6Ly93d3cudzMub3JnLzIwMDAvc3ZnIiB4bWw6c3BhY2U9InByZXNlcnZlIiB2aWV3Qm94PSIwIDAgMjU2IDI1NiIgaGVpZ2h0PSIyNTYiIHdpZHRoPSIyNTYiIHZlcnNpb249IjEuMSI+JiN4YTsmI3hhOzxkZWZzPiYjeGE7PC9kZWZzPiYjeGE7PGcgdHJhbnNmb3JtPSJ0cmFuc2xhdGUoMS40MDY1OTM0MDY1OTM0MDE2IDEuNDA2NTkzNDA2NTkzNDAxNikgc2NhbGUoMi44MSAyLjgxKSIgc3R5bGU9InN0cm9rZTogbm9uZTsgc3Ryb2tlLXdpZHRoOiAwOyBzdHJva2UtZGFzaGFycmF5OiBub25lOyBzdHJva2UtbGluZWNhcDogYnV0dDsgc3Ryb2tlLWxpbmVqb2luOiBtaXRlcjsgc3Ryb2tlLW1pdGVybGltaXQ6IDEwOyBmaWxsOiBub25lOyBmaWxsLXJ1bGU6IG5vbnplcm87IG9wYWNpdHk6IDE7Ij4mI3hhOwk8cGF0aCBzdHJva2UtbGluZWNhcD0icm91bmQiIHRyYW5zZm9ybT0ibWF0cml4KDEgMCAwIDEgMCAwKSIgc3R5bGU9InN0cm9rZTogbm9uZTsgc3Ryb2tlLXdpZHRoOiAxOyBzdHJva2UtZGFzaGFycmF5OiBub25lOyBzdHJva2UtbGluZWNhcDogYnV0dDsgc3Ryb2tlLWxpbmVqb2luOiBtaXRlcjsgc3Ryb2tlLW1pdGVybGltaXQ6IDEwOyBmaWxsOiByZ2IoMjE0LDAsMCk7IGZpbGwtcnVsZTogbm9uemVybzsgb3BhY2l0eTogMTsiIGQ9Ik0gMTEgOTAgYyAtMi44MTUgMCAtNS42MyAtMS4wNzQgLTcuNzc4IC0zLjIyMiBjIC00LjI5NSAtNC4yOTYgLTQuMjk1IC0xMS4yNjEgMCAtMTUuNTU3IGwgNjggLTY4IGMgNC4yOTcgLTQuMjk2IDExLjI2IC00LjI5NiAxNS41NTcgMCBjIDQuMjk2IDQuMjk2IDQuMjk2IDExLjI2MSAwIDE1LjU1NyBsIC02OCA2OCBDIDE2LjYzIDg4LjkyNiAxMy44MTUgOTAgMTEgOTAgeiIvPiYjeGE7CTxwYXRoIHN0cm9rZS1saW5lY2FwPSJyb3VuZCIgdHJhbnNmb3JtPSJtYXRyaXgoMSAwIDAgMSAwIDApIiBzdHlsZT0ic3Ryb2tlOiBub25lOyBzdHJva2Utd2lkdGg6IDE7IHN0cm9rZS1kYXNoYXJyYXk6IG5vbmU7IHN0cm9rZS1saW5lY2FwOiBidXR0OyBzdHJva2UtbGluZWpvaW46IG1pdGVyOyBzdHJva2UtbWl0ZXJsaW1pdDogMTA7IGZpbGw6IHJnYigyMTQsMCwwKTsgZmlsbC1ydWxlOiBub256ZXJvOyBvcGFjaXR5OiAxOyIgZD0iTSA3OSA5MCBjIC0yLjgxNSAwIC01LjYzIC0xLjA3NCAtNy43NzggLTMuMjIyIGwgLTY4IC02OCBjIC00LjI5NSAtNC4yOTYgLTQuMjk1IC0xMS4yNjEgMCAtMTUuNTU3IGMgNC4yOTYgLTQuMjk2IDExLjI2MSAtNC4yOTYgMTUuNTU3IDAgbCA2OCA2OCBjIDQuMjk2IDQuMjk2IDQuMjk2IDExLjI2MSAwIDE1LjU1NyBDIDg0LjYzIDg4LjkyNiA4MS44MTUgOTAgNzkgOTAgeiIvPiYjeGE7PC9nPiYjeGE7PC9zdmc+;fontFamily=Fira Sans;" parent="sLTmLV7prLUcYtLQ-y7w-1" vertex="1">
          <mxGeometry x="522" y="562" width="36" height="36" as="geometry" />
        </mxCell>
        <mxCell id="sLTmLV7prLUcYtLQ-y7w-19" value="" style="shape=image;verticalLabelPosition=bottom;labelBackgroundColor=default;verticalAlign=top;aspect=fixed;imageAspect=0;image=data:image/svg+xml,PHN2ZyB4bWxuczp4bGluaz0iaHR0cDovL3d3dy53My5vcmcvMTk5OS94bGluayIgeG1sbnM9Imh0dHA6Ly93d3cudzMub3JnLzIwMDAvc3ZnIiB4bWw6c3BhY2U9InByZXNlcnZlIiB2aWV3Qm94PSIwIDAgMjU2IDI1NiIgaGVpZ2h0PSIyNTYiIHdpZHRoPSIyNTYiIHZlcnNpb249IjEuMSI+JiN4YTsmI3hhOzxkZWZzPiYjeGE7PC9kZWZzPiYjeGE7PGcgdHJhbnNmb3JtPSJ0cmFuc2xhdGUoMS40MDY1OTM0MDY1OTM0MDE2IDEuNDA2NTkzNDA2NTkzNDAxNikgc2NhbGUoMi44MSAyLjgxKSIgc3R5bGU9InN0cm9rZTogbm9uZTsgc3Ryb2tlLXdpZHRoOiAwOyBzdHJva2UtZGFzaGFycmF5OiBub25lOyBzdHJva2UtbGluZWNhcDogYnV0dDsgc3Ryb2tlLWxpbmVqb2luOiBtaXRlcjsgc3Ryb2tlLW1pdGVybGltaXQ6IDEwOyBmaWxsOiBub25lOyBmaWxsLXJ1bGU6IG5vbnplcm87IG9wYWNpdHk6IDE7Ij4mI3hhOwk8cGF0aCBzdHJva2UtbGluZWNhcD0icm91bmQiIHRyYW5zZm9ybT0ibWF0cml4KDEgMCAwIDEgMCAwKSIgc3R5bGU9InN0cm9rZTogbm9uZTsgc3Ryb2tlLXdpZHRoOiAxOyBzdHJva2UtZGFzaGFycmF5OiBub25lOyBzdHJva2UtbGluZWNhcDogYnV0dDsgc3Ryb2tlLWxpbmVqb2luOiBtaXRlcjsgc3Ryb2tlLW1pdGVybGltaXQ6IDEwOyBmaWxsOiByZ2IoMjE0LDAsMCk7IGZpbGwtcnVsZTogbm9uemVybzsgb3BhY2l0eTogMTsiIGQ9Ik0gMTEgOTAgYyAtMi44MTUgMCAtNS42MyAtMS4wNzQgLTcuNzc4IC0zLjIyMiBjIC00LjI5NSAtNC4yOTYgLTQuMjk1IC0xMS4yNjEgMCAtMTUuNTU3IGwgNjggLTY4IGMgNC4yOTcgLTQuMjk2IDExLjI2IC00LjI5NiAxNS41NTcgMCBjIDQuMjk2IDQuMjk2IDQuMjk2IDExLjI2MSAwIDE1LjU1NyBsIC02OCA2OCBDIDE2LjYzIDg4LjkyNiAxMy44MTUgOTAgMTEgOTAgeiIvPiYjeGE7CTxwYXRoIHN0cm9rZS1saW5lY2FwPSJyb3VuZCIgdHJhbnNmb3JtPSJtYXRyaXgoMSAwIDAgMSAwIDApIiBzdHlsZT0ic3Ryb2tlOiBub25lOyBzdHJva2Utd2lkdGg6IDE7IHN0cm9rZS1kYXNoYXJyYXk6IG5vbmU7IHN0cm9rZS1saW5lY2FwOiBidXR0OyBzdHJva2UtbGluZWpvaW46IG1pdGVyOyBzdHJva2UtbWl0ZXJsaW1pdDogMTA7IGZpbGw6IHJnYigyMTQsMCwwKTsgZmlsbC1ydWxlOiBub256ZXJvOyBvcGFjaXR5OiAxOyIgZD0iTSA3OSA5MCBjIC0yLjgxNSAwIC01LjYzIC0xLjA3NCAtNy43NzggLTMuMjIyIGwgLTY4IC02OCBjIC00LjI5NSAtNC4yOTYgLTQuMjk1IC0xMS4yNjEgMCAtMTUuNTU3IGMgNC4yOTYgLTQuMjk2IDExLjI2MSAtNC4yOTYgMTUuNTU3IDAgbCA2OCA2OCBjIDQuMjk2IDQuMjk2IDQuMjk2IDExLjI2MSAwIDE1LjU1NyBDIDg0LjYzIDg4LjkyNiA4MS44MTUgOTAgNzkgOTAgeiIvPiYjeGE7PC9nPiYjeGE7PC9zdmc+;fontFamily=Fira Sans;" parent="sLTmLV7prLUcYtLQ-y7w-1" vertex="1">
          <mxGeometry x="402" y="562" width="36" height="36" as="geometry" />
        </mxCell>
        <mxCell id="sLTmLV7prLUcYtLQ-y7w-20" value="" style="rounded=0;whiteSpace=wrap;html=1;labelBackgroundColor=#ffffff;strokeColor=#000000;fontFamily=Fira Sans;fontSize=12;fillColor=#56B4E9;" parent="sLTmLV7prLUcYtLQ-y7w-1" vertex="1">
          <mxGeometry x="370" y="485" width="100" height="30" as="geometry" />
        </mxCell>
        <mxCell id="sLTmLV7prLUcYtLQ-y7w-21" value="" style="rounded=0;whiteSpace=wrap;html=1;labelBackgroundColor=#ffffff;strokeColor=#000000;fontFamily=Fira Sans;fontSize=12;fillColor=#56B4E9;" parent="sLTmLV7prLUcYtLQ-y7w-1" vertex="1">
          <mxGeometry x="450" y="565" width="60" height="30" as="geometry" />
        </mxCell>
        <mxCell id="sLTmLV7prLUcYtLQ-y7w-22" value="" style="rounded=0;whiteSpace=wrap;html=1;labelBackgroundColor=#ffffff;strokeColor=#000000;fontFamily=Fira Sans;fontSize=12;fillColor=#009E73;" parent="sLTmLV7prLUcYtLQ-y7w-1" vertex="1">
          <mxGeometry x="490" y="485" width="60" height="30" as="geometry" />
        </mxCell>
        <mxCell id="sLTmLV7prLUcYtLQ-y7w-23" value="" style="rounded=0;whiteSpace=wrap;html=1;labelBackgroundColor=#ffffff;strokeColor=#000000;fontFamily=Fira Sans;fontSize=12;fillColor=#009E73;" parent="sLTmLV7prLUcYtLQ-y7w-1" vertex="1">
          <mxGeometry x="290" y="565" width="100" height="30" as="geometry" />
        </mxCell>
        <mxCell id="sLTmLV7prLUcYtLQ-y7w-24" value="&lt;font data-font-src=&quot;https://fonts.googleapis.com/css?family=Linux+Libertine&quot;&gt;Server 1&lt;/font&gt;" style="text;html=1;strokeColor=none;fillColor=none;align=center;verticalAlign=middle;whiteSpace=wrap;rounded=0;labelBackgroundColor=none;fontFamily=Fira Sans;fontSize=12;fontColor=default;" parent="sLTmLV7prLUcYtLQ-y7w-1" vertex="1">
          <mxGeometry x="390" y="490" width="60" height="20" as="geometry" />
        </mxCell>
        <mxCell id="sLTmLV7prLUcYtLQ-y7w-25" value="&lt;font data-font-src=&quot;https://fonts.googleapis.com/css?family=Linux+Libertine&quot;&gt;Server 2&lt;/font&gt;" style="text;html=1;strokeColor=none;fillColor=none;align=center;verticalAlign=middle;whiteSpace=wrap;rounded=0;labelBackgroundColor=none;fontFamily=Fira Sans;fontSize=12;fontColor=default;" parent="sLTmLV7prLUcYtLQ-y7w-1" vertex="1">
          <mxGeometry x="490" y="490" width="60" height="20" as="geometry" />
        </mxCell>
        <mxCell id="sLTmLV7prLUcYtLQ-y7w-26" value="&lt;font data-font-src=&quot;https://fonts.googleapis.com/css?family=Linux+Libertine&quot;&gt;Server 3&lt;/font&gt;" style="text;html=1;strokeColor=none;fillColor=none;align=center;verticalAlign=middle;whiteSpace=wrap;rounded=0;labelBackgroundColor=none;fontFamily=Fira Sans;fontSize=12;fontColor=default;" parent="sLTmLV7prLUcYtLQ-y7w-1" vertex="1">
          <mxGeometry x="310" y="570" width="60" height="20" as="geometry" />
        </mxCell>
        <mxCell id="sLTmLV7prLUcYtLQ-y7w-27" value="&lt;font data-font-src=&quot;https://fonts.googleapis.com/css?family=Linux+Libertine&quot;&gt;Server 4&lt;/font&gt;" style="text;html=1;strokeColor=none;fillColor=none;align=center;verticalAlign=middle;whiteSpace=wrap;rounded=0;labelBackgroundColor=none;fontFamily=Fira Sans;fontSize=12;fontColor=default;" parent="sLTmLV7prLUcYtLQ-y7w-1" vertex="1">
          <mxGeometry x="450" y="570" width="60" height="20" as="geometry" />
        </mxCell>
        <mxCell id="sLTmLV7prLUcYtLQ-y7w-28" value="&lt;font data-font-src=&quot;https://fonts.googleapis.com/css?family=Linux+Libertine&quot;&gt;Row 1&lt;/font&gt;" style="text;html=1;strokeColor=none;fillColor=none;align=center;verticalAlign=middle;whiteSpace=wrap;rounded=0;labelBackgroundColor=none;fontFamily=Fira Sans;fontSize=12;fontColor=default;" parent="sLTmLV7prLUcYtLQ-y7w-1" vertex="1">
          <mxGeometry x="190" y="485" width="60" height="30" as="geometry" />
        </mxCell>
        <mxCell id="sLTmLV7prLUcYtLQ-y7w-29" value="&lt;font data-font-src=&quot;https://fonts.googleapis.com/css?family=Linux+Libertine&quot;&gt;Row 2&lt;/font&gt;" style="text;html=1;strokeColor=none;fillColor=none;align=center;verticalAlign=middle;whiteSpace=wrap;rounded=0;labelBackgroundColor=none;fontFamily=Fira Sans;fontSize=12;fontColor=default;" parent="sLTmLV7prLUcYtLQ-y7w-1" vertex="1">
          <mxGeometry x="190" y="565" width="60" height="30" as="geometry" />
        </mxCell>
        <mxCell id="sLTmLV7prLUcYtLQ-y7w-30" value="" style="rounded=0;whiteSpace=wrap;html=1;labelBackgroundColor=#ffffff;strokeColor=#000000;fontFamily=Fira Sans;fontSize=12;fillColor=#009E73;" parent="sLTmLV7prLUcYtLQ-y7w-1" vertex="1">
          <mxGeometry x="600" y="518" width="10" height="10" as="geometry" />
        </mxCell>
        <mxCell id="sLTmLV7prLUcYtLQ-y7w-31" value="" style="rounded=0;whiteSpace=wrap;html=1;labelBackgroundColor=#ffffff;strokeColor=#000000;fontFamily=Fira Sans;fontSize=12;fillColor=#56B4E9;" parent="sLTmLV7prLUcYtLQ-y7w-1" vertex="1">
          <mxGeometry x="600" y="550" width="10" height="10" as="geometry" />
        </mxCell>
        <mxCell id="sLTmLV7prLUcYtLQ-y7w-32" value="&lt;font data-font-src=&quot;https://fonts.googleapis.com/css?family=Linux+Libertine&quot;&gt;Pool 1&lt;/font&gt;" style="text;html=1;strokeColor=none;fillColor=none;align=center;verticalAlign=middle;whiteSpace=wrap;rounded=0;labelBackgroundColor=none;fontFamily=Fira Sans;fontSize=12;fontColor=default;" parent="sLTmLV7prLUcYtLQ-y7w-1" vertex="1">
          <mxGeometry x="612" y="509" width="60" height="30" as="geometry" />
        </mxCell>
        <mxCell id="sLTmLV7prLUcYtLQ-y7w-33" value="&lt;font data-font-src=&quot;https://fonts.googleapis.com/css?family=Linux+Libertine&quot;&gt;Pool 2&lt;br&gt;&lt;/font&gt;" style="text;html=1;strokeColor=none;fillColor=none;align=center;verticalAlign=middle;whiteSpace=wrap;rounded=0;labelBackgroundColor=none;fontFamily=Fira Sans;fontSize=12;fontColor=default;" parent="sLTmLV7prLUcYtLQ-y7w-1" vertex="1">
          <mxGeometry x="612" y="541" width="60" height="30" as="geometry" />
        </mxCell>
      </root>
    </mxGraphModel>
  </diagram>
  <diagram name="slides-capacity" id="bH508CZ8JIkR_iZvyhIA">
    <mxGraphModel dx="954" dy="663" grid="1" gridSize="10" guides="1" tooltips="1" connect="1" arrows="1" fold="1" page="1" pageScale="1" pageWidth="827" pageHeight="1169" background="#FAFAFA" math="0" shadow="0">
      <root>
        <mxCell id="TkUJvQ5mJa8ef2wBkVaY-0" />
        <mxCell id="TkUJvQ5mJa8ef2wBkVaY-1" parent="TkUJvQ5mJa8ef2wBkVaY-0" />
        <mxCell id="TkUJvQ5mJa8ef2wBkVaY-2" value="" style="whiteSpace=wrap;html=1;aspect=fixed;fillColor=#f5f5f5;fontColor=#333333;strokeColor=#000000;" parent="TkUJvQ5mJa8ef2wBkVaY-1" vertex="1">
          <mxGeometry x="280" y="495" width="40" height="40" as="geometry" />
        </mxCell>
        <mxCell id="TkUJvQ5mJa8ef2wBkVaY-3" value="" style="whiteSpace=wrap;html=1;aspect=fixed;fillColor=#f5f5f5;fontColor=#333333;strokeColor=#000000;" parent="TkUJvQ5mJa8ef2wBkVaY-1" vertex="1">
          <mxGeometry x="320" y="495" width="40" height="40" as="geometry" />
        </mxCell>
        <mxCell id="TkUJvQ5mJa8ef2wBkVaY-4" value="" style="whiteSpace=wrap;html=1;aspect=fixed;fillColor=#f5f5f5;fontColor=#333333;strokeColor=#000000;" parent="TkUJvQ5mJa8ef2wBkVaY-1" vertex="1">
          <mxGeometry x="360" y="495" width="40" height="40" as="geometry" />
        </mxCell>
        <mxCell id="TkUJvQ5mJa8ef2wBkVaY-5" value="" style="whiteSpace=wrap;html=1;aspect=fixed;fillColor=#f5f5f5;fontColor=#333333;strokeColor=#000000;" parent="TkUJvQ5mJa8ef2wBkVaY-1" vertex="1">
          <mxGeometry x="400" y="495" width="40" height="40" as="geometry" />
        </mxCell>
        <mxCell id="TkUJvQ5mJa8ef2wBkVaY-6" value="" style="whiteSpace=wrap;html=1;aspect=fixed;fillColor=#f5f5f5;fontColor=#333333;strokeColor=#000000;" parent="TkUJvQ5mJa8ef2wBkVaY-1" vertex="1">
          <mxGeometry x="440" y="495" width="40" height="40" as="geometry" />
        </mxCell>
        <mxCell id="TkUJvQ5mJa8ef2wBkVaY-7" value="" style="whiteSpace=wrap;html=1;aspect=fixed;fillColor=#f5f5f5;fontColor=#333333;strokeColor=#000000;" parent="TkUJvQ5mJa8ef2wBkVaY-1" vertex="1">
          <mxGeometry x="480" y="495" width="40" height="40" as="geometry" />
        </mxCell>
        <mxCell id="TkUJvQ5mJa8ef2wBkVaY-8" value="" style="whiteSpace=wrap;html=1;aspect=fixed;fillColor=#f5f5f5;fontColor=#333333;strokeColor=#000000;" parent="TkUJvQ5mJa8ef2wBkVaY-1" vertex="1">
          <mxGeometry x="520" y="495" width="40" height="40" as="geometry" />
        </mxCell>
        <mxCell id="TkUJvQ5mJa8ef2wBkVaY-9" value="" style="shape=image;verticalLabelPosition=bottom;labelBackgroundColor=default;verticalAlign=top;aspect=fixed;imageAspect=0;image=data:image/svg+xml,PHN2ZyB4bWxuczp4bGluaz0iaHR0cDovL3d3dy53My5vcmcvMTk5OS94bGluayIgeG1sbnM9Imh0dHA6Ly93d3cudzMub3JnLzIwMDAvc3ZnIiB4bWw6c3BhY2U9InByZXNlcnZlIiB2aWV3Qm94PSIwIDAgMjU2IDI1NiIgaGVpZ2h0PSIyNTYiIHdpZHRoPSIyNTYiIHZlcnNpb249IjEuMSI+JiN4YTsmI3hhOzxkZWZzPiYjeGE7PC9kZWZzPiYjeGE7PGcgdHJhbnNmb3JtPSJ0cmFuc2xhdGUoMS40MDY1OTM0MDY1OTM0MDE2IDEuNDA2NTkzNDA2NTkzNDAxNikgc2NhbGUoMi44MSAyLjgxKSIgc3R5bGU9InN0cm9rZTogbm9uZTsgc3Ryb2tlLXdpZHRoOiAwOyBzdHJva2UtZGFzaGFycmF5OiBub25lOyBzdHJva2UtbGluZWNhcDogYnV0dDsgc3Ryb2tlLWxpbmVqb2luOiBtaXRlcjsgc3Ryb2tlLW1pdGVybGltaXQ6IDEwOyBmaWxsOiBub25lOyBmaWxsLXJ1bGU6IG5vbnplcm87IG9wYWNpdHk6IDE7Ij4mI3hhOwk8cGF0aCBzdHJva2UtbGluZWNhcD0icm91bmQiIHRyYW5zZm9ybT0ibWF0cml4KDEgMCAwIDEgMCAwKSIgc3R5bGU9InN0cm9rZTogbm9uZTsgc3Ryb2tlLXdpZHRoOiAxOyBzdHJva2UtZGFzaGFycmF5OiBub25lOyBzdHJva2UtbGluZWNhcDogYnV0dDsgc3Ryb2tlLWxpbmVqb2luOiBtaXRlcjsgc3Ryb2tlLW1pdGVybGltaXQ6IDEwOyBmaWxsOiByZ2IoMjE0LDAsMCk7IGZpbGwtcnVsZTogbm9uemVybzsgb3BhY2l0eTogMTsiIGQ9Ik0gMTEgOTAgYyAtMi44MTUgMCAtNS42MyAtMS4wNzQgLTcuNzc4IC0zLjIyMiBjIC00LjI5NSAtNC4yOTYgLTQuMjk1IC0xMS4yNjEgMCAtMTUuNTU3IGwgNjggLTY4IGMgNC4yOTcgLTQuMjk2IDExLjI2IC00LjI5NiAxNS41NTcgMCBjIDQuMjk2IDQuMjk2IDQuMjk2IDExLjI2MSAwIDE1LjU1NyBsIC02OCA2OCBDIDE2LjYzIDg4LjkyNiAxMy44MTUgOTAgMTEgOTAgeiIvPiYjeGE7CTxwYXRoIHN0cm9rZS1saW5lY2FwPSJyb3VuZCIgdHJhbnNmb3JtPSJtYXRyaXgoMSAwIDAgMSAwIDApIiBzdHlsZT0ic3Ryb2tlOiBub25lOyBzdHJva2Utd2lkdGg6IDE7IHN0cm9rZS1kYXNoYXJyYXk6IG5vbmU7IHN0cm9rZS1saW5lY2FwOiBidXR0OyBzdHJva2UtbGluZWpvaW46IG1pdGVyOyBzdHJva2UtbWl0ZXJsaW1pdDogMTA7IGZpbGw6IHJnYigyMTQsMCwwKTsgZmlsbC1ydWxlOiBub256ZXJvOyBvcGFjaXR5OiAxOyIgZD0iTSA3OSA5MCBjIC0yLjgxNSAwIC01LjYzIC0xLjA3NCAtNy43NzggLTMuMjIyIGwgLTY4IC02OCBjIC00LjI5NSAtNC4yOTYgLTQuMjk1IC0xMS4yNjEgMCAtMTUuNTU3IGMgNC4yOTYgLTQuMjk2IDExLjI2MSAtNC4yOTYgMTUuNTU3IDAgbCA2OCA2OCBjIDQuMjk2IDQuMjk2IDQuMjk2IDExLjI2MSAwIDE1LjU1NyBDIDg0LjYzIDg4LjkyNiA4MS44MTUgOTAgNzkgOTAgeiIvPiYjeGE7PC9nPiYjeGE7PC9zdmc+;" parent="TkUJvQ5mJa8ef2wBkVaY-1" vertex="1">
          <mxGeometry x="282" y="497" width="36" height="36" as="geometry" />
        </mxCell>
        <mxCell id="TkUJvQ5mJa8ef2wBkVaY-10" value="" style="shape=image;verticalLabelPosition=bottom;labelBackgroundColor=default;verticalAlign=top;aspect=fixed;imageAspect=0;image=data:image/svg+xml,PHN2ZyB4bWxuczp4bGluaz0iaHR0cDovL3d3dy53My5vcmcvMTk5OS94bGluayIgeG1sbnM9Imh0dHA6Ly93d3cudzMub3JnLzIwMDAvc3ZnIiB4bWw6c3BhY2U9InByZXNlcnZlIiB2aWV3Qm94PSIwIDAgMjU2IDI1NiIgaGVpZ2h0PSIyNTYiIHdpZHRoPSIyNTYiIHZlcnNpb249IjEuMSI+JiN4YTsmI3hhOzxkZWZzPiYjeGE7PC9kZWZzPiYjeGE7PGcgdHJhbnNmb3JtPSJ0cmFuc2xhdGUoMS40MDY1OTM0MDY1OTM0MDE2IDEuNDA2NTkzNDA2NTkzNDAxNikgc2NhbGUoMi44MSAyLjgxKSIgc3R5bGU9InN0cm9rZTogbm9uZTsgc3Ryb2tlLXdpZHRoOiAwOyBzdHJva2UtZGFzaGFycmF5OiBub25lOyBzdHJva2UtbGluZWNhcDogYnV0dDsgc3Ryb2tlLWxpbmVqb2luOiBtaXRlcjsgc3Ryb2tlLW1pdGVybGltaXQ6IDEwOyBmaWxsOiBub25lOyBmaWxsLXJ1bGU6IG5vbnplcm87IG9wYWNpdHk6IDE7Ij4mI3hhOwk8cGF0aCBzdHJva2UtbGluZWNhcD0icm91bmQiIHRyYW5zZm9ybT0ibWF0cml4KDEgMCAwIDEgMCAwKSIgc3R5bGU9InN0cm9rZTogbm9uZTsgc3Ryb2tlLXdpZHRoOiAxOyBzdHJva2UtZGFzaGFycmF5OiBub25lOyBzdHJva2UtbGluZWNhcDogYnV0dDsgc3Ryb2tlLWxpbmVqb2luOiBtaXRlcjsgc3Ryb2tlLW1pdGVybGltaXQ6IDEwOyBmaWxsOiByZ2IoMjE0LDAsMCk7IGZpbGwtcnVsZTogbm9uemVybzsgb3BhY2l0eTogMTsiIGQ9Ik0gMTEgOTAgYyAtMi44MTUgMCAtNS42MyAtMS4wNzQgLTcuNzc4IC0zLjIyMiBjIC00LjI5NSAtNC4yOTYgLTQuMjk1IC0xMS4yNjEgMCAtMTUuNTU3IGwgNjggLTY4IGMgNC4yOTcgLTQuMjk2IDExLjI2IC00LjI5NiAxNS41NTcgMCBjIDQuMjk2IDQuMjk2IDQuMjk2IDExLjI2MSAwIDE1LjU1NyBsIC02OCA2OCBDIDE2LjYzIDg4LjkyNiAxMy44MTUgOTAgMTEgOTAgeiIvPiYjeGE7CTxwYXRoIHN0cm9rZS1saW5lY2FwPSJyb3VuZCIgdHJhbnNmb3JtPSJtYXRyaXgoMSAwIDAgMSAwIDApIiBzdHlsZT0ic3Ryb2tlOiBub25lOyBzdHJva2Utd2lkdGg6IDE7IHN0cm9rZS1kYXNoYXJyYXk6IG5vbmU7IHN0cm9rZS1saW5lY2FwOiBidXR0OyBzdHJva2UtbGluZWpvaW46IG1pdGVyOyBzdHJva2UtbWl0ZXJsaW1pdDogMTA7IGZpbGw6IHJnYigyMTQsMCwwKTsgZmlsbC1ydWxlOiBub256ZXJvOyBvcGFjaXR5OiAxOyIgZD0iTSA3OSA5MCBjIC0yLjgxNSAwIC01LjYzIC0xLjA3NCAtNy43NzggLTMuMjIyIGwgLTY4IC02OCBjIC00LjI5NSAtNC4yOTYgLTQuMjk1IC0xMS4yNjEgMCAtMTUuNTU3IGMgNC4yOTYgLTQuMjk2IDExLjI2MSAtNC4yOTYgMTUuNTU3IDAgbCA2OCA2OCBjIDQuMjk2IDQuMjk2IDQuMjk2IDExLjI2MSAwIDE1LjU1NyBDIDg0LjYzIDg4LjkyNiA4MS44MTUgOTAgNzkgOTAgeiIvPiYjeGE7PC9nPiYjeGE7PC9zdmc+;" parent="TkUJvQ5mJa8ef2wBkVaY-1" vertex="1">
          <mxGeometry x="322" y="497" width="36" height="36" as="geometry" />
        </mxCell>
        <mxCell id="TkUJvQ5mJa8ef2wBkVaY-11" value="" style="whiteSpace=wrap;html=1;aspect=fixed;fillColor=#f5f5f5;fontColor=#333333;strokeColor=#000000;" parent="TkUJvQ5mJa8ef2wBkVaY-1" vertex="1">
          <mxGeometry x="280" y="575" width="40" height="40" as="geometry" />
        </mxCell>
        <mxCell id="TkUJvQ5mJa8ef2wBkVaY-12" value="" style="whiteSpace=wrap;html=1;aspect=fixed;fillColor=#f5f5f5;fontColor=#333333;strokeColor=#000000;" parent="TkUJvQ5mJa8ef2wBkVaY-1" vertex="1">
          <mxGeometry x="320" y="575" width="40" height="40" as="geometry" />
        </mxCell>
        <mxCell id="TkUJvQ5mJa8ef2wBkVaY-13" value="" style="whiteSpace=wrap;html=1;aspect=fixed;fillColor=#f5f5f5;fontColor=#333333;strokeColor=#000000;" parent="TkUJvQ5mJa8ef2wBkVaY-1" vertex="1">
          <mxGeometry x="360" y="575" width="40" height="40" as="geometry" />
        </mxCell>
        <mxCell id="TkUJvQ5mJa8ef2wBkVaY-14" value="" style="whiteSpace=wrap;html=1;aspect=fixed;fillColor=#f5f5f5;fontColor=#333333;strokeColor=#000000;" parent="TkUJvQ5mJa8ef2wBkVaY-1" vertex="1">
          <mxGeometry x="400" y="575" width="40" height="40" as="geometry" />
        </mxCell>
        <mxCell id="TkUJvQ5mJa8ef2wBkVaY-15" value="" style="whiteSpace=wrap;html=1;aspect=fixed;fillColor=#f5f5f5;fontColor=#333333;strokeColor=#000000;" parent="TkUJvQ5mJa8ef2wBkVaY-1" vertex="1">
          <mxGeometry x="440" y="575" width="40" height="40" as="geometry" />
        </mxCell>
        <mxCell id="TkUJvQ5mJa8ef2wBkVaY-16" value="" style="whiteSpace=wrap;html=1;aspect=fixed;fillColor=#f5f5f5;fontColor=#333333;strokeColor=#000000;" parent="TkUJvQ5mJa8ef2wBkVaY-1" vertex="1">
          <mxGeometry x="480" y="575" width="40" height="40" as="geometry" />
        </mxCell>
        <mxCell id="TkUJvQ5mJa8ef2wBkVaY-17" value="" style="whiteSpace=wrap;html=1;aspect=fixed;fillColor=#f5f5f5;fontColor=#333333;strokeColor=#000000;" parent="TkUJvQ5mJa8ef2wBkVaY-1" vertex="1">
          <mxGeometry x="520" y="575" width="40" height="40" as="geometry" />
        </mxCell>
        <mxCell id="TkUJvQ5mJa8ef2wBkVaY-18" value="" style="shape=image;verticalLabelPosition=bottom;labelBackgroundColor=default;verticalAlign=top;aspect=fixed;imageAspect=0;image=data:image/svg+xml,PHN2ZyB4bWxuczp4bGluaz0iaHR0cDovL3d3dy53My5vcmcvMTk5OS94bGluayIgeG1sbnM9Imh0dHA6Ly93d3cudzMub3JnLzIwMDAvc3ZnIiB4bWw6c3BhY2U9InByZXNlcnZlIiB2aWV3Qm94PSIwIDAgMjU2IDI1NiIgaGVpZ2h0PSIyNTYiIHdpZHRoPSIyNTYiIHZlcnNpb249IjEuMSI+JiN4YTsmI3hhOzxkZWZzPiYjeGE7PC9kZWZzPiYjeGE7PGcgdHJhbnNmb3JtPSJ0cmFuc2xhdGUoMS40MDY1OTM0MDY1OTM0MDE2IDEuNDA2NTkzNDA2NTkzNDAxNikgc2NhbGUoMi44MSAyLjgxKSIgc3R5bGU9InN0cm9rZTogbm9uZTsgc3Ryb2tlLXdpZHRoOiAwOyBzdHJva2UtZGFzaGFycmF5OiBub25lOyBzdHJva2UtbGluZWNhcDogYnV0dDsgc3Ryb2tlLWxpbmVqb2luOiBtaXRlcjsgc3Ryb2tlLW1pdGVybGltaXQ6IDEwOyBmaWxsOiBub25lOyBmaWxsLXJ1bGU6IG5vbnplcm87IG9wYWNpdHk6IDE7Ij4mI3hhOwk8cGF0aCBzdHJva2UtbGluZWNhcD0icm91bmQiIHRyYW5zZm9ybT0ibWF0cml4KDEgMCAwIDEgMCAwKSIgc3R5bGU9InN0cm9rZTogbm9uZTsgc3Ryb2tlLXdpZHRoOiAxOyBzdHJva2UtZGFzaGFycmF5OiBub25lOyBzdHJva2UtbGluZWNhcDogYnV0dDsgc3Ryb2tlLWxpbmVqb2luOiBtaXRlcjsgc3Ryb2tlLW1pdGVybGltaXQ6IDEwOyBmaWxsOiByZ2IoMjE0LDAsMCk7IGZpbGwtcnVsZTogbm9uemVybzsgb3BhY2l0eTogMTsiIGQ9Ik0gMTEgOTAgYyAtMi44MTUgMCAtNS42MyAtMS4wNzQgLTcuNzc4IC0zLjIyMiBjIC00LjI5NSAtNC4yOTYgLTQuMjk1IC0xMS4yNjEgMCAtMTUuNTU3IGwgNjggLTY4IGMgNC4yOTcgLTQuMjk2IDExLjI2IC00LjI5NiAxNS41NTcgMCBjIDQuMjk2IDQuMjk2IDQuMjk2IDExLjI2MSAwIDE1LjU1NyBsIC02OCA2OCBDIDE2LjYzIDg4LjkyNiAxMy44MTUgOTAgMTEgOTAgeiIvPiYjeGE7CTxwYXRoIHN0cm9rZS1saW5lY2FwPSJyb3VuZCIgdHJhbnNmb3JtPSJtYXRyaXgoMSAwIDAgMSAwIDApIiBzdHlsZT0ic3Ryb2tlOiBub25lOyBzdHJva2Utd2lkdGg6IDE7IHN0cm9rZS1kYXNoYXJyYXk6IG5vbmU7IHN0cm9rZS1saW5lY2FwOiBidXR0OyBzdHJva2UtbGluZWpvaW46IG1pdGVyOyBzdHJva2UtbWl0ZXJsaW1pdDogMTA7IGZpbGw6IHJnYigyMTQsMCwwKTsgZmlsbC1ydWxlOiBub256ZXJvOyBvcGFjaXR5OiAxOyIgZD0iTSA3OSA5MCBjIC0yLjgxNSAwIC01LjYzIC0xLjA3NCAtNy43NzggLTMuMjIyIGwgLTY4IC02OCBjIC00LjI5NSAtNC4yOTYgLTQuMjk1IC0xMS4yNjEgMCAtMTUuNTU3IGMgNC4yOTYgLTQuMjk2IDExLjI2MSAtNC4yOTYgMTUuNTU3IDAgbCA2OCA2OCBjIDQuMjk2IDQuMjk2IDQuMjk2IDExLjI2MSAwIDE1LjU1NyBDIDg0LjYzIDg4LjkyNiA4MS44MTUgOTAgNzkgOTAgeiIvPiYjeGE7PC9nPiYjeGE7PC9zdmc+;" parent="TkUJvQ5mJa8ef2wBkVaY-1" vertex="1">
          <mxGeometry x="522" y="577" width="36" height="36" as="geometry" />
        </mxCell>
        <mxCell id="TkUJvQ5mJa8ef2wBkVaY-19" value="" style="shape=image;verticalLabelPosition=bottom;labelBackgroundColor=default;verticalAlign=top;aspect=fixed;imageAspect=0;image=data:image/svg+xml,PHN2ZyB4bWxuczp4bGluaz0iaHR0cDovL3d3dy53My5vcmcvMTk5OS94bGluayIgeG1sbnM9Imh0dHA6Ly93d3cudzMub3JnLzIwMDAvc3ZnIiB4bWw6c3BhY2U9InByZXNlcnZlIiB2aWV3Qm94PSIwIDAgMjU2IDI1NiIgaGVpZ2h0PSIyNTYiIHdpZHRoPSIyNTYiIHZlcnNpb249IjEuMSI+JiN4YTsmI3hhOzxkZWZzPiYjeGE7PC9kZWZzPiYjeGE7PGcgdHJhbnNmb3JtPSJ0cmFuc2xhdGUoMS40MDY1OTM0MDY1OTM0MDE2IDEuNDA2NTkzNDA2NTkzNDAxNikgc2NhbGUoMi44MSAyLjgxKSIgc3R5bGU9InN0cm9rZTogbm9uZTsgc3Ryb2tlLXdpZHRoOiAwOyBzdHJva2UtZGFzaGFycmF5OiBub25lOyBzdHJva2UtbGluZWNhcDogYnV0dDsgc3Ryb2tlLWxpbmVqb2luOiBtaXRlcjsgc3Ryb2tlLW1pdGVybGltaXQ6IDEwOyBmaWxsOiBub25lOyBmaWxsLXJ1bGU6IG5vbnplcm87IG9wYWNpdHk6IDE7Ij4mI3hhOwk8cGF0aCBzdHJva2UtbGluZWNhcD0icm91bmQiIHRyYW5zZm9ybT0ibWF0cml4KDEgMCAwIDEgMCAwKSIgc3R5bGU9InN0cm9rZTogbm9uZTsgc3Ryb2tlLXdpZHRoOiAxOyBzdHJva2UtZGFzaGFycmF5OiBub25lOyBzdHJva2UtbGluZWNhcDogYnV0dDsgc3Ryb2tlLWxpbmVqb2luOiBtaXRlcjsgc3Ryb2tlLW1pdGVybGltaXQ6IDEwOyBmaWxsOiByZ2IoMjE0LDAsMCk7IGZpbGwtcnVsZTogbm9uemVybzsgb3BhY2l0eTogMTsiIGQ9Ik0gMTEgOTAgYyAtMi44MTUgMCAtNS42MyAtMS4wNzQgLTcuNzc4IC0zLjIyMiBjIC00LjI5NSAtNC4yOTYgLTQuMjk1IC0xMS4yNjEgMCAtMTUuNTU3IGwgNjggLTY4IGMgNC4yOTcgLTQuMjk2IDExLjI2IC00LjI5NiAxNS41NTcgMCBjIDQuMjk2IDQuMjk2IDQuMjk2IDExLjI2MSAwIDE1LjU1NyBsIC02OCA2OCBDIDE2LjYzIDg4LjkyNiAxMy44MTUgOTAgMTEgOTAgeiIvPiYjeGE7CTxwYXRoIHN0cm9rZS1saW5lY2FwPSJyb3VuZCIgdHJhbnNmb3JtPSJtYXRyaXgoMSAwIDAgMSAwIDApIiBzdHlsZT0ic3Ryb2tlOiBub25lOyBzdHJva2Utd2lkdGg6IDE7IHN0cm9rZS1kYXNoYXJyYXk6IG5vbmU7IHN0cm9rZS1saW5lY2FwOiBidXR0OyBzdHJva2UtbGluZWpvaW46IG1pdGVyOyBzdHJva2UtbWl0ZXJsaW1pdDogMTA7IGZpbGw6IHJnYigyMTQsMCwwKTsgZmlsbC1ydWxlOiBub256ZXJvOyBvcGFjaXR5OiAxOyIgZD0iTSA3OSA5MCBjIC0yLjgxNSAwIC01LjYzIC0xLjA3NCAtNy43NzggLTMuMjIyIGwgLTY4IC02OCBjIC00LjI5NSAtNC4yOTYgLTQuMjk1IC0xMS4yNjEgMCAtMTUuNTU3IGMgNC4yOTYgLTQuMjk2IDExLjI2MSAtNC4yOTYgMTUuNTU3IDAgbCA2OCA2OCBjIDQuMjk2IDQuMjk2IDQuMjk2IDExLjI2MSAwIDE1LjU1NyBDIDg0LjYzIDg4LjkyNiA4MS44MTUgOTAgNzkgOTAgeiIvPiYjeGE7PC9nPiYjeGE7PC9zdmc+;" parent="TkUJvQ5mJa8ef2wBkVaY-1" vertex="1">
          <mxGeometry x="402" y="577" width="36" height="36" as="geometry" />
        </mxCell>
        <mxCell id="TkUJvQ5mJa8ef2wBkVaY-20" value="" style="rounded=0;whiteSpace=wrap;html=1;labelBackgroundColor=#ffffff;strokeColor=#000000;fontFamily=Helvetica;fontSize=12;fillColor=#56B4E9;" parent="TkUJvQ5mJa8ef2wBkVaY-1" vertex="1">
          <mxGeometry x="370" y="500" width="100" height="30" as="geometry" />
        </mxCell>
        <mxCell id="TkUJvQ5mJa8ef2wBkVaY-21" value="" style="rounded=0;whiteSpace=wrap;html=1;labelBackgroundColor=#ffffff;strokeColor=#000000;fontFamily=Helvetica;fontSize=12;fillColor=#56B4E9;" parent="TkUJvQ5mJa8ef2wBkVaY-1" vertex="1">
          <mxGeometry x="450" y="580" width="60" height="30" as="geometry" />
        </mxCell>
        <mxCell id="TkUJvQ5mJa8ef2wBkVaY-22" value="" style="rounded=0;whiteSpace=wrap;html=1;labelBackgroundColor=#ffffff;strokeColor=#000000;fontFamily=Helvetica;fontSize=12;fillColor=#009E73;" parent="TkUJvQ5mJa8ef2wBkVaY-1" vertex="1">
          <mxGeometry x="490" y="500" width="60" height="30" as="geometry" />
        </mxCell>
        <mxCell id="TkUJvQ5mJa8ef2wBkVaY-23" value="" style="rounded=0;whiteSpace=wrap;html=1;labelBackgroundColor=#ffffff;strokeColor=#000000;fontFamily=Helvetica;fontSize=12;fillColor=#009E73;" parent="TkUJvQ5mJa8ef2wBkVaY-1" vertex="1">
          <mxGeometry x="290" y="580" width="100" height="30" as="geometry" />
        </mxCell>
        <mxCell id="TkUJvQ5mJa8ef2wBkVaY-24" value="&lt;font data-font-src=&quot;https://fonts.googleapis.com/css?family=Linux+Libertine&quot;&gt;&lt;font face=&quot;Fira Sans&quot;&gt;2&lt;/font&gt;&lt;br&gt;&lt;/font&gt;" style="text;html=1;strokeColor=none;fillColor=none;align=center;verticalAlign=middle;whiteSpace=wrap;rounded=0;labelBackgroundColor=none;fontFamily=Helvetica;fontSize=12;fontColor=default;" parent="TkUJvQ5mJa8ef2wBkVaY-1" vertex="1">
          <mxGeometry x="390" y="505" width="60" height="20" as="geometry" />
        </mxCell>
        <mxCell id="TkUJvQ5mJa8ef2wBkVaY-25" value="&lt;font data-font-src=&quot;https://fonts.googleapis.com/css?family=Linux+Libertine&quot;&gt;&lt;font face=&quot;Fira Sans&quot;&gt;5&lt;/font&gt;&lt;br&gt;&lt;/font&gt;" style="text;html=1;strokeColor=none;fillColor=none;align=center;verticalAlign=middle;whiteSpace=wrap;rounded=0;labelBackgroundColor=none;fontFamily=Helvetica;fontSize=12;fontColor=default;" parent="TkUJvQ5mJa8ef2wBkVaY-1" vertex="1">
          <mxGeometry x="490" y="505" width="60" height="20" as="geometry" />
        </mxCell>
        <mxCell id="TkUJvQ5mJa8ef2wBkVaY-26" value="&lt;font face=&quot;Fira Sans&quot; data-font-src=&quot;https://fonts.googleapis.com/css?family=Linux+Libertine&quot;&gt;10&lt;/font&gt;" style="text;html=1;strokeColor=none;fillColor=none;align=center;verticalAlign=middle;whiteSpace=wrap;rounded=0;labelBackgroundColor=none;fontFamily=Helvetica;fontSize=12;fontColor=default;" parent="TkUJvQ5mJa8ef2wBkVaY-1" vertex="1">
          <mxGeometry x="310" y="585" width="60" height="20" as="geometry" />
        </mxCell>
        <mxCell id="TkUJvQ5mJa8ef2wBkVaY-27" value="&lt;font face=&quot;Fira Sans&quot; data-font-src=&quot;https://fonts.googleapis.com/css?family=Linux+Libertine&quot;&gt;3&lt;/font&gt;" style="text;html=1;strokeColor=none;fillColor=none;align=center;verticalAlign=middle;whiteSpace=wrap;rounded=0;labelBackgroundColor=none;fontFamily=Helvetica;fontSize=12;fontColor=default;" parent="TkUJvQ5mJa8ef2wBkVaY-1" vertex="1">
          <mxGeometry x="450" y="585" width="60" height="20" as="geometry" />
        </mxCell>
        <mxCell id="TkUJvQ5mJa8ef2wBkVaY-28" value="&lt;font face=&quot;Fira Sans&quot; data-font-src=&quot;https://fonts.googleapis.com/css?family=Linux+Libertine&quot;&gt;Row 1&lt;/font&gt;" style="text;html=1;strokeColor=none;fillColor=none;align=center;verticalAlign=middle;whiteSpace=wrap;rounded=0;labelBackgroundColor=none;fontFamily=Helvetica;fontSize=12;fontColor=default;" parent="TkUJvQ5mJa8ef2wBkVaY-1" vertex="1">
          <mxGeometry x="190" y="500" width="60" height="30" as="geometry" />
        </mxCell>
        <mxCell id="TkUJvQ5mJa8ef2wBkVaY-29" value="&lt;font face=&quot;Fira Sans&quot; data-font-src=&quot;https://fonts.googleapis.com/css?family=Linux+Libertine&quot;&gt;Row 2&lt;/font&gt;" style="text;html=1;strokeColor=none;fillColor=none;align=center;verticalAlign=middle;whiteSpace=wrap;rounded=0;labelBackgroundColor=none;fontFamily=Helvetica;fontSize=12;fontColor=default;" parent="TkUJvQ5mJa8ef2wBkVaY-1" vertex="1">
          <mxGeometry x="190" y="580" width="60" height="30" as="geometry" />
        </mxCell>
        <mxCell id="PZsIf6jr8QYanBalYKpi-0" value="" style="rounded=0;whiteSpace=wrap;html=1;labelBackgroundColor=#ffffff;strokeColor=#000000;fontFamily=Fira Sans;fontSize=12;fillColor=#009E73;" parent="TkUJvQ5mJa8ef2wBkVaY-1" vertex="1">
          <mxGeometry x="600" y="532" width="10" height="10" as="geometry" />
        </mxCell>
        <mxCell id="PZsIf6jr8QYanBalYKpi-1" value="" style="rounded=0;whiteSpace=wrap;html=1;labelBackgroundColor=#ffffff;strokeColor=#000000;fontFamily=Fira Sans;fontSize=12;fillColor=#56B4E9;" parent="TkUJvQ5mJa8ef2wBkVaY-1" vertex="1">
          <mxGeometry x="600" y="564" width="10" height="10" as="geometry" />
        </mxCell>
        <mxCell id="PZsIf6jr8QYanBalYKpi-2" value="&lt;font data-font-src=&quot;https://fonts.googleapis.com/css?family=Linux+Libertine&quot;&gt;Pool 1&lt;/font&gt;" style="text;html=1;strokeColor=none;fillColor=none;align=center;verticalAlign=middle;whiteSpace=wrap;rounded=0;labelBackgroundColor=none;fontFamily=Fira Sans;fontSize=12;fontColor=default;" parent="TkUJvQ5mJa8ef2wBkVaY-1" vertex="1">
          <mxGeometry x="613" y="523" width="60" height="30" as="geometry" />
        </mxCell>
        <mxCell id="PZsIf6jr8QYanBalYKpi-3" value="&lt;font data-font-src=&quot;https://fonts.googleapis.com/css?family=Linux+Libertine&quot;&gt;Pool 2&lt;br&gt;&lt;/font&gt;" style="text;html=1;strokeColor=none;fillColor=none;align=center;verticalAlign=middle;whiteSpace=wrap;rounded=0;labelBackgroundColor=none;fontFamily=Fira Sans;fontSize=12;fontColor=default;" parent="TkUJvQ5mJa8ef2wBkVaY-1" vertex="1">
          <mxGeometry x="612" y="555" width="60" height="30" as="geometry" />
        </mxCell>
      </root>
    </mxGraphModel>
  </diagram>
  <diagram id="cY3D8RJmuAJRdvnCpQnE" name="Page-4">
    <mxGraphModel dx="954" dy="663" grid="1" gridSize="10" guides="1" tooltips="1" connect="1" arrows="1" fold="1" page="1" pageScale="1" pageWidth="827" pageHeight="1169" math="0" shadow="0">
      <root>
        <mxCell id="0" />
        <mxCell id="1" parent="0" />
        <mxCell id="7GDiASRQIbfY-Lpmv50H-1" value="" style="whiteSpace=wrap;html=1;aspect=fixed;fillColor=#f5f5f5;fontColor=#333333;strokeColor=#000000;" parent="1" vertex="1">
          <mxGeometry x="310" y="260" width="40" height="40" as="geometry" />
        </mxCell>
        <mxCell id="7GDiASRQIbfY-Lpmv50H-2" value="" style="whiteSpace=wrap;html=1;aspect=fixed;fillColor=#f5f5f5;fontColor=#333333;strokeColor=#000000;" parent="1" vertex="1">
          <mxGeometry x="350" y="260" width="40" height="40" as="geometry" />
        </mxCell>
        <mxCell id="7GDiASRQIbfY-Lpmv50H-3" value="" style="whiteSpace=wrap;html=1;aspect=fixed;fillColor=#f5f5f5;fontColor=#333333;strokeColor=#000000;" parent="1" vertex="1">
          <mxGeometry x="390" y="260" width="40" height="40" as="geometry" />
        </mxCell>
        <mxCell id="7GDiASRQIbfY-Lpmv50H-4" value="" style="whiteSpace=wrap;html=1;aspect=fixed;fillColor=#f5f5f5;fontColor=#333333;strokeColor=#000000;" parent="1" vertex="1">
          <mxGeometry x="430" y="260" width="40" height="40" as="geometry" />
        </mxCell>
        <mxCell id="7GDiASRQIbfY-Lpmv50H-5" value="" style="whiteSpace=wrap;html=1;aspect=fixed;fillColor=#f5f5f5;fontColor=#333333;strokeColor=#000000;" parent="1" vertex="1">
          <mxGeometry x="470" y="260" width="40" height="40" as="geometry" />
        </mxCell>
        <mxCell id="7GDiASRQIbfY-Lpmv50H-6" value="" style="whiteSpace=wrap;html=1;aspect=fixed;fillColor=#f5f5f5;fontColor=#333333;strokeColor=#000000;" parent="1" vertex="1">
          <mxGeometry x="510" y="260" width="40" height="40" as="geometry" />
        </mxCell>
        <mxCell id="7GDiASRQIbfY-Lpmv50H-7" value="" style="whiteSpace=wrap;html=1;aspect=fixed;fillColor=#f5f5f5;fontColor=#333333;strokeColor=#000000;" parent="1" vertex="1">
          <mxGeometry x="550" y="260" width="40" height="40" as="geometry" />
        </mxCell>
        <mxCell id="7GDiASRQIbfY-Lpmv50H-8" value="" style="shape=image;verticalLabelPosition=bottom;labelBackgroundColor=default;verticalAlign=top;aspect=fixed;imageAspect=0;image=data:image/svg+xml,PHN2ZyB4bWxuczp4bGluaz0iaHR0cDovL3d3dy53My5vcmcvMTk5OS94bGluayIgeG1sbnM9Imh0dHA6Ly93d3cudzMub3JnLzIwMDAvc3ZnIiB4bWw6c3BhY2U9InByZXNlcnZlIiB2aWV3Qm94PSIwIDAgMjU2IDI1NiIgaGVpZ2h0PSIyNTYiIHdpZHRoPSIyNTYiIHZlcnNpb249IjEuMSI+JiN4YTsmI3hhOzxkZWZzPiYjeGE7PC9kZWZzPiYjeGE7PGcgdHJhbnNmb3JtPSJ0cmFuc2xhdGUoMS40MDY1OTM0MDY1OTM0MDE2IDEuNDA2NTkzNDA2NTkzNDAxNikgc2NhbGUoMi44MSAyLjgxKSIgc3R5bGU9InN0cm9rZTogbm9uZTsgc3Ryb2tlLXdpZHRoOiAwOyBzdHJva2UtZGFzaGFycmF5OiBub25lOyBzdHJva2UtbGluZWNhcDogYnV0dDsgc3Ryb2tlLWxpbmVqb2luOiBtaXRlcjsgc3Ryb2tlLW1pdGVybGltaXQ6IDEwOyBmaWxsOiBub25lOyBmaWxsLXJ1bGU6IG5vbnplcm87IG9wYWNpdHk6IDE7Ij4mI3hhOwk8cGF0aCBzdHJva2UtbGluZWNhcD0icm91bmQiIHRyYW5zZm9ybT0ibWF0cml4KDEgMCAwIDEgMCAwKSIgc3R5bGU9InN0cm9rZTogbm9uZTsgc3Ryb2tlLXdpZHRoOiAxOyBzdHJva2UtZGFzaGFycmF5OiBub25lOyBzdHJva2UtbGluZWNhcDogYnV0dDsgc3Ryb2tlLWxpbmVqb2luOiBtaXRlcjsgc3Ryb2tlLW1pdGVybGltaXQ6IDEwOyBmaWxsOiByZ2IoMjE0LDAsMCk7IGZpbGwtcnVsZTogbm9uemVybzsgb3BhY2l0eTogMTsiIGQ9Ik0gMTEgOTAgYyAtMi44MTUgMCAtNS42MyAtMS4wNzQgLTcuNzc4IC0zLjIyMiBjIC00LjI5NSAtNC4yOTYgLTQuMjk1IC0xMS4yNjEgMCAtMTUuNTU3IGwgNjggLTY4IGMgNC4yOTcgLTQuMjk2IDExLjI2IC00LjI5NiAxNS41NTcgMCBjIDQuMjk2IDQuMjk2IDQuMjk2IDExLjI2MSAwIDE1LjU1NyBsIC02OCA2OCBDIDE2LjYzIDg4LjkyNiAxMy44MTUgOTAgMTEgOTAgeiIvPiYjeGE7CTxwYXRoIHN0cm9rZS1saW5lY2FwPSJyb3VuZCIgdHJhbnNmb3JtPSJtYXRyaXgoMSAwIDAgMSAwIDApIiBzdHlsZT0ic3Ryb2tlOiBub25lOyBzdHJva2Utd2lkdGg6IDE7IHN0cm9rZS1kYXNoYXJyYXk6IG5vbmU7IHN0cm9rZS1saW5lY2FwOiBidXR0OyBzdHJva2UtbGluZWpvaW46IG1pdGVyOyBzdHJva2UtbWl0ZXJsaW1pdDogMTA7IGZpbGw6IHJnYigyMTQsMCwwKTsgZmlsbC1ydWxlOiBub256ZXJvOyBvcGFjaXR5OiAxOyIgZD0iTSA3OSA5MCBjIC0yLjgxNSAwIC01LjYzIC0xLjA3NCAtNy43NzggLTMuMjIyIGwgLTY4IC02OCBjIC00LjI5NSAtNC4yOTYgLTQuMjk1IC0xMS4yNjEgMCAtMTUuNTU3IGMgNC4yOTYgLTQuMjk2IDExLjI2MSAtNC4yOTYgMTUuNTU3IDAgbCA2OCA2OCBjIDQuMjk2IDQuMjk2IDQuMjk2IDExLjI2MSAwIDE1LjU1NyBDIDg0LjYzIDg4LjkyNiA4MS44MTUgOTAgNzkgOTAgeiIvPiYjeGE7PC9nPiYjeGE7PC9zdmc+;" parent="1" vertex="1">
          <mxGeometry x="312" y="262" width="36" height="36" as="geometry" />
        </mxCell>
        <mxCell id="7GDiASRQIbfY-Lpmv50H-10" value="" style="whiteSpace=wrap;html=1;aspect=fixed;fillColor=#f5f5f5;fontColor=#333333;strokeColor=#000000;" parent="1" vertex="1">
          <mxGeometry x="310" y="340" width="40" height="40" as="geometry" />
        </mxCell>
        <mxCell id="7GDiASRQIbfY-Lpmv50H-11" value="" style="whiteSpace=wrap;html=1;aspect=fixed;fillColor=#f5f5f5;fontColor=#333333;strokeColor=#000000;" parent="1" vertex="1">
          <mxGeometry x="350" y="340" width="40" height="40" as="geometry" />
        </mxCell>
        <mxCell id="7GDiASRQIbfY-Lpmv50H-12" value="" style="whiteSpace=wrap;html=1;aspect=fixed;fillColor=#f5f5f5;fontColor=#333333;strokeColor=#000000;" parent="1" vertex="1">
          <mxGeometry x="390" y="340" width="40" height="40" as="geometry" />
        </mxCell>
        <mxCell id="7GDiASRQIbfY-Lpmv50H-13" value="" style="whiteSpace=wrap;html=1;aspect=fixed;fillColor=#f5f5f5;fontColor=#333333;strokeColor=#000000;" parent="1" vertex="1">
          <mxGeometry x="430" y="340" width="40" height="40" as="geometry" />
        </mxCell>
        <mxCell id="7GDiASRQIbfY-Lpmv50H-14" value="" style="whiteSpace=wrap;html=1;aspect=fixed;fillColor=#f5f5f5;fontColor=#333333;strokeColor=#000000;" parent="1" vertex="1">
          <mxGeometry x="470" y="340" width="40" height="40" as="geometry" />
        </mxCell>
        <mxCell id="7GDiASRQIbfY-Lpmv50H-15" value="" style="whiteSpace=wrap;html=1;aspect=fixed;fillColor=#f5f5f5;fontColor=#333333;strokeColor=#000000;" parent="1" vertex="1">
          <mxGeometry x="510" y="340" width="40" height="40" as="geometry" />
        </mxCell>
        <mxCell id="7GDiASRQIbfY-Lpmv50H-16" value="" style="whiteSpace=wrap;html=1;aspect=fixed;fillColor=#f5f5f5;fontColor=#333333;strokeColor=#000000;" parent="1" vertex="1">
          <mxGeometry x="550" y="340" width="40" height="40" as="geometry" />
        </mxCell>
        <mxCell id="7GDiASRQIbfY-Lpmv50H-27" value="&lt;font face=&quot;Fira Sans&quot; data-font-src=&quot;https://fonts.googleapis.com/css?family=Linux+Libertine&quot;&gt;Row 0&lt;/font&gt;" style="text;html=1;strokeColor=none;fillColor=none;align=center;verticalAlign=middle;whiteSpace=wrap;rounded=0;labelBackgroundColor=none;fontFamily=Helvetica;fontSize=12;fontColor=default;" parent="1" vertex="1">
          <mxGeometry x="220" y="265" width="60" height="30" as="geometry" />
        </mxCell>
        <mxCell id="7GDiASRQIbfY-Lpmv50H-28" value="&lt;font face=&quot;Fira Sans&quot; data-font-src=&quot;https://fonts.googleapis.com/css?family=Linux+Libertine&quot;&gt;Row 1&lt;/font&gt;" style="text;html=1;strokeColor=none;fillColor=none;align=center;verticalAlign=middle;whiteSpace=wrap;rounded=0;labelBackgroundColor=none;fontFamily=Helvetica;fontSize=12;fontColor=default;" parent="1" vertex="1">
          <mxGeometry x="220" y="345" width="60" height="30" as="geometry" />
        </mxCell>
        <mxCell id="7GDiASRQIbfY-Lpmv50H-29" value="" style="rounded=0;whiteSpace=wrap;html=1;labelBackgroundColor=#ffffff;strokeColor=#000000;fontFamily=Helvetica;fontSize=12;fillColor=#009E73;" parent="1" vertex="1">
          <mxGeometry x="630" y="339" width="10" height="10" as="geometry" />
        </mxCell>
        <mxCell id="7GDiASRQIbfY-Lpmv50H-30" value="" style="rounded=0;whiteSpace=wrap;html=1;labelBackgroundColor=#ffffff;strokeColor=#000000;fontFamily=Helvetica;fontSize=12;fillColor=#56B4E9;" parent="1" vertex="1">
          <mxGeometry x="630" y="371" width="10" height="10" as="geometry" />
        </mxCell>
        <mxCell id="7GDiASRQIbfY-Lpmv50H-31" value="&lt;font face=&quot;Fira Sans&quot; data-font-src=&quot;https://fonts.googleapis.com/css?family=Linux+Libertine&quot;&gt;Pool 0&lt;/font&gt;" style="text;html=1;strokeColor=none;fillColor=none;align=center;verticalAlign=middle;whiteSpace=wrap;rounded=0;labelBackgroundColor=none;fontFamily=Helvetica;fontSize=12;fontColor=default;" parent="1" vertex="1">
          <mxGeometry x="640" y="331" width="60" height="30" as="geometry" />
        </mxCell>
        <mxCell id="7GDiASRQIbfY-Lpmv50H-32" value="&lt;font data-font-src=&quot;https://fonts.googleapis.com/css?family=Linux+Libertine&quot;&gt;&lt;font face=&quot;Fira Sans&quot;&gt;Pool 1&lt;/font&gt;&lt;br&gt;&lt;/font&gt;" style="text;html=1;strokeColor=none;fillColor=none;align=center;verticalAlign=middle;whiteSpace=wrap;rounded=0;labelBackgroundColor=none;fontFamily=Helvetica;fontSize=12;fontColor=default;" parent="1" vertex="1">
          <mxGeometry x="640" y="359" width="60" height="30" as="geometry" />
        </mxCell>
        <mxCell id="7GDiASRQIbfY-Lpmv50H-59" value="" style="whiteSpace=wrap;html=1;aspect=fixed;fillColor=#f5f5f5;fontColor=#333333;strokeColor=#000000;" parent="1" vertex="1">
          <mxGeometry x="310" y="420" width="40" height="40" as="geometry" />
        </mxCell>
        <mxCell id="7GDiASRQIbfY-Lpmv50H-60" value="" style="whiteSpace=wrap;html=1;aspect=fixed;fillColor=#f5f5f5;fontColor=#333333;strokeColor=#000000;" parent="1" vertex="1">
          <mxGeometry x="350" y="420" width="40" height="40" as="geometry" />
        </mxCell>
        <mxCell id="7GDiASRQIbfY-Lpmv50H-61" value="" style="whiteSpace=wrap;html=1;aspect=fixed;fillColor=#f5f5f5;fontColor=#333333;strokeColor=#000000;" parent="1" vertex="1">
          <mxGeometry x="390" y="420" width="40" height="40" as="geometry" />
        </mxCell>
        <mxCell id="7GDiASRQIbfY-Lpmv50H-62" value="" style="whiteSpace=wrap;html=1;aspect=fixed;fillColor=#f5f5f5;fontColor=#333333;strokeColor=#000000;" parent="1" vertex="1">
          <mxGeometry x="430" y="420" width="40" height="40" as="geometry" />
        </mxCell>
        <mxCell id="7GDiASRQIbfY-Lpmv50H-63" value="" style="whiteSpace=wrap;html=1;aspect=fixed;fillColor=#f5f5f5;fontColor=#333333;strokeColor=#000000;" parent="1" vertex="1">
          <mxGeometry x="470" y="420" width="40" height="40" as="geometry" />
        </mxCell>
        <mxCell id="7GDiASRQIbfY-Lpmv50H-64" value="" style="whiteSpace=wrap;html=1;aspect=fixed;fillColor=#f5f5f5;fontColor=#333333;strokeColor=#000000;" parent="1" vertex="1">
          <mxGeometry x="510" y="420" width="40" height="40" as="geometry" />
        </mxCell>
        <mxCell id="7GDiASRQIbfY-Lpmv50H-65" value="" style="whiteSpace=wrap;html=1;aspect=fixed;fillColor=#f5f5f5;fontColor=#333333;strokeColor=#000000;" parent="1" vertex="1">
          <mxGeometry x="550" y="420" width="40" height="40" as="geometry" />
        </mxCell>
        <mxCell id="7GDiASRQIbfY-Lpmv50H-72" value="&lt;font face=&quot;Fira Sans&quot; data-font-src=&quot;https://fonts.googleapis.com/css?family=Linux+Libertine&quot;&gt;Row 2&lt;/font&gt;" style="text;html=1;strokeColor=none;fillColor=none;align=center;verticalAlign=middle;whiteSpace=wrap;rounded=0;labelBackgroundColor=none;fontFamily=Helvetica;fontSize=12;fontColor=default;" parent="1" vertex="1">
          <mxGeometry x="220" y="425" width="60" height="30" as="geometry" />
        </mxCell>
        <mxCell id="7GDiASRQIbfY-Lpmv50H-73" value="" style="shape=image;verticalLabelPosition=bottom;labelBackgroundColor=default;verticalAlign=top;aspect=fixed;imageAspect=0;image=data:image/svg+xml,PHN2ZyB4bWxuczp4bGluaz0iaHR0cDovL3d3dy53My5vcmcvMTk5OS94bGluayIgeG1sbnM9Imh0dHA6Ly93d3cudzMub3JnLzIwMDAvc3ZnIiB4bWw6c3BhY2U9InByZXNlcnZlIiB2aWV3Qm94PSIwIDAgMjU2IDI1NiIgaGVpZ2h0PSIyNTYiIHdpZHRoPSIyNTYiIHZlcnNpb249IjEuMSI+JiN4YTsmI3hhOzxkZWZzPiYjeGE7PC9kZWZzPiYjeGE7PGcgdHJhbnNmb3JtPSJ0cmFuc2xhdGUoMS40MDY1OTM0MDY1OTM0MDE2IDEuNDA2NTkzNDA2NTkzNDAxNikgc2NhbGUoMi44MSAyLjgxKSIgc3R5bGU9InN0cm9rZTogbm9uZTsgc3Ryb2tlLXdpZHRoOiAwOyBzdHJva2UtZGFzaGFycmF5OiBub25lOyBzdHJva2UtbGluZWNhcDogYnV0dDsgc3Ryb2tlLWxpbmVqb2luOiBtaXRlcjsgc3Ryb2tlLW1pdGVybGltaXQ6IDEwOyBmaWxsOiBub25lOyBmaWxsLXJ1bGU6IG5vbnplcm87IG9wYWNpdHk6IDE7Ij4mI3hhOwk8cGF0aCBzdHJva2UtbGluZWNhcD0icm91bmQiIHRyYW5zZm9ybT0ibWF0cml4KDEgMCAwIDEgMCAwKSIgc3R5bGU9InN0cm9rZTogbm9uZTsgc3Ryb2tlLXdpZHRoOiAxOyBzdHJva2UtZGFzaGFycmF5OiBub25lOyBzdHJva2UtbGluZWNhcDogYnV0dDsgc3Ryb2tlLWxpbmVqb2luOiBtaXRlcjsgc3Ryb2tlLW1pdGVybGltaXQ6IDEwOyBmaWxsOiByZ2IoMjE0LDAsMCk7IGZpbGwtcnVsZTogbm9uemVybzsgb3BhY2l0eTogMTsiIGQ9Ik0gMTEgOTAgYyAtMi44MTUgMCAtNS42MyAtMS4wNzQgLTcuNzc4IC0zLjIyMiBjIC00LjI5NSAtNC4yOTYgLTQuMjk1IC0xMS4yNjEgMCAtMTUuNTU3IGwgNjggLTY4IGMgNC4yOTcgLTQuMjk2IDExLjI2IC00LjI5NiAxNS41NTcgMCBjIDQuMjk2IDQuMjk2IDQuMjk2IDExLjI2MSAwIDE1LjU1NyBsIC02OCA2OCBDIDE2LjYzIDg4LjkyNiAxMy44MTUgOTAgMTEgOTAgeiIvPiYjeGE7CTxwYXRoIHN0cm9rZS1saW5lY2FwPSJyb3VuZCIgdHJhbnNmb3JtPSJtYXRyaXgoMSAwIDAgMSAwIDApIiBzdHlsZT0ic3Ryb2tlOiBub25lOyBzdHJva2Utd2lkdGg6IDE7IHN0cm9rZS1kYXNoYXJyYXk6IG5vbmU7IHN0cm9rZS1saW5lY2FwOiBidXR0OyBzdHJva2UtbGluZWpvaW46IG1pdGVyOyBzdHJva2UtbWl0ZXJsaW1pdDogMTA7IGZpbGw6IHJnYigyMTQsMCwwKTsgZmlsbC1ydWxlOiBub256ZXJvOyBvcGFjaXR5OiAxOyIgZD0iTSA3OSA5MCBjIC0yLjgxNSAwIC01LjYzIC0xLjA3NCAtNy43NzggLTMuMjIyIGwgLTY4IC02OCBjIC00LjI5NSAtNC4yOTYgLTQuMjk1IC0xMS4yNjEgMCAtMTUuNTU3IGMgNC4yOTYgLTQuMjk2IDExLjI2MSAtNC4yOTYgMTUuNTU3IDAgbCA2OCA2OCBjIDQuMjk2IDQuMjk2IDQuMjk2IDExLjI2MSAwIDE1LjU1NyBDIDg0LjYzIDg4LjkyNiA4MS44MTUgOTAgNzkgOTAgeiIvPiYjeGE7PC9nPiYjeGE7PC9zdmc+;" parent="1" vertex="1">
          <mxGeometry x="552" y="262" width="36" height="36" as="geometry" />
        </mxCell>
        <mxCell id="7GDiASRQIbfY-Lpmv50H-74" value="" style="shape=image;verticalLabelPosition=bottom;labelBackgroundColor=default;verticalAlign=top;aspect=fixed;imageAspect=0;image=data:image/svg+xml,PHN2ZyB4bWxuczp4bGluaz0iaHR0cDovL3d3dy53My5vcmcvMTk5OS94bGluayIgeG1sbnM9Imh0dHA6Ly93d3cudzMub3JnLzIwMDAvc3ZnIiB4bWw6c3BhY2U9InByZXNlcnZlIiB2aWV3Qm94PSIwIDAgMjU2IDI1NiIgaGVpZ2h0PSIyNTYiIHdpZHRoPSIyNTYiIHZlcnNpb249IjEuMSI+JiN4YTsmI3hhOzxkZWZzPiYjeGE7PC9kZWZzPiYjeGE7PGcgdHJhbnNmb3JtPSJ0cmFuc2xhdGUoMS40MDY1OTM0MDY1OTM0MDE2IDEuNDA2NTkzNDA2NTkzNDAxNikgc2NhbGUoMi44MSAyLjgxKSIgc3R5bGU9InN0cm9rZTogbm9uZTsgc3Ryb2tlLXdpZHRoOiAwOyBzdHJva2UtZGFzaGFycmF5OiBub25lOyBzdHJva2UtbGluZWNhcDogYnV0dDsgc3Ryb2tlLWxpbmVqb2luOiBtaXRlcjsgc3Ryb2tlLW1pdGVybGltaXQ6IDEwOyBmaWxsOiBub25lOyBmaWxsLXJ1bGU6IG5vbnplcm87IG9wYWNpdHk6IDE7Ij4mI3hhOwk8cGF0aCBzdHJva2UtbGluZWNhcD0icm91bmQiIHRyYW5zZm9ybT0ibWF0cml4KDEgMCAwIDEgMCAwKSIgc3R5bGU9InN0cm9rZTogbm9uZTsgc3Ryb2tlLXdpZHRoOiAxOyBzdHJva2UtZGFzaGFycmF5OiBub25lOyBzdHJva2UtbGluZWNhcDogYnV0dDsgc3Ryb2tlLWxpbmVqb2luOiBtaXRlcjsgc3Ryb2tlLW1pdGVybGltaXQ6IDEwOyBmaWxsOiByZ2IoMjE0LDAsMCk7IGZpbGwtcnVsZTogbm9uemVybzsgb3BhY2l0eTogMTsiIGQ9Ik0gMTEgOTAgYyAtMi44MTUgMCAtNS42MyAtMS4wNzQgLTcuNzc4IC0zLjIyMiBjIC00LjI5NSAtNC4yOTYgLTQuMjk1IC0xMS4yNjEgMCAtMTUuNTU3IGwgNjggLTY4IGMgNC4yOTcgLTQuMjk2IDExLjI2IC00LjI5NiAxNS41NTcgMCBjIDQuMjk2IDQuMjk2IDQuMjk2IDExLjI2MSAwIDE1LjU1NyBsIC02OCA2OCBDIDE2LjYzIDg4LjkyNiAxMy44MTUgOTAgMTEgOTAgeiIvPiYjeGE7CTxwYXRoIHN0cm9rZS1saW5lY2FwPSJyb3VuZCIgdHJhbnNmb3JtPSJtYXRyaXgoMSAwIDAgMSAwIDApIiBzdHlsZT0ic3Ryb2tlOiBub25lOyBzdHJva2Utd2lkdGg6IDE7IHN0cm9rZS1kYXNoYXJyYXk6IG5vbmU7IHN0cm9rZS1saW5lY2FwOiBidXR0OyBzdHJva2UtbGluZWpvaW46IG1pdGVyOyBzdHJva2UtbWl0ZXJsaW1pdDogMTA7IGZpbGw6IHJnYigyMTQsMCwwKTsgZmlsbC1ydWxlOiBub256ZXJvOyBvcGFjaXR5OiAxOyIgZD0iTSA3OSA5MCBjIC0yLjgxNSAwIC01LjYzIC0xLjA3NCAtNy43NzggLTMuMjIyIGwgLTY4IC02OCBjIC00LjI5NSAtNC4yOTYgLTQuMjk1IC0xMS4yNjEgMCAtMTUuNTU3IGMgNC4yOTYgLTQuMjk2IDExLjI2MSAtNC4yOTYgMTUuNTU3IDAgbCA2OCA2OCBjIDQuMjk2IDQuMjk2IDQuMjk2IDExLjI2MSAwIDE1LjU1NyBDIDg0LjYzIDg4LjkyNiA4MS44MTUgOTAgNzkgOTAgeiIvPiYjeGE7PC9nPiYjeGE7PC9zdmc+;" parent="1" vertex="1">
          <mxGeometry x="552" y="342" width="36" height="36" as="geometry" />
        </mxCell>
        <mxCell id="7GDiASRQIbfY-Lpmv50H-76" value="" style="shape=image;verticalLabelPosition=bottom;labelBackgroundColor=default;verticalAlign=top;aspect=fixed;imageAspect=0;image=data:image/svg+xml,PHN2ZyB4bWxuczp4bGluaz0iaHR0cDovL3d3dy53My5vcmcvMTk5OS94bGluayIgeG1sbnM9Imh0dHA6Ly93d3cudzMub3JnLzIwMDAvc3ZnIiB4bWw6c3BhY2U9InByZXNlcnZlIiB2aWV3Qm94PSIwIDAgMjU2IDI1NiIgaGVpZ2h0PSIyNTYiIHdpZHRoPSIyNTYiIHZlcnNpb249IjEuMSI+JiN4YTsmI3hhOzxkZWZzPiYjeGE7PC9kZWZzPiYjeGE7PGcgdHJhbnNmb3JtPSJ0cmFuc2xhdGUoMS40MDY1OTM0MDY1OTM0MDE2IDEuNDA2NTkzNDA2NTkzNDAxNikgc2NhbGUoMi44MSAyLjgxKSIgc3R5bGU9InN0cm9rZTogbm9uZTsgc3Ryb2tlLXdpZHRoOiAwOyBzdHJva2UtZGFzaGFycmF5OiBub25lOyBzdHJva2UtbGluZWNhcDogYnV0dDsgc3Ryb2tlLWxpbmVqb2luOiBtaXRlcjsgc3Ryb2tlLW1pdGVybGltaXQ6IDEwOyBmaWxsOiBub25lOyBmaWxsLXJ1bGU6IG5vbnplcm87IG9wYWNpdHk6IDE7Ij4mI3hhOwk8cGF0aCBzdHJva2UtbGluZWNhcD0icm91bmQiIHRyYW5zZm9ybT0ibWF0cml4KDEgMCAwIDEgMCAwKSIgc3R5bGU9InN0cm9rZTogbm9uZTsgc3Ryb2tlLXdpZHRoOiAxOyBzdHJva2UtZGFzaGFycmF5OiBub25lOyBzdHJva2UtbGluZWNhcDogYnV0dDsgc3Ryb2tlLWxpbmVqb2luOiBtaXRlcjsgc3Ryb2tlLW1pdGVybGltaXQ6IDEwOyBmaWxsOiByZ2IoMjE0LDAsMCk7IGZpbGwtcnVsZTogbm9uemVybzsgb3BhY2l0eTogMTsiIGQ9Ik0gMTEgOTAgYyAtMi44MTUgMCAtNS42MyAtMS4wNzQgLTcuNzc4IC0zLjIyMiBjIC00LjI5NSAtNC4yOTYgLTQuMjk1IC0xMS4yNjEgMCAtMTUuNTU3IGwgNjggLTY4IGMgNC4yOTcgLTQuMjk2IDExLjI2IC00LjI5NiAxNS41NTcgMCBjIDQuMjk2IDQuMjk2IDQuMjk2IDExLjI2MSAwIDE1LjU1NyBsIC02OCA2OCBDIDE2LjYzIDg4LjkyNiAxMy44MTUgOTAgMTEgOTAgeiIvPiYjeGE7CTxwYXRoIHN0cm9rZS1saW5lY2FwPSJyb3VuZCIgdHJhbnNmb3JtPSJtYXRyaXgoMSAwIDAgMSAwIDApIiBzdHlsZT0ic3Ryb2tlOiBub25lOyBzdHJva2Utd2lkdGg6IDE7IHN0cm9rZS1kYXNoYXJyYXk6IG5vbmU7IHN0cm9rZS1saW5lY2FwOiBidXR0OyBzdHJva2UtbGluZWpvaW46IG1pdGVyOyBzdHJva2UtbWl0ZXJsaW1pdDogMTA7IGZpbGw6IHJnYigyMTQsMCwwKTsgZmlsbC1ydWxlOiBub256ZXJvOyBvcGFjaXR5OiAxOyIgZD0iTSA3OSA5MCBjIC0yLjgxNSAwIC01LjYzIC0xLjA3NCAtNy43NzggLTMuMjIyIGwgLTY4IC02OCBjIC00LjI5NSAtNC4yOTYgLTQuMjk1IC0xMS4yNjEgMCAtMTUuNTU3IGMgNC4yOTYgLTQuMjk2IDExLjI2MSAtNC4yOTYgMTUuNTU3IDAgbCA2OCA2OCBjIDQuMjk2IDQuMjk2IDQuMjk2IDExLjI2MSAwIDE1LjU1NyBDIDg0LjYzIDg4LjkyNiA4MS44MTUgOTAgNzkgOTAgeiIvPiYjeGE7PC9nPiYjeGE7PC9zdmc+;" parent="1" vertex="1">
          <mxGeometry x="432" y="422" width="36" height="36" as="geometry" />
        </mxCell>
        <mxCell id="7GDiASRQIbfY-Lpmv50H-77" value="" style="shape=image;verticalLabelPosition=bottom;labelBackgroundColor=default;verticalAlign=top;aspect=fixed;imageAspect=0;image=data:image/svg+xml,PHN2ZyB4bWxuczp4bGluaz0iaHR0cDovL3d3dy53My5vcmcvMTk5OS94bGluayIgeG1sbnM9Imh0dHA6Ly93d3cudzMub3JnLzIwMDAvc3ZnIiB4bWw6c3BhY2U9InByZXNlcnZlIiB2aWV3Qm94PSIwIDAgMjU2IDI1NiIgaGVpZ2h0PSIyNTYiIHdpZHRoPSIyNTYiIHZlcnNpb249IjEuMSI+JiN4YTsmI3hhOzxkZWZzPiYjeGE7PC9kZWZzPiYjeGE7PGcgdHJhbnNmb3JtPSJ0cmFuc2xhdGUoMS40MDY1OTM0MDY1OTM0MDE2IDEuNDA2NTkzNDA2NTkzNDAxNikgc2NhbGUoMi44MSAyLjgxKSIgc3R5bGU9InN0cm9rZTogbm9uZTsgc3Ryb2tlLXdpZHRoOiAwOyBzdHJva2UtZGFzaGFycmF5OiBub25lOyBzdHJva2UtbGluZWNhcDogYnV0dDsgc3Ryb2tlLWxpbmVqb2luOiBtaXRlcjsgc3Ryb2tlLW1pdGVybGltaXQ6IDEwOyBmaWxsOiBub25lOyBmaWxsLXJ1bGU6IG5vbnplcm87IG9wYWNpdHk6IDE7Ij4mI3hhOwk8cGF0aCBzdHJva2UtbGluZWNhcD0icm91bmQiIHRyYW5zZm9ybT0ibWF0cml4KDEgMCAwIDEgMCAwKSIgc3R5bGU9InN0cm9rZTogbm9uZTsgc3Ryb2tlLXdpZHRoOiAxOyBzdHJva2UtZGFzaGFycmF5OiBub25lOyBzdHJva2UtbGluZWNhcDogYnV0dDsgc3Ryb2tlLWxpbmVqb2luOiBtaXRlcjsgc3Ryb2tlLW1pdGVybGltaXQ6IDEwOyBmaWxsOiByZ2IoMjE0LDAsMCk7IGZpbGwtcnVsZTogbm9uemVybzsgb3BhY2l0eTogMTsiIGQ9Ik0gMTEgOTAgYyAtMi44MTUgMCAtNS42MyAtMS4wNzQgLTcuNzc4IC0zLjIyMiBjIC00LjI5NSAtNC4yOTYgLTQuMjk1IC0xMS4yNjEgMCAtMTUuNTU3IGwgNjggLTY4IGMgNC4yOTcgLTQuMjk2IDExLjI2IC00LjI5NiAxNS41NTcgMCBjIDQuMjk2IDQuMjk2IDQuMjk2IDExLjI2MSAwIDE1LjU1NyBsIC02OCA2OCBDIDE2LjYzIDg4LjkyNiAxMy44MTUgOTAgMTEgOTAgeiIvPiYjeGE7CTxwYXRoIHN0cm9rZS1saW5lY2FwPSJyb3VuZCIgdHJhbnNmb3JtPSJtYXRyaXgoMSAwIDAgMSAwIDApIiBzdHlsZT0ic3Ryb2tlOiBub25lOyBzdHJva2Utd2lkdGg6IDE7IHN0cm9rZS1kYXNoYXJyYXk6IG5vbmU7IHN0cm9rZS1saW5lY2FwOiBidXR0OyBzdHJva2UtbGluZWpvaW46IG1pdGVyOyBzdHJva2UtbWl0ZXJsaW1pdDogMTA7IGZpbGw6IHJnYigyMTQsMCwwKTsgZmlsbC1ydWxlOiBub256ZXJvOyBvcGFjaXR5OiAxOyIgZD0iTSA3OSA5MCBjIC0yLjgxNSAwIC01LjYzIC0xLjA3NCAtNy43NzggLTMuMjIyIGwgLTY4IC02OCBjIC00LjI5NSAtNC4yOTYgLTQuMjk1IC0xMS4yNjEgMCAtMTUuNTU3IGMgNC4yOTYgLTQuMjk2IDExLjI2MSAtNC4yOTYgMTUuNTU3IDAgbCA2OCA2OCBjIDQuMjk2IDQuMjk2IDQuMjk2IDExLjI2MSAwIDE1LjU1NyBDIDg0LjYzIDg4LjkyNiA4MS44MTUgOTAgNzkgOTAgeiIvPiYjeGE7PC9nPiYjeGE7PC9zdmc+;" parent="1" vertex="1">
          <mxGeometry x="472" y="422" width="36" height="36" as="geometry" />
        </mxCell>
        <mxCell id="7GDiASRQIbfY-Lpmv50H-78" value="" style="shape=image;verticalLabelPosition=bottom;labelBackgroundColor=default;verticalAlign=top;aspect=fixed;imageAspect=0;image=data:image/svg+xml,PHN2ZyB4bWxuczp4bGluaz0iaHR0cDovL3d3dy53My5vcmcvMTk5OS94bGluayIgeG1sbnM9Imh0dHA6Ly93d3cudzMub3JnLzIwMDAvc3ZnIiB4bWw6c3BhY2U9InByZXNlcnZlIiB2aWV3Qm94PSIwIDAgMjU2IDI1NiIgaGVpZ2h0PSIyNTYiIHdpZHRoPSIyNTYiIHZlcnNpb249IjEuMSI+JiN4YTsmI3hhOzxkZWZzPiYjeGE7PC9kZWZzPiYjeGE7PGcgdHJhbnNmb3JtPSJ0cmFuc2xhdGUoMS40MDY1OTM0MDY1OTM0MDE2IDEuNDA2NTkzNDA2NTkzNDAxNikgc2NhbGUoMi44MSAyLjgxKSIgc3R5bGU9InN0cm9rZTogbm9uZTsgc3Ryb2tlLXdpZHRoOiAwOyBzdHJva2UtZGFzaGFycmF5OiBub25lOyBzdHJva2UtbGluZWNhcDogYnV0dDsgc3Ryb2tlLWxpbmVqb2luOiBtaXRlcjsgc3Ryb2tlLW1pdGVybGltaXQ6IDEwOyBmaWxsOiBub25lOyBmaWxsLXJ1bGU6IG5vbnplcm87IG9wYWNpdHk6IDE7Ij4mI3hhOwk8cGF0aCBzdHJva2UtbGluZWNhcD0icm91bmQiIHRyYW5zZm9ybT0ibWF0cml4KDEgMCAwIDEgMCAwKSIgc3R5bGU9InN0cm9rZTogbm9uZTsgc3Ryb2tlLXdpZHRoOiAxOyBzdHJva2UtZGFzaGFycmF5OiBub25lOyBzdHJva2UtbGluZWNhcDogYnV0dDsgc3Ryb2tlLWxpbmVqb2luOiBtaXRlcjsgc3Ryb2tlLW1pdGVybGltaXQ6IDEwOyBmaWxsOiByZ2IoMjE0LDAsMCk7IGZpbGwtcnVsZTogbm9uemVybzsgb3BhY2l0eTogMTsiIGQ9Ik0gMTEgOTAgYyAtMi44MTUgMCAtNS42MyAtMS4wNzQgLTcuNzc4IC0zLjIyMiBjIC00LjI5NSAtNC4yOTYgLTQuMjk1IC0xMS4yNjEgMCAtMTUuNTU3IGwgNjggLTY4IGMgNC4yOTcgLTQuMjk2IDExLjI2IC00LjI5NiAxNS41NTcgMCBjIDQuMjk2IDQuMjk2IDQuMjk2IDExLjI2MSAwIDE1LjU1NyBsIC02OCA2OCBDIDE2LjYzIDg4LjkyNiAxMy44MTUgOTAgMTEgOTAgeiIvPiYjeGE7CTxwYXRoIHN0cm9rZS1saW5lY2FwPSJyb3VuZCIgdHJhbnNmb3JtPSJtYXRyaXgoMSAwIDAgMSAwIDApIiBzdHlsZT0ic3Ryb2tlOiBub25lOyBzdHJva2Utd2lkdGg6IDE7IHN0cm9rZS1kYXNoYXJyYXk6IG5vbmU7IHN0cm9rZS1saW5lY2FwOiBidXR0OyBzdHJva2UtbGluZWpvaW46IG1pdGVyOyBzdHJva2UtbWl0ZXJsaW1pdDogMTA7IGZpbGw6IHJnYigyMTQsMCwwKTsgZmlsbC1ydWxlOiBub256ZXJvOyBvcGFjaXR5OiAxOyIgZD0iTSA3OSA5MCBjIC0yLjgxNSAwIC01LjYzIC0xLjA3NCAtNy43NzggLTMuMjIyIGwgLTY4IC02OCBjIC00LjI5NSAtNC4yOTYgLTQuMjk1IC0xMS4yNjEgMCAtMTUuNTU3IGMgNC4yOTYgLTQuMjk2IDExLjI2MSAtNC4yOTYgMTUuNTU3IDAgbCA2OCA2OCBjIDQuMjk2IDQuMjk2IDQuMjk2IDExLjI2MSAwIDE1LjU1NyBDIDg0LjYzIDg4LjkyNiA4MS44MTUgOTAgNzkgOTAgeiIvPiYjeGE7PC9nPiYjeGE7PC9zdmc+;" parent="1" vertex="1">
          <mxGeometry x="552" y="422" width="36" height="36" as="geometry" />
        </mxCell>
        <mxCell id="7GDiASRQIbfY-Lpmv50H-79" value="" style="shape=image;verticalLabelPosition=bottom;labelBackgroundColor=default;verticalAlign=top;aspect=fixed;imageAspect=0;image=data:image/svg+xml,PHN2ZyB4bWxuczp4bGluaz0iaHR0cDovL3d3dy53My5vcmcvMTk5OS94bGluayIgeG1sbnM9Imh0dHA6Ly93d3cudzMub3JnLzIwMDAvc3ZnIiB4bWw6c3BhY2U9InByZXNlcnZlIiB2aWV3Qm94PSIwIDAgMjU2IDI1NiIgaGVpZ2h0PSIyNTYiIHdpZHRoPSIyNTYiIHZlcnNpb249IjEuMSI+JiN4YTsmI3hhOzxkZWZzPiYjeGE7PC9kZWZzPiYjeGE7PGcgdHJhbnNmb3JtPSJ0cmFuc2xhdGUoMS40MDY1OTM0MDY1OTM0MDE2IDEuNDA2NTkzNDA2NTkzNDAxNikgc2NhbGUoMi44MSAyLjgxKSIgc3R5bGU9InN0cm9rZTogbm9uZTsgc3Ryb2tlLXdpZHRoOiAwOyBzdHJva2UtZGFzaGFycmF5OiBub25lOyBzdHJva2UtbGluZWNhcDogYnV0dDsgc3Ryb2tlLWxpbmVqb2luOiBtaXRlcjsgc3Ryb2tlLW1pdGVybGltaXQ6IDEwOyBmaWxsOiBub25lOyBmaWxsLXJ1bGU6IG5vbnplcm87IG9wYWNpdHk6IDE7Ij4mI3hhOwk8cGF0aCBzdHJva2UtbGluZWNhcD0icm91bmQiIHRyYW5zZm9ybT0ibWF0cml4KDEgMCAwIDEgMCAwKSIgc3R5bGU9InN0cm9rZTogbm9uZTsgc3Ryb2tlLXdpZHRoOiAxOyBzdHJva2UtZGFzaGFycmF5OiBub25lOyBzdHJva2UtbGluZWNhcDogYnV0dDsgc3Ryb2tlLWxpbmVqb2luOiBtaXRlcjsgc3Ryb2tlLW1pdGVybGltaXQ6IDEwOyBmaWxsOiByZ2IoMjE0LDAsMCk7IGZpbGwtcnVsZTogbm9uemVybzsgb3BhY2l0eTogMTsiIGQ9Ik0gMTEgOTAgYyAtMi44MTUgMCAtNS42MyAtMS4wNzQgLTcuNzc4IC0zLjIyMiBjIC00LjI5NSAtNC4yOTYgLTQuMjk1IC0xMS4yNjEgMCAtMTUuNTU3IGwgNjggLTY4IGMgNC4yOTcgLTQuMjk2IDExLjI2IC00LjI5NiAxNS41NTcgMCBjIDQuMjk2IDQuMjk2IDQuMjk2IDExLjI2MSAwIDE1LjU1NyBsIC02OCA2OCBDIDE2LjYzIDg4LjkyNiAxMy44MTUgOTAgMTEgOTAgeiIvPiYjeGE7CTxwYXRoIHN0cm9rZS1saW5lY2FwPSJyb3VuZCIgdHJhbnNmb3JtPSJtYXRyaXgoMSAwIDAgMSAwIDApIiBzdHlsZT0ic3Ryb2tlOiBub25lOyBzdHJva2Utd2lkdGg6IDE7IHN0cm9rZS1kYXNoYXJyYXk6IG5vbmU7IHN0cm9rZS1saW5lY2FwOiBidXR0OyBzdHJva2UtbGluZWpvaW46IG1pdGVyOyBzdHJva2UtbWl0ZXJsaW1pdDogMTA7IGZpbGw6IHJnYigyMTQsMCwwKTsgZmlsbC1ydWxlOiBub256ZXJvOyBvcGFjaXR5OiAxOyIgZD0iTSA3OSA5MCBjIC0yLjgxNSAwIC01LjYzIC0xLjA3NCAtNy43NzggLTMuMjIyIGwgLTY4IC02OCBjIC00LjI5NSAtNC4yOTYgLTQuMjk1IC0xMS4yNjEgMCAtMTUuNTU3IGMgNC4yOTYgLTQuMjk2IDExLjI2MSAtNC4yOTYgMTUuNTU3IDAgbCA2OCA2OCBjIDQuMjk2IDQuMjk2IDQuMjk2IDExLjI2MSAwIDE1LjU1NyBDIDg0LjYzIDg4LjkyNiA4MS44MTUgOTAgNzkgOTAgeiIvPiYjeGE7PC9nPiYjeGE7PC9zdmc+;" parent="1" vertex="1">
          <mxGeometry x="312" y="422" width="36" height="36" as="geometry" />
        </mxCell>
        <mxCell id="7GDiASRQIbfY-Lpmv50H-97" value="&lt;font face=&quot;Fira Sans&quot; data-font-src=&quot;https://fonts.googleapis.com/css?family=Linux+Libertine&quot;&gt;Row 0&lt;/font&gt;" style="text;html=1;strokeColor=none;fillColor=none;align=center;verticalAlign=middle;whiteSpace=wrap;rounded=0;labelBackgroundColor=none;fontFamily=Helvetica;fontSize=12;fontColor=default;" parent="1" vertex="1">
          <mxGeometry x="220" y="525" width="60" height="30" as="geometry" />
        </mxCell>
        <mxCell id="7GDiASRQIbfY-Lpmv50H-98" value="&lt;font face=&quot;Fira Sans&quot; data-font-src=&quot;https://fonts.googleapis.com/css?family=Linux+Libertine&quot;&gt;Row 1&lt;/font&gt;" style="text;html=1;strokeColor=none;fillColor=none;align=center;verticalAlign=middle;whiteSpace=wrap;rounded=0;labelBackgroundColor=none;fontFamily=Helvetica;fontSize=12;fontColor=default;" parent="1" vertex="1">
          <mxGeometry x="220" y="605" width="60" height="30" as="geometry" />
        </mxCell>
        <mxCell id="7GDiASRQIbfY-Lpmv50H-99" value="" style="rounded=0;whiteSpace=wrap;html=1;labelBackgroundColor=#ffffff;strokeColor=#000000;fontFamily=Helvetica;fontSize=12;fillColor=#009E73;" parent="1" vertex="1">
          <mxGeometry x="630" y="599" width="10" height="10" as="geometry" />
        </mxCell>
        <mxCell id="7GDiASRQIbfY-Lpmv50H-100" value="" style="rounded=0;whiteSpace=wrap;html=1;labelBackgroundColor=#ffffff;strokeColor=#000000;fontFamily=Helvetica;fontSize=12;fillColor=#56B4E9;" parent="1" vertex="1">
          <mxGeometry x="630" y="631" width="10" height="10" as="geometry" />
        </mxCell>
        <mxCell id="7GDiASRQIbfY-Lpmv50H-101" value="&lt;font face=&quot;Fira Sans&quot; data-font-src=&quot;https://fonts.googleapis.com/css?family=Linux+Libertine&quot;&gt;Pool 0&lt;/font&gt;" style="text;html=1;strokeColor=none;fillColor=none;align=center;verticalAlign=middle;whiteSpace=wrap;rounded=0;labelBackgroundColor=none;fontFamily=Helvetica;fontSize=12;fontColor=default;" parent="1" vertex="1">
          <mxGeometry x="640" y="591" width="60" height="30" as="geometry" />
        </mxCell>
        <mxCell id="7GDiASRQIbfY-Lpmv50H-102" value="&lt;font data-font-src=&quot;https://fonts.googleapis.com/css?family=Linux+Libertine&quot;&gt;&lt;font face=&quot;Fira Sans&quot;&gt;Pool 1&lt;/font&gt;&lt;br&gt;&lt;/font&gt;" style="text;html=1;strokeColor=none;fillColor=none;align=center;verticalAlign=middle;whiteSpace=wrap;rounded=0;labelBackgroundColor=none;fontFamily=Helvetica;fontSize=12;fontColor=default;" parent="1" vertex="1">
          <mxGeometry x="640" y="619" width="60" height="30" as="geometry" />
        </mxCell>
        <mxCell id="7GDiASRQIbfY-Lpmv50H-110" value="&lt;font face=&quot;Fira Sans&quot; data-font-src=&quot;https://fonts.googleapis.com/css?family=Linux+Libertine&quot;&gt;Row 2&lt;/font&gt;" style="text;html=1;strokeColor=none;fillColor=none;align=center;verticalAlign=middle;whiteSpace=wrap;rounded=0;labelBackgroundColor=none;fontFamily=Helvetica;fontSize=12;fontColor=default;" parent="1" vertex="1">
          <mxGeometry x="220" y="685" width="60" height="30" as="geometry" />
        </mxCell>
        <mxCell id="7GDiASRQIbfY-Lpmv50H-117" value="" style="rounded=0;whiteSpace=wrap;html=1;fontFamily=Fira Sans;fillColor=#F5F5F5;" parent="1" vertex="1">
          <mxGeometry x="310" y="520" width="280" height="40" as="geometry" />
        </mxCell>
        <mxCell id="7GDiASRQIbfY-Lpmv50H-118" value="" style="rounded=0;whiteSpace=wrap;html=1;fontFamily=Fira Sans;fillColor=#F5F5F5;" parent="1" vertex="1">
          <mxGeometry x="310" y="600" width="280" height="40" as="geometry" />
        </mxCell>
        <mxCell id="7GDiASRQIbfY-Lpmv50H-119" value="" style="rounded=0;whiteSpace=wrap;html=1;fontFamily=Fira Sans;fillColor=#F5F5F5;" parent="1" vertex="1">
          <mxGeometry x="310" y="680" width="280" height="40" as="geometry" />
        </mxCell>
        <mxCell id="7GDiASRQIbfY-Lpmv50H-120" value="&lt;font face=&quot;Fira Sans&quot;&gt;4&lt;/font&gt;" style="text;html=1;strokeColor=none;fillColor=none;align=center;verticalAlign=middle;whiteSpace=wrap;rounded=0;labelBackgroundColor=none;fontFamily=Helvetica;fontSize=12;fontColor=default;" parent="1" vertex="1">
          <mxGeometry x="422" y="525" width="60" height="30" as="geometry" />
        </mxCell>
        <mxCell id="7GDiASRQIbfY-Lpmv50H-121" value="&lt;font face=&quot;Fira Sans&quot;&gt;5&lt;/font&gt;" style="text;html=1;strokeColor=none;fillColor=none;align=center;verticalAlign=middle;whiteSpace=wrap;rounded=0;labelBackgroundColor=none;fontFamily=Helvetica;fontSize=12;fontColor=default;" parent="1" vertex="1">
          <mxGeometry x="422" y="605" width="60" height="30" as="geometry" />
        </mxCell>
        <mxCell id="7GDiASRQIbfY-Lpmv50H-122" value="&lt;font face=&quot;Fira Sans&quot;&gt;3&lt;/font&gt;" style="text;html=1;strokeColor=none;fillColor=none;align=center;verticalAlign=middle;whiteSpace=wrap;rounded=0;labelBackgroundColor=none;fontFamily=Helvetica;fontSize=12;fontColor=default;" parent="1" vertex="1">
          <mxGeometry x="422" y="685" width="60" height="30" as="geometry" />
        </mxCell>
        <mxCell id="0zrch__30FsSRcA7aivt-1" value="" style="shape=image;verticalLabelPosition=bottom;labelBackgroundColor=default;verticalAlign=top;aspect=fixed;imageAspect=0;image=data:image/svg+xml,PHN2ZyB4bWxuczp4bGluaz0iaHR0cDovL3d3dy53My5vcmcvMTk5OS94bGluayIgeG1sbnM9Imh0dHA6Ly93d3cudzMub3JnLzIwMDAvc3ZnIiB4bWw6c3BhY2U9InByZXNlcnZlIiB2aWV3Qm94PSIwIDAgMjU2IDI1NiIgaGVpZ2h0PSIyNTYiIHdpZHRoPSIyNTYiIHZlcnNpb249IjEuMSI+JiN4YTsmI3hhOzxkZWZzPiYjeGE7PC9kZWZzPiYjeGE7PGcgdHJhbnNmb3JtPSJ0cmFuc2xhdGUoMS40MDY1OTM0MDY1OTM0MDE2IDEuNDA2NTkzNDA2NTkzNDAxNikgc2NhbGUoMi44MSAyLjgxKSIgc3R5bGU9InN0cm9rZTogbm9uZTsgc3Ryb2tlLXdpZHRoOiAwOyBzdHJva2UtZGFzaGFycmF5OiBub25lOyBzdHJva2UtbGluZWNhcDogYnV0dDsgc3Ryb2tlLWxpbmVqb2luOiBtaXRlcjsgc3Ryb2tlLW1pdGVybGltaXQ6IDEwOyBmaWxsOiBub25lOyBmaWxsLXJ1bGU6IG5vbnplcm87IG9wYWNpdHk6IDE7Ij4mI3hhOwk8cGF0aCBzdHJva2UtbGluZWNhcD0icm91bmQiIHRyYW5zZm9ybT0ibWF0cml4KDEgMCAwIDEgMCAwKSIgc3R5bGU9InN0cm9rZTogbm9uZTsgc3Ryb2tlLXdpZHRoOiAxOyBzdHJva2UtZGFzaGFycmF5OiBub25lOyBzdHJva2UtbGluZWNhcDogYnV0dDsgc3Ryb2tlLWxpbmVqb2luOiBtaXRlcjsgc3Ryb2tlLW1pdGVybGltaXQ6IDEwOyBmaWxsOiByZ2IoMjE0LDAsMCk7IGZpbGwtcnVsZTogbm9uemVybzsgb3BhY2l0eTogMTsiIGQ9Ik0gMTEgOTAgYyAtMi44MTUgMCAtNS42MyAtMS4wNzQgLTcuNzc4IC0zLjIyMiBjIC00LjI5NSAtNC4yOTYgLTQuMjk1IC0xMS4yNjEgMCAtMTUuNTU3IGwgNjggLTY4IGMgNC4yOTcgLTQuMjk2IDExLjI2IC00LjI5NiAxNS41NTcgMCBjIDQuMjk2IDQuMjk2IDQuMjk2IDExLjI2MSAwIDE1LjU1NyBsIC02OCA2OCBDIDE2LjYzIDg4LjkyNiAxMy44MTUgOTAgMTEgOTAgeiIvPiYjeGE7CTxwYXRoIHN0cm9rZS1saW5lY2FwPSJyb3VuZCIgdHJhbnNmb3JtPSJtYXRyaXgoMSAwIDAgMSAwIDApIiBzdHlsZT0ic3Ryb2tlOiBub25lOyBzdHJva2Utd2lkdGg6IDE7IHN0cm9rZS1kYXNoYXJyYXk6IG5vbmU7IHN0cm9rZS1saW5lY2FwOiBidXR0OyBzdHJva2UtbGluZWpvaW46IG1pdGVyOyBzdHJva2UtbWl0ZXJsaW1pdDogMTA7IGZpbGw6IHJnYigyMTQsMCwwKTsgZmlsbC1ydWxlOiBub256ZXJvOyBvcGFjaXR5OiAxOyIgZD0iTSA3OSA5MCBjIC0yLjgxNSAwIC01LjYzIC0xLjA3NCAtNy43NzggLTMuMjIyIGwgLTY4IC02OCBjIC00LjI5NSAtNC4yOTYgLTQuMjk1IC0xMS4yNjEgMCAtMTUuNTU3IGMgNC4yOTYgLTQuMjk2IDExLjI2MSAtNC4yOTYgMTUuNTU3IDAgbCA2OCA2OCBjIDQuMjk2IDQuMjk2IDQuMjk2IDExLjI2MSAwIDE1LjU1NyBDIDg0LjYzIDg4LjkyNiA4MS44MTUgOTAgNzkgOTAgeiIvPiYjeGE7PC9nPiYjeGE7PC9zdmc+;" parent="1" vertex="1">
          <mxGeometry x="512" y="262" width="36" height="36" as="geometry" />
        </mxCell>
        <mxCell id="0zrch__30FsSRcA7aivt-30" value="" style="shape=image;verticalLabelPosition=bottom;labelBackgroundColor=default;verticalAlign=top;aspect=fixed;imageAspect=0;image=data:image/svg+xml,PHN2ZyB4bWxuczp4bGluaz0iaHR0cDovL3d3dy53My5vcmcvMTk5OS94bGluayIgeG1sbnM9Imh0dHA6Ly93d3cudzMub3JnLzIwMDAvc3ZnIiB4bWw6c3BhY2U9InByZXNlcnZlIiB2aWV3Qm94PSIwIDAgMjU2IDI1NiIgaGVpZ2h0PSIyNTYiIHdpZHRoPSIyNTYiIHZlcnNpb249IjEuMSI+JiN4YTsmI3hhOzxkZWZzPiYjeGE7PC9kZWZzPiYjeGE7PGcgdHJhbnNmb3JtPSJ0cmFuc2xhdGUoMS40MDY1OTM0MDY1OTM0MDE2IDEuNDA2NTkzNDA2NTkzNDAxNikgc2NhbGUoMi44MSAyLjgxKSIgc3R5bGU9InN0cm9rZTogbm9uZTsgc3Ryb2tlLXdpZHRoOiAwOyBzdHJva2UtZGFzaGFycmF5OiBub25lOyBzdHJva2UtbGluZWNhcDogYnV0dDsgc3Ryb2tlLWxpbmVqb2luOiBtaXRlcjsgc3Ryb2tlLW1pdGVybGltaXQ6IDEwOyBmaWxsOiBub25lOyBmaWxsLXJ1bGU6IG5vbnplcm87IG9wYWNpdHk6IDE7Ij4mI3hhOwk8cGF0aCBzdHJva2UtbGluZWNhcD0icm91bmQiIHRyYW5zZm9ybT0ibWF0cml4KDEgMCAwIDEgMCAwKSIgc3R5bGU9InN0cm9rZTogbm9uZTsgc3Ryb2tlLXdpZHRoOiAxOyBzdHJva2UtZGFzaGFycmF5OiBub25lOyBzdHJva2UtbGluZWNhcDogYnV0dDsgc3Ryb2tlLWxpbmVqb2luOiBtaXRlcjsgc3Ryb2tlLW1pdGVybGltaXQ6IDEwOyBmaWxsOiByZ2IoMjE0LDAsMCk7IGZpbGwtcnVsZTogbm9uemVybzsgb3BhY2l0eTogMTsiIGQ9Ik0gMTEgOTAgYyAtMi44MTUgMCAtNS42MyAtMS4wNzQgLTcuNzc4IC0zLjIyMiBjIC00LjI5NSAtNC4yOTYgLTQuMjk1IC0xMS4yNjEgMCAtMTUuNTU3IGwgNjggLTY4IGMgNC4yOTcgLTQuMjk2IDExLjI2IC00LjI5NiAxNS41NTcgMCBjIDQuMjk2IDQuMjk2IDQuMjk2IDExLjI2MSAwIDE1LjU1NyBsIC02OCA2OCBDIDE2LjYzIDg4LjkyNiAxMy44MTUgOTAgMTEgOTAgeiIvPiYjeGE7CTxwYXRoIHN0cm9rZS1saW5lY2FwPSJyb3VuZCIgdHJhbnNmb3JtPSJtYXRyaXgoMSAwIDAgMSAwIDApIiBzdHlsZT0ic3Ryb2tlOiBub25lOyBzdHJva2Utd2lkdGg6IDE7IHN0cm9rZS1kYXNoYXJyYXk6IG5vbmU7IHN0cm9rZS1saW5lY2FwOiBidXR0OyBzdHJva2UtbGluZWpvaW46IG1pdGVyOyBzdHJva2UtbWl0ZXJsaW1pdDogMTA7IGZpbGw6IHJnYigyMTQsMCwwKTsgZmlsbC1ydWxlOiBub256ZXJvOyBvcGFjaXR5OiAxOyIgZD0iTSA3OSA5MCBjIC0yLjgxNSAwIC01LjYzIC0xLjA3NCAtNy43NzggLTMuMjIyIGwgLTY4IC02OCBjIC00LjI5NSAtNC4yOTYgLTQuMjk1IC0xMS4yNjEgMCAtMTUuNTU3IGMgNC4yOTYgLTQuMjk2IDExLjI2MSAtNC4yOTYgMTUuNTU3IDAgbCA2OCA2OCBjIDQuMjk2IDQuMjk2IDQuMjk2IDExLjI2MSAwIDE1LjU1NyBDIDg0LjYzIDg4LjkyNiA4MS44MTUgOTAgNzkgOTAgeiIvPiYjeGE7PC9nPiYjeGE7PC9zdmc+;" parent="1" vertex="1">
          <mxGeometry x="312" y="342" width="36" height="36" as="geometry" />
        </mxCell>
        <mxCell id="zzLldu2qfuKF6_87hbVk-3" value="&lt;font face=&quot;Fira Sans&quot; data-font-src=&quot;https://fonts.googleapis.com/css?family=Linux+Libertine&quot;&gt;Row 0&lt;/font&gt;" style="text;html=1;strokeColor=none;fillColor=none;align=center;verticalAlign=middle;whiteSpace=wrap;rounded=0;labelBackgroundColor=none;fontFamily=Helvetica;fontSize=12;fontColor=default;" parent="1" vertex="1">
          <mxGeometry x="220" y="765" width="60" height="30" as="geometry" />
        </mxCell>
        <mxCell id="zzLldu2qfuKF6_87hbVk-4" value="&lt;font face=&quot;Fira Sans&quot; data-font-src=&quot;https://fonts.googleapis.com/css?family=Linux+Libertine&quot;&gt;Row 1&lt;/font&gt;" style="text;html=1;strokeColor=none;fillColor=none;align=center;verticalAlign=middle;whiteSpace=wrap;rounded=0;labelBackgroundColor=none;fontFamily=Helvetica;fontSize=12;fontColor=default;" parent="1" vertex="1">
          <mxGeometry x="220" y="845" width="60" height="30" as="geometry" />
        </mxCell>
        <mxCell id="zzLldu2qfuKF6_87hbVk-5" value="" style="rounded=0;whiteSpace=wrap;html=1;labelBackgroundColor=#ffffff;strokeColor=#000000;fontFamily=Helvetica;fontSize=12;fillColor=#009E73;" parent="1" vertex="1">
          <mxGeometry x="630" y="839" width="10" height="10" as="geometry" />
        </mxCell>
        <mxCell id="zzLldu2qfuKF6_87hbVk-6" value="" style="rounded=0;whiteSpace=wrap;html=1;labelBackgroundColor=#ffffff;strokeColor=#000000;fontFamily=Helvetica;fontSize=12;fillColor=#56B4E9;" parent="1" vertex="1">
          <mxGeometry x="630" y="871" width="10" height="10" as="geometry" />
        </mxCell>
        <mxCell id="zzLldu2qfuKF6_87hbVk-7" value="&lt;font face=&quot;Fira Sans&quot; data-font-src=&quot;https://fonts.googleapis.com/css?family=Linux+Libertine&quot;&gt;Pool 0&lt;/font&gt;" style="text;html=1;strokeColor=none;fillColor=none;align=center;verticalAlign=middle;whiteSpace=wrap;rounded=0;labelBackgroundColor=none;fontFamily=Helvetica;fontSize=12;fontColor=default;" parent="1" vertex="1">
          <mxGeometry x="640" y="831" width="60" height="30" as="geometry" />
        </mxCell>
        <mxCell id="zzLldu2qfuKF6_87hbVk-8" value="&lt;font data-font-src=&quot;https://fonts.googleapis.com/css?family=Linux+Libertine&quot;&gt;&lt;font face=&quot;Fira Sans&quot;&gt;Pool 1&lt;/font&gt;&lt;br&gt;&lt;/font&gt;" style="text;html=1;strokeColor=none;fillColor=none;align=center;verticalAlign=middle;whiteSpace=wrap;rounded=0;labelBackgroundColor=none;fontFamily=Helvetica;fontSize=12;fontColor=default;" parent="1" vertex="1">
          <mxGeometry x="640" y="859" width="60" height="30" as="geometry" />
        </mxCell>
        <mxCell id="zzLldu2qfuKF6_87hbVk-9" value="&lt;font face=&quot;Fira Sans&quot; data-font-src=&quot;https://fonts.googleapis.com/css?family=Linux+Libertine&quot;&gt;Row 2&lt;/font&gt;" style="text;html=1;strokeColor=none;fillColor=none;align=center;verticalAlign=middle;whiteSpace=wrap;rounded=0;labelBackgroundColor=none;fontFamily=Helvetica;fontSize=12;fontColor=default;" parent="1" vertex="1">
          <mxGeometry x="220" y="925" width="60" height="30" as="geometry" />
        </mxCell>
        <mxCell id="zzLldu2qfuKF6_87hbVk-10" value="" style="rounded=0;whiteSpace=wrap;html=1;fontFamily=Fira Sans;fillColor=#F5F5F5;" parent="1" vertex="1">
          <mxGeometry x="310" y="760" width="280" height="40" as="geometry" />
        </mxCell>
        <mxCell id="zzLldu2qfuKF6_87hbVk-11" value="" style="rounded=0;whiteSpace=wrap;html=1;fontFamily=Fira Sans;fillColor=#F5F5F5;" parent="1" vertex="1">
          <mxGeometry x="310" y="840" width="280" height="40" as="geometry" />
        </mxCell>
        <mxCell id="zzLldu2qfuKF6_87hbVk-12" value="" style="rounded=0;whiteSpace=wrap;html=1;fontFamily=Fira Sans;fillColor=#F5F5F5;" parent="1" vertex="1">
          <mxGeometry x="310" y="920" width="280" height="40" as="geometry" />
        </mxCell>
        <mxCell id="zzLldu2qfuKF6_87hbVk-13" value="&lt;font face=&quot;Fira Sans&quot;&gt;4&lt;/font&gt;" style="text;html=1;strokeColor=none;fillColor=none;align=center;verticalAlign=middle;whiteSpace=wrap;rounded=0;labelBackgroundColor=none;fontFamily=Helvetica;fontSize=12;fontColor=default;" parent="1" vertex="1">
          <mxGeometry x="422" y="765" width="60" height="30" as="geometry" />
        </mxCell>
        <mxCell id="zzLldu2qfuKF6_87hbVk-14" value="&lt;font face=&quot;Fira Sans&quot;&gt;2&lt;/font&gt;" style="text;html=1;strokeColor=none;fillColor=none;align=center;verticalAlign=middle;whiteSpace=wrap;rounded=0;labelBackgroundColor=none;fontFamily=Helvetica;fontSize=12;fontColor=default;" parent="1" vertex="1">
          <mxGeometry x="512" y="845" width="60" height="30" as="geometry" />
        </mxCell>
        <mxCell id="zzLldu2qfuKF6_87hbVk-15" value="&lt;font face=&quot;Fira Sans&quot;&gt;3&lt;/font&gt;" style="text;html=1;strokeColor=none;fillColor=none;align=center;verticalAlign=middle;whiteSpace=wrap;rounded=0;labelBackgroundColor=none;fontFamily=Helvetica;fontSize=12;fontColor=default;" parent="1" vertex="1">
          <mxGeometry x="422" y="925" width="60" height="30" as="geometry" />
        </mxCell>
        <mxCell id="zzLldu2qfuKF6_87hbVk-16" value="" style="rounded=0;whiteSpace=wrap;html=1;labelBackgroundColor=#ffffff;strokeColor=default;fontFamily=Helvetica;fontSize=12;fillColor=#009E73;" parent="1" vertex="1">
          <mxGeometry x="310" y="840" width="180" height="40" as="geometry" />
        </mxCell>
        <mxCell id="zzLldu2qfuKF6_87hbVk-17" value="&lt;font face=&quot;Fira Sans&quot; data-font-src=&quot;https://fonts.googleapis.com/css?family=Linux+Libertine&quot;&gt;Server 0&lt;/font&gt;" style="text;html=1;strokeColor=none;fillColor=none;align=center;verticalAlign=middle;whiteSpace=wrap;rounded=0;labelBackgroundColor=none;fontFamily=Helvetica;fontSize=12;fontColor=default;" parent="1" vertex="1">
          <mxGeometry x="372" y="851" width="60" height="20" as="geometry" />
        </mxCell>
        <mxCell id="zzLldu2qfuKF6_87hbVk-19" value="&lt;font face=&quot;Fira Sans&quot; data-font-src=&quot;https://fonts.googleapis.com/css?family=Linux+Libertine&quot;&gt;Row 0&lt;/font&gt;" style="text;html=1;strokeColor=none;fillColor=none;align=center;verticalAlign=middle;whiteSpace=wrap;rounded=0;labelBackgroundColor=none;fontFamily=Helvetica;fontSize=12;fontColor=default;" parent="1" vertex="1">
          <mxGeometry x="230" y="1005" width="60" height="30" as="geometry" />
        </mxCell>
        <mxCell id="zzLldu2qfuKF6_87hbVk-20" value="&lt;font face=&quot;Fira Sans&quot; data-font-src=&quot;https://fonts.googleapis.com/css?family=Linux+Libertine&quot;&gt;Row 1&lt;/font&gt;" style="text;html=1;strokeColor=none;fillColor=none;align=center;verticalAlign=middle;whiteSpace=wrap;rounded=0;labelBackgroundColor=none;fontFamily=Helvetica;fontSize=12;fontColor=default;" parent="1" vertex="1">
          <mxGeometry x="230" y="1085" width="60" height="30" as="geometry" />
        </mxCell>
        <mxCell id="zzLldu2qfuKF6_87hbVk-21" value="" style="rounded=0;whiteSpace=wrap;html=1;labelBackgroundColor=#ffffff;strokeColor=#000000;fontFamily=Helvetica;fontSize=12;fillColor=#009E73;" parent="1" vertex="1">
          <mxGeometry x="640" y="1079" width="10" height="10" as="geometry" />
        </mxCell>
        <mxCell id="zzLldu2qfuKF6_87hbVk-22" value="" style="rounded=0;whiteSpace=wrap;html=1;labelBackgroundColor=#ffffff;strokeColor=#000000;fontFamily=Helvetica;fontSize=12;fillColor=#56B4E9;" parent="1" vertex="1">
          <mxGeometry x="640" y="1111" width="10" height="10" as="geometry" />
        </mxCell>
        <mxCell id="zzLldu2qfuKF6_87hbVk-23" value="&lt;font face=&quot;Fira Sans&quot; data-font-src=&quot;https://fonts.googleapis.com/css?family=Linux+Libertine&quot;&gt;Pool 0&lt;/font&gt;" style="text;html=1;strokeColor=none;fillColor=none;align=center;verticalAlign=middle;whiteSpace=wrap;rounded=0;labelBackgroundColor=none;fontFamily=Helvetica;fontSize=12;fontColor=default;" parent="1" vertex="1">
          <mxGeometry x="640" y="1071" width="60" height="30" as="geometry" />
        </mxCell>
        <mxCell id="zzLldu2qfuKF6_87hbVk-24" value="&lt;font data-font-src=&quot;https://fonts.googleapis.com/css?family=Linux+Libertine&quot;&gt;&lt;font face=&quot;Fira Sans&quot;&gt;Pool 1&lt;/font&gt;&lt;br&gt;&lt;/font&gt;" style="text;html=1;strokeColor=none;fillColor=none;align=center;verticalAlign=middle;whiteSpace=wrap;rounded=0;labelBackgroundColor=none;fontFamily=Helvetica;fontSize=12;fontColor=default;" parent="1" vertex="1">
          <mxGeometry x="640" y="1099" width="60" height="30" as="geometry" />
        </mxCell>
        <mxCell id="zzLldu2qfuKF6_87hbVk-25" value="&lt;font face=&quot;Fira Sans&quot; data-font-src=&quot;https://fonts.googleapis.com/css?family=Linux+Libertine&quot;&gt;Row 2&lt;/font&gt;" style="text;html=1;strokeColor=none;fillColor=none;align=center;verticalAlign=middle;whiteSpace=wrap;rounded=0;labelBackgroundColor=none;fontFamily=Helvetica;fontSize=12;fontColor=default;" parent="1" vertex="1">
          <mxGeometry x="230" y="1165" width="60" height="30" as="geometry" />
        </mxCell>
        <mxCell id="zzLldu2qfuKF6_87hbVk-26" value="" style="rounded=0;whiteSpace=wrap;html=1;fontFamily=Fira Sans;fillColor=#F5F5F5;" parent="1" vertex="1">
          <mxGeometry x="320" y="1000" width="280" height="40" as="geometry" />
        </mxCell>
        <mxCell id="zzLldu2qfuKF6_87hbVk-27" value="" style="rounded=0;whiteSpace=wrap;html=1;fontFamily=Fira Sans;fillColor=#F5F5F5;" parent="1" vertex="1">
          <mxGeometry x="320" y="1080" width="280" height="40" as="geometry" />
        </mxCell>
        <mxCell id="zzLldu2qfuKF6_87hbVk-28" value="" style="rounded=0;whiteSpace=wrap;html=1;fontFamily=Fira Sans;fillColor=#F5F5F5;" parent="1" vertex="1">
          <mxGeometry x="320" y="1160" width="280" height="40" as="geometry" />
        </mxCell>
        <mxCell id="zzLldu2qfuKF6_87hbVk-29" value="&lt;font face=&quot;Fira Sans&quot;&gt;4&lt;/font&gt;" style="text;html=1;strokeColor=none;fillColor=none;align=center;verticalAlign=middle;whiteSpace=wrap;rounded=0;labelBackgroundColor=none;fontFamily=Helvetica;fontSize=12;fontColor=default;" parent="1" vertex="1">
          <mxGeometry x="432" y="1005" width="60" height="30" as="geometry" />
        </mxCell>
        <mxCell id="zzLldu2qfuKF6_87hbVk-30" value="&lt;font face=&quot;Fira Sans&quot;&gt;1&lt;/font&gt;" style="text;html=1;strokeColor=none;fillColor=none;align=center;verticalAlign=middle;whiteSpace=wrap;rounded=0;labelBackgroundColor=none;fontFamily=Helvetica;fontSize=12;fontColor=default;" parent="1" vertex="1">
          <mxGeometry x="550" y="1085" width="60" height="30" as="geometry" />
        </mxCell>
        <mxCell id="zzLldu2qfuKF6_87hbVk-31" value="&lt;font face=&quot;Fira Sans&quot;&gt;3&lt;/font&gt;" style="text;html=1;strokeColor=none;fillColor=none;align=center;verticalAlign=middle;whiteSpace=wrap;rounded=0;labelBackgroundColor=none;fontFamily=Helvetica;fontSize=12;fontColor=default;" parent="1" vertex="1">
          <mxGeometry x="432" y="1165" width="60" height="30" as="geometry" />
        </mxCell>
        <mxCell id="zzLldu2qfuKF6_87hbVk-32" value="" style="rounded=0;whiteSpace=wrap;html=1;labelBackgroundColor=#ffffff;strokeColor=default;fontFamily=Helvetica;fontSize=12;fillColor=#009E73;" parent="1" vertex="1">
          <mxGeometry x="320" y="1080" width="180" height="40" as="geometry" />
        </mxCell>
        <mxCell id="zzLldu2qfuKF6_87hbVk-33" value="&lt;font face=&quot;Fira Sans&quot; data-font-src=&quot;https://fonts.googleapis.com/css?family=Linux+Libertine&quot;&gt;Server 0&lt;/font&gt;" style="text;html=1;strokeColor=none;fillColor=none;align=center;verticalAlign=middle;whiteSpace=wrap;rounded=0;labelBackgroundColor=none;fontFamily=Helvetica;fontSize=12;fontColor=default;" parent="1" vertex="1">
          <mxGeometry x="384" y="1091" width="60" height="20" as="geometry" />
        </mxCell>
        <mxCell id="zzLldu2qfuKF6_87hbVk-34" value="" style="rounded=0;whiteSpace=wrap;html=1;labelBackgroundColor=#ffffff;strokeColor=default;fontFamily=Helvetica;fontSize=12;fillColor=#009E73;" parent="1" vertex="1">
          <mxGeometry x="500" y="1080" width="60" height="40" as="geometry" />
        </mxCell>
        <mxCell id="zzLldu2qfuKF6_87hbVk-35" value="&lt;font face=&quot;Fira Sans&quot; data-font-src=&quot;https://fonts.googleapis.com/css?family=Linux+Libertine&quot;&gt;Server 1&lt;/font&gt;" style="text;html=1;strokeColor=none;fillColor=none;align=center;verticalAlign=middle;whiteSpace=wrap;rounded=0;labelBackgroundColor=none;fontFamily=Helvetica;fontSize=12;fontColor=default;" parent="1" vertex="1">
          <mxGeometry x="500" y="1090" width="60" height="20" as="geometry" />
        </mxCell>
      </root>
    </mxGraphModel>
  </diagram>
  <diagram id="TgQbsPvHdr2xBTsmiHGO" name="rows">
    <mxGraphModel dx="954" dy="663" grid="1" gridSize="10" guides="1" tooltips="1" connect="1" arrows="1" fold="1" page="1" pageScale="1" pageWidth="1169" pageHeight="827" math="0" shadow="0">
      <root>
        <mxCell id="0" />
        <mxCell id="1" parent="0" />
        <mxCell id="0jiqxlhVUdn4cJ5izDr_-1" value="" style="whiteSpace=wrap;html=1;aspect=fixed;" parent="1" vertex="1">
          <mxGeometry x="489" y="340" width="40" height="40" as="geometry" />
        </mxCell>
        <mxCell id="0jiqxlhVUdn4cJ5izDr_-2" value="" style="whiteSpace=wrap;html=1;aspect=fixed;" parent="1" vertex="1">
          <mxGeometry x="529" y="340" width="40" height="40" as="geometry" />
        </mxCell>
        <mxCell id="0jiqxlhVUdn4cJ5izDr_-3" value="" style="whiteSpace=wrap;html=1;aspect=fixed;" parent="1" vertex="1">
          <mxGeometry x="569" y="340" width="40" height="40" as="geometry" />
        </mxCell>
        <mxCell id="0jiqxlhVUdn4cJ5izDr_-4" value="" style="whiteSpace=wrap;html=1;aspect=fixed;" parent="1" vertex="1">
          <mxGeometry x="609" y="340" width="40" height="40" as="geometry" />
        </mxCell>
        <mxCell id="0jiqxlhVUdn4cJ5izDr_-5" value="" style="whiteSpace=wrap;html=1;aspect=fixed;" parent="1" vertex="1">
          <mxGeometry x="649" y="340" width="40" height="40" as="geometry" />
        </mxCell>
        <mxCell id="0jiqxlhVUdn4cJ5izDr_-6" value="" style="whiteSpace=wrap;html=1;aspect=fixed;" parent="1" vertex="1">
          <mxGeometry x="689" y="340" width="40" height="40" as="geometry" />
        </mxCell>
        <mxCell id="0jiqxlhVUdn4cJ5izDr_-7" value="" style="whiteSpace=wrap;html=1;aspect=fixed;" parent="1" vertex="1">
          <mxGeometry x="729" y="340" width="40" height="40" as="geometry" />
        </mxCell>
        <mxCell id="0jiqxlhVUdn4cJ5izDr_-8" value="" style="shape=image;verticalLabelPosition=bottom;labelBackgroundColor=default;verticalAlign=top;aspect=fixed;imageAspect=0;image=data:image/svg+xml,PHN2ZyB4bWxuczp4bGluaz0iaHR0cDovL3d3dy53My5vcmcvMTk5OS94bGluayIgeG1sbnM9Imh0dHA6Ly93d3cudzMub3JnLzIwMDAvc3ZnIiB4bWw6c3BhY2U9InByZXNlcnZlIiB2aWV3Qm94PSIwIDAgMjU2IDI1NiIgaGVpZ2h0PSIyNTYiIHdpZHRoPSIyNTYiIHZlcnNpb249IjEuMSI+JiN4YTsmI3hhOzxkZWZzPiYjeGE7PC9kZWZzPiYjeGE7PGcgdHJhbnNmb3JtPSJ0cmFuc2xhdGUoMS40MDY1OTM0MDY1OTM0MDE2IDEuNDA2NTkzNDA2NTkzNDAxNikgc2NhbGUoMi44MSAyLjgxKSIgc3R5bGU9InN0cm9rZTogbm9uZTsgc3Ryb2tlLXdpZHRoOiAwOyBzdHJva2UtZGFzaGFycmF5OiBub25lOyBzdHJva2UtbGluZWNhcDogYnV0dDsgc3Ryb2tlLWxpbmVqb2luOiBtaXRlcjsgc3Ryb2tlLW1pdGVybGltaXQ6IDEwOyBmaWxsOiBub25lOyBmaWxsLXJ1bGU6IG5vbnplcm87IG9wYWNpdHk6IDE7Ij4mI3hhOwk8cGF0aCBzdHJva2UtbGluZWNhcD0icm91bmQiIHRyYW5zZm9ybT0ibWF0cml4KDEgMCAwIDEgMCAwKSIgc3R5bGU9InN0cm9rZTogbm9uZTsgc3Ryb2tlLXdpZHRoOiAxOyBzdHJva2UtZGFzaGFycmF5OiBub25lOyBzdHJva2UtbGluZWNhcDogYnV0dDsgc3Ryb2tlLWxpbmVqb2luOiBtaXRlcjsgc3Ryb2tlLW1pdGVybGltaXQ6IDEwOyBmaWxsOiByZ2IoMjE0LDAsMCk7IGZpbGwtcnVsZTogbm9uemVybzsgb3BhY2l0eTogMTsiIGQ9Ik0gMTEgOTAgYyAtMi44MTUgMCAtNS42MyAtMS4wNzQgLTcuNzc4IC0zLjIyMiBjIC00LjI5NSAtNC4yOTYgLTQuMjk1IC0xMS4yNjEgMCAtMTUuNTU3IGwgNjggLTY4IGMgNC4yOTcgLTQuMjk2IDExLjI2IC00LjI5NiAxNS41NTcgMCBjIDQuMjk2IDQuMjk2IDQuMjk2IDExLjI2MSAwIDE1LjU1NyBsIC02OCA2OCBDIDE2LjYzIDg4LjkyNiAxMy44MTUgOTAgMTEgOTAgeiIvPiYjeGE7CTxwYXRoIHN0cm9rZS1saW5lY2FwPSJyb3VuZCIgdHJhbnNmb3JtPSJtYXRyaXgoMSAwIDAgMSAwIDApIiBzdHlsZT0ic3Ryb2tlOiBub25lOyBzdHJva2Utd2lkdGg6IDE7IHN0cm9rZS1kYXNoYXJyYXk6IG5vbmU7IHN0cm9rZS1saW5lY2FwOiBidXR0OyBzdHJva2UtbGluZWpvaW46IG1pdGVyOyBzdHJva2UtbWl0ZXJsaW1pdDogMTA7IGZpbGw6IHJnYigyMTQsMCwwKTsgZmlsbC1ydWxlOiBub256ZXJvOyBvcGFjaXR5OiAxOyIgZD0iTSA3OSA5MCBjIC0yLjgxNSAwIC01LjYzIC0xLjA3NCAtNy43NzggLTMuMjIyIGwgLTY4IC02OCBjIC00LjI5NSAtNC4yOTYgLTQuMjk1IC0xMS4yNjEgMCAtMTUuNTU3IGMgNC4yOTYgLTQuMjk2IDExLjI2MSAtNC4yOTYgMTUuNTU3IDAgbCA2OCA2OCBjIDQuMjk2IDQuMjk2IDQuMjk2IDExLjI2MSAwIDE1LjU1NyBDIDg0LjYzIDg4LjkyNiA4MS44MTUgOTAgNzkgOTAgeiIvPiYjeGE7PC9nPiYjeGE7PC9zdmc+;" parent="1" vertex="1">
          <mxGeometry x="491" y="342" width="36" height="36" as="geometry" />
        </mxCell>
        <mxCell id="0jiqxlhVUdn4cJ5izDr_-9" value="" style="shape=image;verticalLabelPosition=bottom;labelBackgroundColor=default;verticalAlign=top;aspect=fixed;imageAspect=0;image=data:image/svg+xml,PHN2ZyB4bWxuczp4bGluaz0iaHR0cDovL3d3dy53My5vcmcvMTk5OS94bGluayIgeG1sbnM9Imh0dHA6Ly93d3cudzMub3JnLzIwMDAvc3ZnIiB4bWw6c3BhY2U9InByZXNlcnZlIiB2aWV3Qm94PSIwIDAgMjU2IDI1NiIgaGVpZ2h0PSIyNTYiIHdpZHRoPSIyNTYiIHZlcnNpb249IjEuMSI+JiN4YTsmI3hhOzxkZWZzPiYjeGE7PC9kZWZzPiYjeGE7PGcgdHJhbnNmb3JtPSJ0cmFuc2xhdGUoMS40MDY1OTM0MDY1OTM0MDE2IDEuNDA2NTkzNDA2NTkzNDAxNikgc2NhbGUoMi44MSAyLjgxKSIgc3R5bGU9InN0cm9rZTogbm9uZTsgc3Ryb2tlLXdpZHRoOiAwOyBzdHJva2UtZGFzaGFycmF5OiBub25lOyBzdHJva2UtbGluZWNhcDogYnV0dDsgc3Ryb2tlLWxpbmVqb2luOiBtaXRlcjsgc3Ryb2tlLW1pdGVybGltaXQ6IDEwOyBmaWxsOiBub25lOyBmaWxsLXJ1bGU6IG5vbnplcm87IG9wYWNpdHk6IDE7Ij4mI3hhOwk8cGF0aCBzdHJva2UtbGluZWNhcD0icm91bmQiIHRyYW5zZm9ybT0ibWF0cml4KDEgMCAwIDEgMCAwKSIgc3R5bGU9InN0cm9rZTogbm9uZTsgc3Ryb2tlLXdpZHRoOiAxOyBzdHJva2UtZGFzaGFycmF5OiBub25lOyBzdHJva2UtbGluZWNhcDogYnV0dDsgc3Ryb2tlLWxpbmVqb2luOiBtaXRlcjsgc3Ryb2tlLW1pdGVybGltaXQ6IDEwOyBmaWxsOiByZ2IoMjE0LDAsMCk7IGZpbGwtcnVsZTogbm9uemVybzsgb3BhY2l0eTogMTsiIGQ9Ik0gMTEgOTAgYyAtMi44MTUgMCAtNS42MyAtMS4wNzQgLTcuNzc4IC0zLjIyMiBjIC00LjI5NSAtNC4yOTYgLTQuMjk1IC0xMS4yNjEgMCAtMTUuNTU3IGwgNjggLTY4IGMgNC4yOTcgLTQuMjk2IDExLjI2IC00LjI5NiAxNS41NTcgMCBjIDQuMjk2IDQuMjk2IDQuMjk2IDExLjI2MSAwIDE1LjU1NyBsIC02OCA2OCBDIDE2LjYzIDg4LjkyNiAxMy44MTUgOTAgMTEgOTAgeiIvPiYjeGE7CTxwYXRoIHN0cm9rZS1saW5lY2FwPSJyb3VuZCIgdHJhbnNmb3JtPSJtYXRyaXgoMSAwIDAgMSAwIDApIiBzdHlsZT0ic3Ryb2tlOiBub25lOyBzdHJva2Utd2lkdGg6IDE7IHN0cm9rZS1kYXNoYXJyYXk6IG5vbmU7IHN0cm9rZS1saW5lY2FwOiBidXR0OyBzdHJva2UtbGluZWpvaW46IG1pdGVyOyBzdHJva2UtbWl0ZXJsaW1pdDogMTA7IGZpbGw6IHJnYigyMTQsMCwwKTsgZmlsbC1ydWxlOiBub256ZXJvOyBvcGFjaXR5OiAxOyIgZD0iTSA3OSA5MCBjIC0yLjgxNSAwIC01LjYzIC0xLjA3NCAtNy43NzggLTMuMjIyIGwgLTY4IC02OCBjIC00LjI5NSAtNC4yOTYgLTQuMjk1IC0xMS4yNjEgMCAtMTUuNTU3IGMgNC4yOTYgLTQuMjk2IDExLjI2MSAtNC4yOTYgMTUuNTU3IDAgbCA2OCA2OCBjIDQuMjk2IDQuMjk2IDQuMjk2IDExLjI2MSAwIDE1LjU1NyBDIDg0LjYzIDg4LjkyNiA4MS44MTUgOTAgNzkgOTAgeiIvPiYjeGE7PC9nPiYjeGE7PC9zdmc+;" parent="1" vertex="1">
          <mxGeometry x="531" y="342" width="36" height="36" as="geometry" />
        </mxCell>
        <mxCell id="0jiqxlhVUdn4cJ5izDr_-10" value="" style="whiteSpace=wrap;html=1;aspect=fixed;" parent="1" vertex="1">
          <mxGeometry x="489" y="420" width="40" height="40" as="geometry" />
        </mxCell>
        <mxCell id="0jiqxlhVUdn4cJ5izDr_-11" value="" style="whiteSpace=wrap;html=1;aspect=fixed;" parent="1" vertex="1">
          <mxGeometry x="529" y="420" width="40" height="40" as="geometry" />
        </mxCell>
        <mxCell id="0jiqxlhVUdn4cJ5izDr_-12" value="" style="whiteSpace=wrap;html=1;aspect=fixed;" parent="1" vertex="1">
          <mxGeometry x="569" y="420" width="40" height="40" as="geometry" />
        </mxCell>
        <mxCell id="0jiqxlhVUdn4cJ5izDr_-13" value="" style="whiteSpace=wrap;html=1;aspect=fixed;" parent="1" vertex="1">
          <mxGeometry x="609" y="420" width="40" height="40" as="geometry" />
        </mxCell>
        <mxCell id="0jiqxlhVUdn4cJ5izDr_-14" value="" style="whiteSpace=wrap;html=1;aspect=fixed;" parent="1" vertex="1">
          <mxGeometry x="649" y="420" width="40" height="40" as="geometry" />
        </mxCell>
        <mxCell id="0jiqxlhVUdn4cJ5izDr_-15" value="" style="whiteSpace=wrap;html=1;aspect=fixed;" parent="1" vertex="1">
          <mxGeometry x="689" y="420" width="40" height="40" as="geometry" />
        </mxCell>
        <mxCell id="0jiqxlhVUdn4cJ5izDr_-16" value="" style="whiteSpace=wrap;html=1;aspect=fixed;" parent="1" vertex="1">
          <mxGeometry x="729" y="420" width="40" height="40" as="geometry" />
        </mxCell>
        <mxCell id="0jiqxlhVUdn4cJ5izDr_-17" value="" style="shape=image;verticalLabelPosition=bottom;labelBackgroundColor=default;verticalAlign=top;aspect=fixed;imageAspect=0;image=data:image/svg+xml,PHN2ZyB4bWxuczp4bGluaz0iaHR0cDovL3d3dy53My5vcmcvMTk5OS94bGluayIgeG1sbnM9Imh0dHA6Ly93d3cudzMub3JnLzIwMDAvc3ZnIiB4bWw6c3BhY2U9InByZXNlcnZlIiB2aWV3Qm94PSIwIDAgMjU2IDI1NiIgaGVpZ2h0PSIyNTYiIHdpZHRoPSIyNTYiIHZlcnNpb249IjEuMSI+JiN4YTsmI3hhOzxkZWZzPiYjeGE7PC9kZWZzPiYjeGE7PGcgdHJhbnNmb3JtPSJ0cmFuc2xhdGUoMS40MDY1OTM0MDY1OTM0MDE2IDEuNDA2NTkzNDA2NTkzNDAxNikgc2NhbGUoMi44MSAyLjgxKSIgc3R5bGU9InN0cm9rZTogbm9uZTsgc3Ryb2tlLXdpZHRoOiAwOyBzdHJva2UtZGFzaGFycmF5OiBub25lOyBzdHJva2UtbGluZWNhcDogYnV0dDsgc3Ryb2tlLWxpbmVqb2luOiBtaXRlcjsgc3Ryb2tlLW1pdGVybGltaXQ6IDEwOyBmaWxsOiBub25lOyBmaWxsLXJ1bGU6IG5vbnplcm87IG9wYWNpdHk6IDE7Ij4mI3hhOwk8cGF0aCBzdHJva2UtbGluZWNhcD0icm91bmQiIHRyYW5zZm9ybT0ibWF0cml4KDEgMCAwIDEgMCAwKSIgc3R5bGU9InN0cm9rZTogbm9uZTsgc3Ryb2tlLXdpZHRoOiAxOyBzdHJva2UtZGFzaGFycmF5OiBub25lOyBzdHJva2UtbGluZWNhcDogYnV0dDsgc3Ryb2tlLWxpbmVqb2luOiBtaXRlcjsgc3Ryb2tlLW1pdGVybGltaXQ6IDEwOyBmaWxsOiByZ2IoMjE0LDAsMCk7IGZpbGwtcnVsZTogbm9uemVybzsgb3BhY2l0eTogMTsiIGQ9Ik0gMTEgOTAgYyAtMi44MTUgMCAtNS42MyAtMS4wNzQgLTcuNzc4IC0zLjIyMiBjIC00LjI5NSAtNC4yOTYgLTQuMjk1IC0xMS4yNjEgMCAtMTUuNTU3IGwgNjggLTY4IGMgNC4yOTcgLTQuMjk2IDExLjI2IC00LjI5NiAxNS41NTcgMCBjIDQuMjk2IDQuMjk2IDQuMjk2IDExLjI2MSAwIDE1LjU1NyBsIC02OCA2OCBDIDE2LjYzIDg4LjkyNiAxMy44MTUgOTAgMTEgOTAgeiIvPiYjeGE7CTxwYXRoIHN0cm9rZS1saW5lY2FwPSJyb3VuZCIgdHJhbnNmb3JtPSJtYXRyaXgoMSAwIDAgMSAwIDApIiBzdHlsZT0ic3Ryb2tlOiBub25lOyBzdHJva2Utd2lkdGg6IDE7IHN0cm9rZS1kYXNoYXJyYXk6IG5vbmU7IHN0cm9rZS1saW5lY2FwOiBidXR0OyBzdHJva2UtbGluZWpvaW46IG1pdGVyOyBzdHJva2UtbWl0ZXJsaW1pdDogMTA7IGZpbGw6IHJnYigyMTQsMCwwKTsgZmlsbC1ydWxlOiBub256ZXJvOyBvcGFjaXR5OiAxOyIgZD0iTSA3OSA5MCBjIC0yLjgxNSAwIC01LjYzIC0xLjA3NCAtNy43NzggLTMuMjIyIGwgLTY4IC02OCBjIC00LjI5NSAtNC4yOTYgLTQuMjk1IC0xMS4yNjEgMCAtMTUuNTU3IGMgNC4yOTYgLTQuMjk2IDExLjI2MSAtNC4yOTYgMTUuNTU3IDAgbCA2OCA2OCBjIDQuMjk2IDQuMjk2IDQuMjk2IDExLjI2MSAwIDE1LjU1NyBDIDg0LjYzIDg4LjkyNiA4MS44MTUgOTAgNzkgOTAgeiIvPiYjeGE7PC9nPiYjeGE7PC9zdmc+;" parent="1" vertex="1">
          <mxGeometry x="731" y="422" width="36" height="36" as="geometry" />
        </mxCell>
        <mxCell id="0jiqxlhVUdn4cJ5izDr_-18" value="" style="shape=image;verticalLabelPosition=bottom;labelBackgroundColor=default;verticalAlign=top;aspect=fixed;imageAspect=0;image=data:image/svg+xml,PHN2ZyB4bWxuczp4bGluaz0iaHR0cDovL3d3dy53My5vcmcvMTk5OS94bGluayIgeG1sbnM9Imh0dHA6Ly93d3cudzMub3JnLzIwMDAvc3ZnIiB4bWw6c3BhY2U9InByZXNlcnZlIiB2aWV3Qm94PSIwIDAgMjU2IDI1NiIgaGVpZ2h0PSIyNTYiIHdpZHRoPSIyNTYiIHZlcnNpb249IjEuMSI+JiN4YTsmI3hhOzxkZWZzPiYjeGE7PC9kZWZzPiYjeGE7PGcgdHJhbnNmb3JtPSJ0cmFuc2xhdGUoMS40MDY1OTM0MDY1OTM0MDE2IDEuNDA2NTkzNDA2NTkzNDAxNikgc2NhbGUoMi44MSAyLjgxKSIgc3R5bGU9InN0cm9rZTogbm9uZTsgc3Ryb2tlLXdpZHRoOiAwOyBzdHJva2UtZGFzaGFycmF5OiBub25lOyBzdHJva2UtbGluZWNhcDogYnV0dDsgc3Ryb2tlLWxpbmVqb2luOiBtaXRlcjsgc3Ryb2tlLW1pdGVybGltaXQ6IDEwOyBmaWxsOiBub25lOyBmaWxsLXJ1bGU6IG5vbnplcm87IG9wYWNpdHk6IDE7Ij4mI3hhOwk8cGF0aCBzdHJva2UtbGluZWNhcD0icm91bmQiIHRyYW5zZm9ybT0ibWF0cml4KDEgMCAwIDEgMCAwKSIgc3R5bGU9InN0cm9rZTogbm9uZTsgc3Ryb2tlLXdpZHRoOiAxOyBzdHJva2UtZGFzaGFycmF5OiBub25lOyBzdHJva2UtbGluZWNhcDogYnV0dDsgc3Ryb2tlLWxpbmVqb2luOiBtaXRlcjsgc3Ryb2tlLW1pdGVybGltaXQ6IDEwOyBmaWxsOiByZ2IoMjE0LDAsMCk7IGZpbGwtcnVsZTogbm9uemVybzsgb3BhY2l0eTogMTsiIGQ9Ik0gMTEgOTAgYyAtMi44MTUgMCAtNS42MyAtMS4wNzQgLTcuNzc4IC0zLjIyMiBjIC00LjI5NSAtNC4yOTYgLTQuMjk1IC0xMS4yNjEgMCAtMTUuNTU3IGwgNjggLTY4IGMgNC4yOTcgLTQuMjk2IDExLjI2IC00LjI5NiAxNS41NTcgMCBjIDQuMjk2IDQuMjk2IDQuMjk2IDExLjI2MSAwIDE1LjU1NyBsIC02OCA2OCBDIDE2LjYzIDg4LjkyNiAxMy44MTUgOTAgMTEgOTAgeiIvPiYjeGE7CTxwYXRoIHN0cm9rZS1saW5lY2FwPSJyb3VuZCIgdHJhbnNmb3JtPSJtYXRyaXgoMSAwIDAgMSAwIDApIiBzdHlsZT0ic3Ryb2tlOiBub25lOyBzdHJva2Utd2lkdGg6IDE7IHN0cm9rZS1kYXNoYXJyYXk6IG5vbmU7IHN0cm9rZS1saW5lY2FwOiBidXR0OyBzdHJva2UtbGluZWpvaW46IG1pdGVyOyBzdHJva2UtbWl0ZXJsaW1pdDogMTA7IGZpbGw6IHJnYigyMTQsMCwwKTsgZmlsbC1ydWxlOiBub256ZXJvOyBvcGFjaXR5OiAxOyIgZD0iTSA3OSA5MCBjIC0yLjgxNSAwIC01LjYzIC0xLjA3NCAtNy43NzggLTMuMjIyIGwgLTY4IC02OCBjIC00LjI5NSAtNC4yOTYgLTQuMjk1IC0xMS4yNjEgMCAtMTUuNTU3IGMgNC4yOTYgLTQuMjk2IDExLjI2MSAtNC4yOTYgMTUuNTU3IDAgbCA2OCA2OCBjIDQuMjk2IDQuMjk2IDQuMjk2IDExLjI2MSAwIDE1LjU1NyBDIDg0LjYzIDg4LjkyNiA4MS44MTUgOTAgNzkgOTAgeiIvPiYjeGE7PC9nPiYjeGE7PC9zdmc+;" parent="1" vertex="1">
          <mxGeometry x="611" y="422" width="36" height="36" as="geometry" />
        </mxCell>
        <mxCell id="0jiqxlhVUdn4cJ5izDr_-27" value="&lt;font data-font-src=&quot;https://fonts.googleapis.com/css?family=Linux+Libertine&quot; face=&quot;Linux Libertine&quot;&gt;Row 0&lt;/font&gt;" style="text;html=1;strokeColor=none;fillColor=none;align=center;verticalAlign=middle;whiteSpace=wrap;rounded=0;labelBackgroundColor=none;fontFamily=Helvetica;fontSize=12;fontColor=default;" parent="1" vertex="1">
          <mxGeometry x="399" y="345" width="60" height="30" as="geometry" />
        </mxCell>
        <mxCell id="0jiqxlhVUdn4cJ5izDr_-28" value="&lt;font data-font-src=&quot;https://fonts.googleapis.com/css?family=Linux+Libertine&quot; face=&quot;Linux Libertine&quot;&gt;Row 1&lt;/font&gt;" style="text;html=1;strokeColor=none;fillColor=none;align=center;verticalAlign=middle;whiteSpace=wrap;rounded=0;labelBackgroundColor=none;fontFamily=Helvetica;fontSize=12;fontColor=default;" parent="1" vertex="1">
          <mxGeometry x="399" y="425" width="60" height="30" as="geometry" />
        </mxCell>
      </root>
    </mxGraphModel>
  </diagram>
  <diagram name="rows-no-labels" id="5hpf9s4WGUXjDfTAkmMN">
    <mxGraphModel dx="954" dy="663" grid="1" gridSize="10" guides="1" tooltips="1" connect="1" arrows="1" fold="1" page="1" pageScale="1" pageWidth="1169" pageHeight="827" math="0" shadow="0">
      <root>
        <mxCell id="QlROGUz6vbMLaSLU5Oy7-0" />
        <mxCell id="QlROGUz6vbMLaSLU5Oy7-1" parent="QlROGUz6vbMLaSLU5Oy7-0" />
        <mxCell id="QlROGUz6vbMLaSLU5Oy7-2" value="" style="whiteSpace=wrap;html=1;aspect=fixed;" parent="QlROGUz6vbMLaSLU5Oy7-1" vertex="1">
          <mxGeometry x="489" y="340" width="40" height="40" as="geometry" />
        </mxCell>
        <mxCell id="QlROGUz6vbMLaSLU5Oy7-3" value="" style="whiteSpace=wrap;html=1;aspect=fixed;" parent="QlROGUz6vbMLaSLU5Oy7-1" vertex="1">
          <mxGeometry x="529" y="340" width="40" height="40" as="geometry" />
        </mxCell>
        <mxCell id="QlROGUz6vbMLaSLU5Oy7-4" value="" style="whiteSpace=wrap;html=1;aspect=fixed;" parent="QlROGUz6vbMLaSLU5Oy7-1" vertex="1">
          <mxGeometry x="569" y="340" width="40" height="40" as="geometry" />
        </mxCell>
        <mxCell id="QlROGUz6vbMLaSLU5Oy7-5" value="" style="whiteSpace=wrap;html=1;aspect=fixed;" parent="QlROGUz6vbMLaSLU5Oy7-1" vertex="1">
          <mxGeometry x="609" y="340" width="40" height="40" as="geometry" />
        </mxCell>
        <mxCell id="QlROGUz6vbMLaSLU5Oy7-6" value="" style="whiteSpace=wrap;html=1;aspect=fixed;" parent="QlROGUz6vbMLaSLU5Oy7-1" vertex="1">
          <mxGeometry x="649" y="340" width="40" height="40" as="geometry" />
        </mxCell>
        <mxCell id="QlROGUz6vbMLaSLU5Oy7-7" value="" style="whiteSpace=wrap;html=1;aspect=fixed;" parent="QlROGUz6vbMLaSLU5Oy7-1" vertex="1">
          <mxGeometry x="689" y="340" width="40" height="40" as="geometry" />
        </mxCell>
        <mxCell id="QlROGUz6vbMLaSLU5Oy7-8" value="" style="whiteSpace=wrap;html=1;aspect=fixed;" parent="QlROGUz6vbMLaSLU5Oy7-1" vertex="1">
          <mxGeometry x="729" y="340" width="40" height="40" as="geometry" />
        </mxCell>
        <mxCell id="QlROGUz6vbMLaSLU5Oy7-9" value="" style="shape=image;verticalLabelPosition=bottom;labelBackgroundColor=default;verticalAlign=top;aspect=fixed;imageAspect=0;image=data:image/svg+xml,PHN2ZyB4bWxuczp4bGluaz0iaHR0cDovL3d3dy53My5vcmcvMTk5OS94bGluayIgeG1sbnM9Imh0dHA6Ly93d3cudzMub3JnLzIwMDAvc3ZnIiB4bWw6c3BhY2U9InByZXNlcnZlIiB2aWV3Qm94PSIwIDAgMjU2IDI1NiIgaGVpZ2h0PSIyNTYiIHdpZHRoPSIyNTYiIHZlcnNpb249IjEuMSI+JiN4YTsmI3hhOzxkZWZzPiYjeGE7PC9kZWZzPiYjeGE7PGcgdHJhbnNmb3JtPSJ0cmFuc2xhdGUoMS40MDY1OTM0MDY1OTM0MDE2IDEuNDA2NTkzNDA2NTkzNDAxNikgc2NhbGUoMi44MSAyLjgxKSIgc3R5bGU9InN0cm9rZTogbm9uZTsgc3Ryb2tlLXdpZHRoOiAwOyBzdHJva2UtZGFzaGFycmF5OiBub25lOyBzdHJva2UtbGluZWNhcDogYnV0dDsgc3Ryb2tlLWxpbmVqb2luOiBtaXRlcjsgc3Ryb2tlLW1pdGVybGltaXQ6IDEwOyBmaWxsOiBub25lOyBmaWxsLXJ1bGU6IG5vbnplcm87IG9wYWNpdHk6IDE7Ij4mI3hhOwk8cGF0aCBzdHJva2UtbGluZWNhcD0icm91bmQiIHRyYW5zZm9ybT0ibWF0cml4KDEgMCAwIDEgMCAwKSIgc3R5bGU9InN0cm9rZTogbm9uZTsgc3Ryb2tlLXdpZHRoOiAxOyBzdHJva2UtZGFzaGFycmF5OiBub25lOyBzdHJva2UtbGluZWNhcDogYnV0dDsgc3Ryb2tlLWxpbmVqb2luOiBtaXRlcjsgc3Ryb2tlLW1pdGVybGltaXQ6IDEwOyBmaWxsOiByZ2IoMjE0LDAsMCk7IGZpbGwtcnVsZTogbm9uemVybzsgb3BhY2l0eTogMTsiIGQ9Ik0gMTEgOTAgYyAtMi44MTUgMCAtNS42MyAtMS4wNzQgLTcuNzc4IC0zLjIyMiBjIC00LjI5NSAtNC4yOTYgLTQuMjk1IC0xMS4yNjEgMCAtMTUuNTU3IGwgNjggLTY4IGMgNC4yOTcgLTQuMjk2IDExLjI2IC00LjI5NiAxNS41NTcgMCBjIDQuMjk2IDQuMjk2IDQuMjk2IDExLjI2MSAwIDE1LjU1NyBsIC02OCA2OCBDIDE2LjYzIDg4LjkyNiAxMy44MTUgOTAgMTEgOTAgeiIvPiYjeGE7CTxwYXRoIHN0cm9rZS1saW5lY2FwPSJyb3VuZCIgdHJhbnNmb3JtPSJtYXRyaXgoMSAwIDAgMSAwIDApIiBzdHlsZT0ic3Ryb2tlOiBub25lOyBzdHJva2Utd2lkdGg6IDE7IHN0cm9rZS1kYXNoYXJyYXk6IG5vbmU7IHN0cm9rZS1saW5lY2FwOiBidXR0OyBzdHJva2UtbGluZWpvaW46IG1pdGVyOyBzdHJva2UtbWl0ZXJsaW1pdDogMTA7IGZpbGw6IHJnYigyMTQsMCwwKTsgZmlsbC1ydWxlOiBub256ZXJvOyBvcGFjaXR5OiAxOyIgZD0iTSA3OSA5MCBjIC0yLjgxNSAwIC01LjYzIC0xLjA3NCAtNy43NzggLTMuMjIyIGwgLTY4IC02OCBjIC00LjI5NSAtNC4yOTYgLTQuMjk1IC0xMS4yNjEgMCAtMTUuNTU3IGMgNC4yOTYgLTQuMjk2IDExLjI2MSAtNC4yOTYgMTUuNTU3IDAgbCA2OCA2OCBjIDQuMjk2IDQuMjk2IDQuMjk2IDExLjI2MSAwIDE1LjU1NyBDIDg0LjYzIDg4LjkyNiA4MS44MTUgOTAgNzkgOTAgeiIvPiYjeGE7PC9nPiYjeGE7PC9zdmc+;" parent="QlROGUz6vbMLaSLU5Oy7-1" vertex="1">
          <mxGeometry x="491" y="342" width="36" height="36" as="geometry" />
        </mxCell>
        <mxCell id="QlROGUz6vbMLaSLU5Oy7-10" value="" style="shape=image;verticalLabelPosition=bottom;labelBackgroundColor=default;verticalAlign=top;aspect=fixed;imageAspect=0;image=data:image/svg+xml,PHN2ZyB4bWxuczp4bGluaz0iaHR0cDovL3d3dy53My5vcmcvMTk5OS94bGluayIgeG1sbnM9Imh0dHA6Ly93d3cudzMub3JnLzIwMDAvc3ZnIiB4bWw6c3BhY2U9InByZXNlcnZlIiB2aWV3Qm94PSIwIDAgMjU2IDI1NiIgaGVpZ2h0PSIyNTYiIHdpZHRoPSIyNTYiIHZlcnNpb249IjEuMSI+JiN4YTsmI3hhOzxkZWZzPiYjeGE7PC9kZWZzPiYjeGE7PGcgdHJhbnNmb3JtPSJ0cmFuc2xhdGUoMS40MDY1OTM0MDY1OTM0MDE2IDEuNDA2NTkzNDA2NTkzNDAxNikgc2NhbGUoMi44MSAyLjgxKSIgc3R5bGU9InN0cm9rZTogbm9uZTsgc3Ryb2tlLXdpZHRoOiAwOyBzdHJva2UtZGFzaGFycmF5OiBub25lOyBzdHJva2UtbGluZWNhcDogYnV0dDsgc3Ryb2tlLWxpbmVqb2luOiBtaXRlcjsgc3Ryb2tlLW1pdGVybGltaXQ6IDEwOyBmaWxsOiBub25lOyBmaWxsLXJ1bGU6IG5vbnplcm87IG9wYWNpdHk6IDE7Ij4mI3hhOwk8cGF0aCBzdHJva2UtbGluZWNhcD0icm91bmQiIHRyYW5zZm9ybT0ibWF0cml4KDEgMCAwIDEgMCAwKSIgc3R5bGU9InN0cm9rZTogbm9uZTsgc3Ryb2tlLXdpZHRoOiAxOyBzdHJva2UtZGFzaGFycmF5OiBub25lOyBzdHJva2UtbGluZWNhcDogYnV0dDsgc3Ryb2tlLWxpbmVqb2luOiBtaXRlcjsgc3Ryb2tlLW1pdGVybGltaXQ6IDEwOyBmaWxsOiByZ2IoMjE0LDAsMCk7IGZpbGwtcnVsZTogbm9uemVybzsgb3BhY2l0eTogMTsiIGQ9Ik0gMTEgOTAgYyAtMi44MTUgMCAtNS42MyAtMS4wNzQgLTcuNzc4IC0zLjIyMiBjIC00LjI5NSAtNC4yOTYgLTQuMjk1IC0xMS4yNjEgMCAtMTUuNTU3IGwgNjggLTY4IGMgNC4yOTcgLTQuMjk2IDExLjI2IC00LjI5NiAxNS41NTcgMCBjIDQuMjk2IDQuMjk2IDQuMjk2IDExLjI2MSAwIDE1LjU1NyBsIC02OCA2OCBDIDE2LjYzIDg4LjkyNiAxMy44MTUgOTAgMTEgOTAgeiIvPiYjeGE7CTxwYXRoIHN0cm9rZS1saW5lY2FwPSJyb3VuZCIgdHJhbnNmb3JtPSJtYXRyaXgoMSAwIDAgMSAwIDApIiBzdHlsZT0ic3Ryb2tlOiBub25lOyBzdHJva2Utd2lkdGg6IDE7IHN0cm9rZS1kYXNoYXJyYXk6IG5vbmU7IHN0cm9rZS1saW5lY2FwOiBidXR0OyBzdHJva2UtbGluZWpvaW46IG1pdGVyOyBzdHJva2UtbWl0ZXJsaW1pdDogMTA7IGZpbGw6IHJnYigyMTQsMCwwKTsgZmlsbC1ydWxlOiBub256ZXJvOyBvcGFjaXR5OiAxOyIgZD0iTSA3OSA5MCBjIC0yLjgxNSAwIC01LjYzIC0xLjA3NCAtNy43NzggLTMuMjIyIGwgLTY4IC02OCBjIC00LjI5NSAtNC4yOTYgLTQuMjk1IC0xMS4yNjEgMCAtMTUuNTU3IGMgNC4yOTYgLTQuMjk2IDExLjI2MSAtNC4yOTYgMTUuNTU3IDAgbCA2OCA2OCBjIDQuMjk2IDQuMjk2IDQuMjk2IDExLjI2MSAwIDE1LjU1NyBDIDg0LjYzIDg4LjkyNiA4MS44MTUgOTAgNzkgOTAgeiIvPiYjeGE7PC9nPiYjeGE7PC9zdmc+;" parent="QlROGUz6vbMLaSLU5Oy7-1" vertex="1">
          <mxGeometry x="531" y="342" width="36" height="36" as="geometry" />
        </mxCell>
        <mxCell id="QlROGUz6vbMLaSLU5Oy7-11" value="" style="whiteSpace=wrap;html=1;aspect=fixed;" parent="QlROGUz6vbMLaSLU5Oy7-1" vertex="1">
          <mxGeometry x="489" y="420" width="40" height="40" as="geometry" />
        </mxCell>
        <mxCell id="QlROGUz6vbMLaSLU5Oy7-12" value="" style="whiteSpace=wrap;html=1;aspect=fixed;" parent="QlROGUz6vbMLaSLU5Oy7-1" vertex="1">
          <mxGeometry x="529" y="420" width="40" height="40" as="geometry" />
        </mxCell>
        <mxCell id="QlROGUz6vbMLaSLU5Oy7-13" value="" style="whiteSpace=wrap;html=1;aspect=fixed;" parent="QlROGUz6vbMLaSLU5Oy7-1" vertex="1">
          <mxGeometry x="569" y="420" width="40" height="40" as="geometry" />
        </mxCell>
        <mxCell id="QlROGUz6vbMLaSLU5Oy7-14" value="" style="whiteSpace=wrap;html=1;aspect=fixed;" parent="QlROGUz6vbMLaSLU5Oy7-1" vertex="1">
          <mxGeometry x="609" y="420" width="40" height="40" as="geometry" />
        </mxCell>
        <mxCell id="QlROGUz6vbMLaSLU5Oy7-15" value="" style="whiteSpace=wrap;html=1;aspect=fixed;" parent="QlROGUz6vbMLaSLU5Oy7-1" vertex="1">
          <mxGeometry x="649" y="420" width="40" height="40" as="geometry" />
        </mxCell>
        <mxCell id="QlROGUz6vbMLaSLU5Oy7-16" value="" style="whiteSpace=wrap;html=1;aspect=fixed;" parent="QlROGUz6vbMLaSLU5Oy7-1" vertex="1">
          <mxGeometry x="689" y="420" width="40" height="40" as="geometry" />
        </mxCell>
        <mxCell id="QlROGUz6vbMLaSLU5Oy7-17" value="" style="whiteSpace=wrap;html=1;aspect=fixed;" parent="QlROGUz6vbMLaSLU5Oy7-1" vertex="1">
          <mxGeometry x="729" y="420" width="40" height="40" as="geometry" />
        </mxCell>
        <mxCell id="QlROGUz6vbMLaSLU5Oy7-18" value="" style="shape=image;verticalLabelPosition=bottom;labelBackgroundColor=default;verticalAlign=top;aspect=fixed;imageAspect=0;image=data:image/svg+xml,PHN2ZyB4bWxuczp4bGluaz0iaHR0cDovL3d3dy53My5vcmcvMTk5OS94bGluayIgeG1sbnM9Imh0dHA6Ly93d3cudzMub3JnLzIwMDAvc3ZnIiB4bWw6c3BhY2U9InByZXNlcnZlIiB2aWV3Qm94PSIwIDAgMjU2IDI1NiIgaGVpZ2h0PSIyNTYiIHdpZHRoPSIyNTYiIHZlcnNpb249IjEuMSI+JiN4YTsmI3hhOzxkZWZzPiYjeGE7PC9kZWZzPiYjeGE7PGcgdHJhbnNmb3JtPSJ0cmFuc2xhdGUoMS40MDY1OTM0MDY1OTM0MDE2IDEuNDA2NTkzNDA2NTkzNDAxNikgc2NhbGUoMi44MSAyLjgxKSIgc3R5bGU9InN0cm9rZTogbm9uZTsgc3Ryb2tlLXdpZHRoOiAwOyBzdHJva2UtZGFzaGFycmF5OiBub25lOyBzdHJva2UtbGluZWNhcDogYnV0dDsgc3Ryb2tlLWxpbmVqb2luOiBtaXRlcjsgc3Ryb2tlLW1pdGVybGltaXQ6IDEwOyBmaWxsOiBub25lOyBmaWxsLXJ1bGU6IG5vbnplcm87IG9wYWNpdHk6IDE7Ij4mI3hhOwk8cGF0aCBzdHJva2UtbGluZWNhcD0icm91bmQiIHRyYW5zZm9ybT0ibWF0cml4KDEgMCAwIDEgMCAwKSIgc3R5bGU9InN0cm9rZTogbm9uZTsgc3Ryb2tlLXdpZHRoOiAxOyBzdHJva2UtZGFzaGFycmF5OiBub25lOyBzdHJva2UtbGluZWNhcDogYnV0dDsgc3Ryb2tlLWxpbmVqb2luOiBtaXRlcjsgc3Ryb2tlLW1pdGVybGltaXQ6IDEwOyBmaWxsOiByZ2IoMjE0LDAsMCk7IGZpbGwtcnVsZTogbm9uemVybzsgb3BhY2l0eTogMTsiIGQ9Ik0gMTEgOTAgYyAtMi44MTUgMCAtNS42MyAtMS4wNzQgLTcuNzc4IC0zLjIyMiBjIC00LjI5NSAtNC4yOTYgLTQuMjk1IC0xMS4yNjEgMCAtMTUuNTU3IGwgNjggLTY4IGMgNC4yOTcgLTQuMjk2IDExLjI2IC00LjI5NiAxNS41NTcgMCBjIDQuMjk2IDQuMjk2IDQuMjk2IDExLjI2MSAwIDE1LjU1NyBsIC02OCA2OCBDIDE2LjYzIDg4LjkyNiAxMy44MTUgOTAgMTEgOTAgeiIvPiYjeGE7CTxwYXRoIHN0cm9rZS1saW5lY2FwPSJyb3VuZCIgdHJhbnNmb3JtPSJtYXRyaXgoMSAwIDAgMSAwIDApIiBzdHlsZT0ic3Ryb2tlOiBub25lOyBzdHJva2Utd2lkdGg6IDE7IHN0cm9rZS1kYXNoYXJyYXk6IG5vbmU7IHN0cm9rZS1saW5lY2FwOiBidXR0OyBzdHJva2UtbGluZWpvaW46IG1pdGVyOyBzdHJva2UtbWl0ZXJsaW1pdDogMTA7IGZpbGw6IHJnYigyMTQsMCwwKTsgZmlsbC1ydWxlOiBub256ZXJvOyBvcGFjaXR5OiAxOyIgZD0iTSA3OSA5MCBjIC0yLjgxNSAwIC01LjYzIC0xLjA3NCAtNy43NzggLTMuMjIyIGwgLTY4IC02OCBjIC00LjI5NSAtNC4yOTYgLTQuMjk1IC0xMS4yNjEgMCAtMTUuNTU3IGMgNC4yOTYgLTQuMjk2IDExLjI2MSAtNC4yOTYgMTUuNTU3IDAgbCA2OCA2OCBjIDQuMjk2IDQuMjk2IDQuMjk2IDExLjI2MSAwIDE1LjU1NyBDIDg0LjYzIDg4LjkyNiA4MS44MTUgOTAgNzkgOTAgeiIvPiYjeGE7PC9nPiYjeGE7PC9zdmc+;" parent="QlROGUz6vbMLaSLU5Oy7-1" vertex="1">
          <mxGeometry x="731" y="422" width="36" height="36" as="geometry" />
        </mxCell>
        <mxCell id="QlROGUz6vbMLaSLU5Oy7-19" value="" style="shape=image;verticalLabelPosition=bottom;labelBackgroundColor=default;verticalAlign=top;aspect=fixed;imageAspect=0;image=data:image/svg+xml,PHN2ZyB4bWxuczp4bGluaz0iaHR0cDovL3d3dy53My5vcmcvMTk5OS94bGluayIgeG1sbnM9Imh0dHA6Ly93d3cudzMub3JnLzIwMDAvc3ZnIiB4bWw6c3BhY2U9InByZXNlcnZlIiB2aWV3Qm94PSIwIDAgMjU2IDI1NiIgaGVpZ2h0PSIyNTYiIHdpZHRoPSIyNTYiIHZlcnNpb249IjEuMSI+JiN4YTsmI3hhOzxkZWZzPiYjeGE7PC9kZWZzPiYjeGE7PGcgdHJhbnNmb3JtPSJ0cmFuc2xhdGUoMS40MDY1OTM0MDY1OTM0MDE2IDEuNDA2NTkzNDA2NTkzNDAxNikgc2NhbGUoMi44MSAyLjgxKSIgc3R5bGU9InN0cm9rZTogbm9uZTsgc3Ryb2tlLXdpZHRoOiAwOyBzdHJva2UtZGFzaGFycmF5OiBub25lOyBzdHJva2UtbGluZWNhcDogYnV0dDsgc3Ryb2tlLWxpbmVqb2luOiBtaXRlcjsgc3Ryb2tlLW1pdGVybGltaXQ6IDEwOyBmaWxsOiBub25lOyBmaWxsLXJ1bGU6IG5vbnplcm87IG9wYWNpdHk6IDE7Ij4mI3hhOwk8cGF0aCBzdHJva2UtbGluZWNhcD0icm91bmQiIHRyYW5zZm9ybT0ibWF0cml4KDEgMCAwIDEgMCAwKSIgc3R5bGU9InN0cm9rZTogbm9uZTsgc3Ryb2tlLXdpZHRoOiAxOyBzdHJva2UtZGFzaGFycmF5OiBub25lOyBzdHJva2UtbGluZWNhcDogYnV0dDsgc3Ryb2tlLWxpbmVqb2luOiBtaXRlcjsgc3Ryb2tlLW1pdGVybGltaXQ6IDEwOyBmaWxsOiByZ2IoMjE0LDAsMCk7IGZpbGwtcnVsZTogbm9uemVybzsgb3BhY2l0eTogMTsiIGQ9Ik0gMTEgOTAgYyAtMi44MTUgMCAtNS42MyAtMS4wNzQgLTcuNzc4IC0zLjIyMiBjIC00LjI5NSAtNC4yOTYgLTQuMjk1IC0xMS4yNjEgMCAtMTUuNTU3IGwgNjggLTY4IGMgNC4yOTcgLTQuMjk2IDExLjI2IC00LjI5NiAxNS41NTcgMCBjIDQuMjk2IDQuMjk2IDQuMjk2IDExLjI2MSAwIDE1LjU1NyBsIC02OCA2OCBDIDE2LjYzIDg4LjkyNiAxMy44MTUgOTAgMTEgOTAgeiIvPiYjeGE7CTxwYXRoIHN0cm9rZS1saW5lY2FwPSJyb3VuZCIgdHJhbnNmb3JtPSJtYXRyaXgoMSAwIDAgMSAwIDApIiBzdHlsZT0ic3Ryb2tlOiBub25lOyBzdHJva2Utd2lkdGg6IDE7IHN0cm9rZS1kYXNoYXJyYXk6IG5vbmU7IHN0cm9rZS1saW5lY2FwOiBidXR0OyBzdHJva2UtbGluZWpvaW46IG1pdGVyOyBzdHJva2UtbWl0ZXJsaW1pdDogMTA7IGZpbGw6IHJnYigyMTQsMCwwKTsgZmlsbC1ydWxlOiBub256ZXJvOyBvcGFjaXR5OiAxOyIgZD0iTSA3OSA5MCBjIC0yLjgxNSAwIC01LjYzIC0xLjA3NCAtNy43NzggLTMuMjIyIGwgLTY4IC02OCBjIC00LjI5NSAtNC4yOTYgLTQuMjk1IC0xMS4yNjEgMCAtMTUuNTU3IGMgNC4yOTYgLTQuMjk2IDExLjI2MSAtNC4yOTYgMTUuNTU3IDAgbCA2OCA2OCBjIDQuMjk2IDQuMjk2IDQuMjk2IDExLjI2MSAwIDE1LjU1NyBDIDg0LjYzIDg4LjkyNiA4MS44MTUgOTAgNzkgOTAgeiIvPiYjeGE7PC9nPiYjeGE7PC9zdmc+;" parent="QlROGUz6vbMLaSLU5Oy7-1" vertex="1">
          <mxGeometry x="611" y="422" width="36" height="36" as="geometry" />
        </mxCell>
      </root>
    </mxGraphModel>
  </diagram>
</mxfile>
